<svg xmlns="http://www.w3.org/2000/svg" xmlns:xlink="http://www.w3.org/1999/xlink" width="50" height="50" viewBox="0 0 50 50"><defs><clipPath id="a"><rect width="30" height="30" transform="translate(10 10)" fill="none"/></clipPath></defs><g transform="translate(-430 -387)"><path d="M25,0A25,25,0,1,1,0,25,25,25,0,0,1,25,0" transform="translate(430 387)" fill="#169e6a"/><g transform="translate(430 387)"><g clip-path="url(#a)"><path d="M10,38.637V33.182a1.364,1.364,0,0,1,1.363-1.364H38.637A1.364,1.364,0,0,1,40,33.182v5.455A1.364,1.364,0,0,1,38.637,40H11.363A1.364,1.364,0,0,1,10,38.637m2.727-1.364H37.272V34.546H12.727Z" fill="#fff"/><path d="M10,27.727V22.273a1.364,1.364,0,0,1,1.363-1.364H30.455a1.364,1.364,0,0,1,1.363,1.364v5.454a1.364,1.364,0,0,1-1.363,1.364H11.363A1.364,1.364,0,0,1,10,27.727m2.727-1.364H29.09V23.636H12.727Z" fill="#fff"/><path d="M10,16.818V11.363A1.364,1.364,0,0,1,11.363,10h10.91a1.364,1.364,0,0,1,1.364,1.363v5.455a1.364,1.364,0,0,1-1.364,1.364H11.363A1.364,1.364,0,0,1,10,16.818m2.727-1.363h8.182V12.728H12.727Z" fill="#fff"/></g></g></g></svg>