<svg xmlns="http://www.w3.org/2000/svg" xmlns:xlink="http://www.w3.org/1999/xlink" width="50" height="50" viewBox="0 0 50 50"><defs><clipPath id="a"><rect width="30" height="30" transform="translate(10 10)" fill="none"/></clipPath></defs><g transform="translate(-297 -393)"><path d="M25,0A25,25,0,1,1,0,25,25,25,0,0,1,25,0" transform="translate(297 393)" fill="#169e6a"/><g transform="translate(297 393)" clip-path="url(#a)"><path d="M25,27.5a8.75,8.75,0,1,1,8.75-8.75A8.76,8.76,0,0,1,25,27.5m0-15a6.25,6.25,0,1,0,6.25,6.25A6.257,6.257,0,0,0,25,12.5" fill="#fff"/><path d="M38.75,40a1.25,1.25,0,0,1-1.25-1.25c0-7.045-3.738-11.25-10-11.25h-5c-6.262,0-10,4.2-10,11.25a1.25,1.25,0,0,1-2.5,0C10,30.4,14.907,25,22.5,25h5C35.093,25,40,30.4,40,38.75A1.25,1.25,0,0,1,38.75,40" fill="#fff"/></g></g></svg>