<svg xmlns="http://www.w3.org/2000/svg" xmlns:xlink="http://www.w3.org/1999/xlink" width="50" height="50" viewBox="0 0 50 50"><defs><clipPath id="a"><rect width="30" height="30" transform="translate(10 10)" fill="none"/></clipPath></defs><g transform="translate(-218 -388)"><path d="M25,0A25,25,0,1,1,0,25,25,25,0,0,1,25,0" transform="translate(218 388)" fill="#169e6a"/><g transform="translate(218 388)" clip-path="url(#a)"><path d="M29.688,40H20.313c-1.552,0-2.814-1.682-2.814-3.75V13.75c0-2.068,1.262-3.75,2.814-3.75h9.375c1.55,0,2.812,1.682,2.812,3.75v22.5c0,2.068-1.262,3.75-2.812,3.75M20.313,12.5c-.518,0-.938.561-.938,1.25v22.5c0,.689.42,1.25.938,1.25h9.375c.517,0,.937-.561.937-1.25V13.75c0-.689-.42-1.25-.937-1.25Z" fill="#fff"/><path d="M37.188,14.791H31.521c.03.7.24,1.4.333,2.1h5.334a1,1,0,0,1,.936,1.05V36.849a1,1,0,0,1-.936,1.05H30.7c-.422.744-.956,1.426-1.343,2.1h7.826A3,3,0,0,0,40,36.849V17.942a3,3,0,0,0-2.812-3.151" fill="#fff"/><path d="M12.813,14.791h5.666c-.031.7-.241,1.4-.333,2.1H12.813a1,1,0,0,0-.938,1.05V36.849a1,1,0,0,0,.938,1.05h6.481c.422.744.956,1.426,1.343,2.1H12.813A3,3,0,0,1,10,36.849V17.942a3,3,0,0,1,2.814-3.151" fill="#fff"/><rect width="2.7" height="2.7" transform="translate(21.25 14.65)" fill="#fff"/><rect width="2.7" height="2.7" transform="translate(26.05 14.65)" fill="#fff"/><rect width="2.7" height="2.7" transform="translate(21.25 19.15)" fill="#fff"/><rect width="2.7" height="2.7" transform="translate(26.05 19.15)" fill="#fff"/><rect width="2.7" height="2.7" transform="translate(21.25 23.8)" fill="#fff"/><rect width="2.7" height="2.7" transform="translate(26.05 23.8)" fill="#fff"/><rect width="2.7" height="2.7" transform="translate(21.25 28.3)" fill="#fff"/><rect width="2.7" height="2.7" transform="translate(26.05 28.3)" fill="#fff"/><rect width="2.7" height="2.7" transform="translate(34.15 18.325)" fill="#fff"/><rect width="2.7" height="2.7" transform="translate(34.15 22.825)" fill="#fff"/><rect width="2.7" height="2.7" transform="translate(34.15 27.475)" fill="#fff"/><rect width="2.7" height="2.7" transform="translate(13.15 18.325)" fill="#fff"/><rect width="2.7" height="2.7" transform="translate(13.15 22.825)" fill="#fff"/><rect width="2.7" height="2.7" transform="translate(13.15 27.475)" fill="#fff"/></g></g></svg>