<svg xmlns="http://www.w3.org/2000/svg" xmlns:xlink="http://www.w3.org/1999/xlink" width="50" height="50" viewBox="0 0 50 50"><defs><clipPath id="a"><rect width="30" height="30" transform="translate(10 10)" fill="none"/></clipPath></defs><g transform="translate(-367 -387)"><path d="M25,0A25,25,0,1,1,0,25,25,25,0,0,1,25,0" transform="translate(367 387)" fill="#169e6a"/><g transform="translate(367 387)" clip-path="url(#a)"><path d="M21.25,40A1.25,1.25,0,0,1,20,38.75V32.5H13.75a1.25,1.25,0,0,1,0-2.5h7.5a1.25,1.25,0,0,1,1.25,1.25v7.5A1.25,1.25,0,0,1,21.25,40" fill="#fff"/><path d="M36.25,40h-15a1.254,1.254,0,0,1-.884-.366l-7.5-7.5a1.252,1.252,0,0,1-.366-.884v-20A1.25,1.25,0,0,1,13.75,10h22.5a1.25,1.25,0,0,1,1.25,1.25v27.5A1.25,1.25,0,0,1,36.25,40M21.768,37.5H35v-25H15V30.732Z" fill="#fff"/><path d="M31.25,35h-5a1.25,1.25,0,0,1,0-2.5h5a1.25,1.25,0,0,1,0,2.5" fill="#fff"/><path d="M26.25,22.5h-7.5a1.25,1.25,0,0,1,0-2.5h7.5a1.25,1.25,0,0,1,0,2.5" fill="#fff"/><path d="M32.134,20.366a1.25,1.25,0,1,1-1.768,0,1.251,1.251,0,0,1,1.768,0" fill="#fff"/><path d="M26.25,27.5h-7.5a1.25,1.25,0,0,1,0-2.5h7.5a1.25,1.25,0,0,1,0,2.5" fill="#fff"/><path d="M32.134,25.366a1.25,1.25,0,1,1-1.768,0,1.251,1.251,0,0,1,1.768,0" fill="#fff"/><path d="M26.25,17.5h-7.5a1.25,1.25,0,0,1,0-2.5h7.5a1.25,1.25,0,0,1,0,2.5" fill="#fff"/><path d="M32.134,15.366a1.25,1.25,0,1,1-1.768,0,1.251,1.251,0,0,1,1.768,0" fill="#fff"/></g></g></svg>