<svg xmlns="http://www.w3.org/2000/svg" width="21.845" height="27.298" viewBox="0 0 21.845 27.298"><path d="M555.047,3518.77l-14.637.019a.512.512,0,0,0-.057.011l-.067.013a.543.543,0,0,0-.209.1s-.015,0-.018.01l-5.465,5.1,0,0a.539.539,0,0,0-.133.233.338.338,0,0,0-.011.062.449.449,0,0,0-.017.076l-.021,20.46a1.206,1.206,0,0,0,1.206,1.2h19.433a1.206,1.206,0,0,0,1.206-1.2v-24.89A1.207,1.207,0,0,0,555.047,3518.77Zm0,1.034a.172.172,0,0,1,.172.17v18.063H535.451l.012-13.113h2.96l2.427,9.575h2.562l1.422-5.534c.062-.244.155-.645.279-1.232s.186-1.021.216-1.268a10.333,10.333,0,0,0,.216,1.237c.122.619.216,1.049.279,1.236l1.42,5.562h2.563l2.691-10.6h-2.193l-1.358,5.779c-.063.337-.158.771-.28,1.358s-.184,1.05-.246,1.421c-.062-.371-.153-.865-.248-1.392s-.188-.925-.249-1.2l-1.543-5.933h-2.132l-1.549,5.933c-.058.308-.183.768-.274,1.328s-.155.989-.186,1.267c-.121-.8-.279-1.7-.526-2.779l-1.187-5.047a1.115,1.115,0,0,0,.4-.847v-3.961Zm-17.706,19.75h1.012l.634,3.631.553-3.631h1.018l.555,3.631.632-3.631h1.012l-1.023,4.891h-1.153l-.532-3.425-.533,3.425h-1.152Zm5.708,3.109a1.767,1.767,0,1,1,1.763,1.919A1.718,1.718,0,0,1,543.049,3542.664Zm3.989,1.782v-3.568h.831l.016.652a1.174,1.174,0,0,1,1.245-.782h.329v1.029h-.369a1.039,1.039,0,0,0-1.142,1.074v1.595Zm2.708-1.788c0-1.074.481-1.91,1.459-1.91a1.042,1.042,0,0,1,1.039.564v-1.757h.91v4.891h-.819l-.017-.5a1.084,1.084,0,0,1-1.052.632C550.135,3544.583,549.746,3543.6,549.746,3542.658Zm-9.853-22.16v3.289a.1.1,0,0,1-.1.1H536.26Z" transform="translate(-534.408 -3518.77)" fill="#333"/><path d="M549.362,3538.64c0-.552-.177-1.091-.757-1.091s-.752.552-.752,1.091.169,1.1.752,1.1S549.362,3539.18,549.362,3538.64Z" transform="translate(-531.536 -3514.758)" fill="#333"/><path d="M543.934,3538.661c0-.65-.283-1.154-.809-1.154-.473,0-.814.418-.814,1.174,0,.57.25,1.128.814,1.128C543.651,3539.81,543.934,3539.314,543.934,3538.661Z" transform="translate(-532.72 -3514.767)" fill="#333"/></svg>