<svg xmlns="http://www.w3.org/2000/svg" width="21.933" height="27.409" viewBox="0 0 21.933 27.409"><g transform="translate(-534.408 -3428.67)"><path d="M555.13,3428.67l-14.7.021c-.022,0-.038.009-.056.01s-.044.008-.068.014a.542.542,0,0,0-.208.1c-.006,0-.016,0-.021.012l-5.487,5.118,0,.006a.526.526,0,0,0-.134.232.28.28,0,0,0-.011.063.439.439,0,0,0-.017.079l-.021,20.543a1.21,1.21,0,0,0,1.21,1.208h19.513a1.209,1.209,0,0,0,1.21-1.208v-24.993A1.211,1.211,0,0,0,555.13,3428.67Zm0,1.038a.173.173,0,0,1,.172.171v18.135H535.455l.011-13.166h4.345a1.144,1.144,0,0,0,1.142-1.141v-3.979Zm-16.577,24.742v-4.909h2.457a1.617,1.617,0,0,1,1.752,1.645,1.576,1.576,0,0,1-1.752,1.6H539.63v1.662Zm5.177,0v-4.909h1.775a2.207,2.207,0,0,1,2.433,2.5,2.151,2.151,0,0,1-2.433,2.412Zm8.322-2.81v.886h-2.081v1.924H548.9v-4.909h3.489v.917h-2.414v1.183Zm-12.14-21.235v3.3a.1.1,0,0,1-.1.1h-3.545Z" transform="translate(0 0)" fill="#333"/><path d="M537.9,3444.11a.529.529,0,0,0,.2.587l.341.173a1.031,1.031,0,0,0,.461.11c.852,0,1.842-1.062,3.2-3.442a32.408,32.408,0,0,1,4.936-1.171,8.513,8.513,0,0,0,3.6,1.141,1.771,1.771,0,0,0,.423-.043.724.724,0,0,0,.42-.288,1.522,1.522,0,0,0,.168-1.027.671.671,0,0,0-.2-.349,2.819,2.819,0,0,0-1.817-.431,15.388,15.388,0,0,0-2.185.162,5.541,5.541,0,0,1-1.014-.7,7.419,7.419,0,0,1-1.83-2.84c.028-.1.05-.195.072-.288a18.406,18.406,0,0,0,.319-3.327.967.967,0,0,0-.055-.237l-.038-.1a.793.793,0,0,0-.719-.552l-.217-.006h0a.815.815,0,0,0-.831.519,9.671,9.671,0,0,0,.506,4.338l-.127.309c-.355.869-.8,1.739-1.193,2.509l-.05.1c-.413.809-.788,1.5-1.13,2.077l-.352.186c-.027.011-.626.333-.768.417A4.278,4.278,0,0,0,537.9,3444.11Zm11.736-3.973a3.473,3.473,0,0,1,1.138.124c.49.125.5.378.412.432a1.3,1.3,0,0,1-.479.08,5.621,5.621,0,0,1-1.983-.6C549.06,3440.15,549.366,3440.136,549.637,3440.136Zm-5.528-8.209c.274,0,.429.688.442,1.337a2.746,2.746,0,0,1-.325,1.438,6.9,6.9,0,0,1-.232-1.8S543.984,3431.927,544.109,3431.927Zm-1.016,7.759a20.053,20.053,0,0,0,1.041-2.269,7.5,7.5,0,0,0,1.716,2.129c.085.07.175.144.269.215a21.542,21.542,0,0,0-3.618,1.008C542.693,3440.427,542.889,3440.064,543.093,3439.686Zm-2.365,2.338a6.043,6.043,0,0,1-2.007,2.311,5.916,5.916,0,0,1,1.682-2.011C540.458,3442.277,540.6,3442.144,540.728,3442.024Z" transform="translate(0.76 0.615)" fill="#333"/><path d="M543.727,3446.55h-.784v3.077h.784c.825,0,1.237-.641,1.237-1.557C544.963,3447.3,544.642,3446.55,543.727,3446.55Z" transform="translate(1.865 3.907)" fill="#333"/><path d="M540.72,3447.259a.7.7,0,0,0-.765-.73h-1.261v1.465h1.261A.7.7,0,0,0,540.72,3447.259Z" transform="translate(0.937 3.902)" fill="#333"/></g></svg>