<svg xmlns="http://www.w3.org/2000/svg" width="21.845" height="27.299" viewBox="0 0 21.845 27.299"><path d="M555.047,3473.719l-14.637.02a.348.348,0,0,0-.056.012.612.612,0,0,0-.068.013.514.514,0,0,0-.207.1c-.006,0-.016,0-.021.011l-5.464,5.1,0,.006a.521.521,0,0,0-.135.232.271.271,0,0,0-.011.062.465.465,0,0,0-.017.077l-.021,20.462a1.205,1.205,0,0,0,1.205,1.2h19.434a1.205,1.205,0,0,0,1.206-1.2v-24.892A1.208,1.208,0,0,0,555.047,3473.719Zm0,1.034a.173.173,0,0,1,.172.171v18.063H535.451l.011-13.113h4.328a1.135,1.135,0,0,0,1.036-.679l3.07,4.789-3.517,5.466h2.405l2.465-4.01,2.467,4.01h2.567l-3.581-5.344,3.322-5.255H547.6l-2.234,3.814-2.285-3.814H540.9c0-.04.023-.074.023-.115v-3.961Zm-14.871,21.728v.836h-2.26v1.2h2.633v.875H536.9v-4.89h3.579v.874h-2.561v1.1Zm.711-.652h1.052l.78,1.049.774-1.049h1.051l-1.3,1.769,1.328,1.8h-1.057l-.8-1.08-.8,1.08h-1.051l1.328-1.8Zm5.737,2.933a.689.689,0,0,0,.767-.7h.959a1.6,1.6,0,0,1-1.716,1.47,1.729,1.729,0,0,1-1.808-1.9,1.782,1.782,0,0,1,1.822-1.936,1.543,1.543,0,0,1,1.66,1.4h-.937a.685.685,0,0,0-.74-.639c-.742,0-.856.7-.856,1.137C545.775,3498.08,545.934,3498.762,546.624,3498.762Zm3.85.025a.715.715,0,0,0,.751-.458h.925a1.342,1.342,0,0,1-.3.6,1.873,1.873,0,1,1-1.426-3.232,1.661,1.661,0,0,1,1.416.733,2.627,2.627,0,0,1,.377,1.4h-2.6C549.643,3498.421,549.919,3498.788,550.474,3498.788Zm2.344.608v-4.89h.926v4.89Zm-12.925-23.947v3.288a.1.1,0,0,1-.1.1h-3.53Z" transform="translate(-534.408 -3473.719)" fill="#333"/><path d="M547.766,3492.442a.859.859,0,0,0-.816.753h1.661C548.4,3492.442,547.882,3492.442,547.766,3492.442Z" transform="translate(-531.729 -3469.719)" fill="#333"/></svg>