<svg xmlns="http://www.w3.org/2000/svg" width="30" height="26" viewBox="0 0 30 26"><g transform="translate(-118 -277)"><g transform="translate(118 280)" fill="none" stroke="#05281a" stroke-width="0.6"><rect width="30" height="23" rx="1" stroke="none"/><rect x="0.3" y="0.3" width="29.4" height="22.4" rx="0.7" fill="none"/></g><g transform="translate(123 277)" fill="#fff" stroke="#05281a" stroke-width="0.6"><rect width="3.2" height="6" rx="1.6" stroke="none"/><rect x="0.3" y="0.3" width="2.6" height="5.4" rx="1.3" fill="none"/></g><g transform="translate(140 277)" fill="#fff" stroke="#05281a" stroke-width="0.6"><rect width="3.2" height="6" rx="1.6" stroke="none"/><rect x="0.3" y="0.3" width="2.6" height="5.4" rx="1.3" fill="none"/></g><line x2="29" transform="translate(118.5 285.5)" fill="none" stroke="#05281a" stroke-width="0.6"/><g transform="translate(-1)"><g transform="translate(120 287)" fill="none" stroke="#05281a" stroke-width="0.6"><rect width="4" height="4" stroke="none"/><rect x="0.3" y="0.3" width="3.4" height="3.4" fill="none"/></g><g transform="translate(126 287)" fill="none" stroke="#05281a" stroke-width="0.6"><rect width="4" height="4" stroke="none"/><rect x="0.3" y="0.3" width="3.4" height="3.4" fill="none"/></g><g transform="translate(132 287)" fill="none" stroke="#05281a" stroke-width="0.6"><rect width="4" height="4" stroke="none"/><rect x="0.3" y="0.3" width="3.4" height="3.4" fill="none"/></g><g transform="translate(138 287)" fill="none" stroke="#05281a" stroke-width="0.6"><rect width="4" height="4" stroke="none"/><rect x="0.3" y="0.3" width="3.4" height="3.4" fill="none"/></g><g transform="translate(144 287)" fill="none" stroke="#05281a" stroke-width="0.6"><rect width="4" height="4" stroke="none"/><rect x="0.3" y="0.3" width="3.4" height="3.4" fill="none"/></g></g><g transform="translate(-1 5)"><g transform="translate(120 287)" fill="none" stroke="#05281a" stroke-width="0.6"><rect width="4" height="4" stroke="none"/><rect x="0.3" y="0.3" width="3.4" height="3.4" fill="none"/></g><g transform="translate(126 287)" fill="none" stroke="#05281a" stroke-width="0.6"><rect width="4" height="4" stroke="none"/><rect x="0.3" y="0.3" width="3.4" height="3.4" fill="none"/></g><g transform="translate(132 287)" fill="none" stroke="#05281a" stroke-width="0.6"><rect width="4" height="4" stroke="none"/><rect x="0.3" y="0.3" width="3.4" height="3.4" fill="none"/></g><g transform="translate(138 287)" fill="none" stroke="#05281a" stroke-width="0.6"><rect width="4" height="4" stroke="none"/><rect x="0.3" y="0.3" width="3.4" height="3.4" fill="none"/></g><g transform="translate(144 287)" fill="none" stroke="#05281a" stroke-width="0.6"><rect width="4" height="4" stroke="none"/><rect x="0.3" y="0.3" width="3.4" height="3.4" fill="none"/></g></g><g transform="translate(-1 10)"><g transform="translate(120 287)" fill="none" stroke="#05281a" stroke-width="0.6"><rect width="4" height="4" stroke="none"/><rect x="0.3" y="0.3" width="3.4" height="3.4" fill="none"/></g><g transform="translate(126 287)" fill="none" stroke="#05281a" stroke-width="0.6"><rect width="4" height="4" stroke="none"/><rect x="0.3" y="0.3" width="3.4" height="3.4" fill="none"/></g><g transform="translate(132 287)" fill="none" stroke="#05281a" stroke-width="0.6"><rect width="4" height="4" stroke="none"/><rect x="0.3" y="0.3" width="3.4" height="3.4" fill="none"/></g><g transform="translate(138 287)" fill="none" stroke="#05281a" stroke-width="0.6"><rect width="4" height="4" stroke="none"/><rect x="0.3" y="0.3" width="3.4" height="3.4" fill="none"/></g><g transform="translate(144 287)" fill="none" stroke="#05281a" stroke-width="0.6"><rect width="4" height="4" stroke="none"/><rect x="0.3" y="0.3" width="3.4" height="3.4" fill="none"/></g></g></g></svg>