<svg xmlns="http://www.w3.org/2000/svg" width="80" height="80" viewBox="0 0 80 80"><path d="M0,0H80V80H0Z" fill="none"/><path d="M51,25A10,10,0,1,0,41,15,9.958,9.958,0,0,0,51,25ZM24.333,25a10,10,0,1,0-10-10A9.958,9.958,0,0,0,24.333,25Zm0,6.667C16.567,31.667,1,35.567,1,43.333v8.333H47.667V43.333C47.667,35.567,32.1,31.667,24.333,31.667Zm26.667,0c-.967,0-2.067.067-3.233.167,3.867,2.8,6.567,6.567,6.567,11.5v8.333h20V43.333C74.333,35.567,58.767,31.667,51,31.667Z" transform="translate(2.333 11.667)" fill="#05281a"/></svg>