<svg xmlns="http://www.w3.org/2000/svg" xmlns:xlink="http://www.w3.org/1999/xlink" width="14" height="14" viewBox="0 0 14 14"><defs><clipPath id="a"><rect width="14" height="14" transform="translate(40 252)" fill="#fff"/></clipPath></defs><g transform="translate(-40 -252)" clip-path="url(#a)"><g transform="translate(40.778 252)"><rect width="5.315" height="0.508" transform="translate(2.048 9.173)" fill="#7b7b7b"/><rect width="5.315" height="0.507" transform="translate(2.048 7.115)" fill="#7b7b7b"/><rect width="5.315" height="0.508" transform="translate(2.048 5.055)" fill="#7b7b7b"/><rect width="2.504" height="0.508" transform="translate(4.859 2.996)" fill="#7b7b7b"/><path d="M50.3,10.833V1.083A1.042,1.042,0,0,0,50.286.9,1.085,1.085,0,0,0,49.217,0h-4.4a1.188,1.188,0,0,0-.841.349L41.239,3.089a1.2,1.2,0,0,0-.349.843v6.9a1.086,1.086,0,0,0,1.085,1.083h7.242A1.086,1.086,0,0,0,50.3,10.833ZM44.438.753V3.188c0,.264-.1.366-.365.366H41.637ZM41.5,10.833V4.1h2.9a.587.587,0,0,0,.519-.32.556.556,0,0,0,.063-.26V.609h4.237A.473.473,0,0,1,49.654.9a.455.455,0,0,1,.038.185v9.75a.475.475,0,0,1-.474.474H41.975A.477.477,0,0,1,41.5,10.833Z" transform="translate(-40.89)" fill="#7b7b7b"/><path d="M135.275,76.205h-.731l.038.609h.693a.474.474,0,0,1,.474.474v9.75a.475.475,0,0,1-.474.474h-7.244a.476.476,0,0,1-.437-.289.487.487,0,0,1-.038-.185v-.424h-.609v.424a1.039,1.039,0,0,0,.016.185,1.086,1.086,0,0,0,1.067.9h7.244a1.085,1.085,0,0,0,1.083-1.083v-9.75A1.084,1.084,0,0,0,135.275,76.205Z" transform="translate(-124.595 -74.121)" fill="#7b7b7b"/></g></g></svg>