<svg xmlns="http://www.w3.org/2000/svg" xmlns:xlink="http://www.w3.org/1999/xlink" width="18" height="18" viewBox="0 0 18 18"><defs><clipPath id="a"><rect width="18" height="18" transform="translate(40 252)" fill="#fff"/></clipPath></defs><g transform="translate(-40 -252)" clip-path="url(#a)"><g transform="translate(41 252)"><rect width="6.834" height="0.653" transform="translate(2.633 11.794)" fill="#7b7b7b"/><rect width="6.834" height="0.651" transform="translate(2.633 9.148)" fill="#7b7b7b"/><rect width="6.834" height="0.653" transform="translate(2.633 6.499)" fill="#7b7b7b"/><rect width="3.22" height="0.653" transform="translate(6.247 3.852)" fill="#7b7b7b"/><path d="M52.992,13.928V1.393a1.339,1.339,0,0,0-.021-.238A1.4,1.4,0,0,0,51.6,0H45.945a1.528,1.528,0,0,0-1.081.448L41.338,3.972a1.537,1.537,0,0,0-.448,1.083v8.873a1.4,1.4,0,0,0,1.4,1.392H51.6A1.4,1.4,0,0,0,52.992,13.928ZM45.451.968V4.1c0,.34-.132.471-.469.471H41.851ZM41.673,13.928V5.266H45.4a.755.755,0,0,0,.667-.411.715.715,0,0,0,.081-.335V.783H51.6a.608.608,0,0,1,.561.372.584.584,0,0,1,.048.238V13.928a.611.611,0,0,1-.609.61H42.285A.613.613,0,0,1,41.673,13.928Z" transform="translate(-40.89)" fill="#7b7b7b"/><path d="M137.655,76.205h-.94l.048.783h.891a.609.609,0,0,1,.61.61V90.133a.611.611,0,0,1-.61.61h-9.314a.612.612,0,0,1-.561-.372.626.626,0,0,1-.048-.238v-.545h-.783v.545a1.338,1.338,0,0,0,.021.238,1.4,1.4,0,0,0,1.372,1.155h9.314a1.394,1.394,0,0,0,1.393-1.392V77.6A1.393,1.393,0,0,0,137.655,76.205Z" transform="translate(-123.923 -73.526)" fill="#7b7b7b"/></g></g></svg>