<svg xmlns="http://www.w3.org/2000/svg" width="94" height="52" viewBox="0 0 94 52"><rect width="94" height="52" rx="2" fill="rgba(255,255,255,0.9)"/><path d="M1.059-19.059a1.5,1.5,0,0,0-2.123,0l-7.5,7.5a1.5,1.5,0,0,0,0,2.123,1.5,1.5,0,0,0,2.123,0L-1.5-14.381V0A1.5,1.5,0,0,0,0,1.5,1.5,1.5,0,0,0,1.5,0V-14.381L6.441-9.441a1.5,1.5,0,0,0,2.123,0,1.5,1.5,0,0,0,0-2.123l-7.5-7.5Z" transform="translate(47.003 25)" fill="#283593"/><path d="M-33.037-2.611a1.052,1.052,0,0,0-.41-.892,5.38,5.38,0,0,0-1.477-.656,10.467,10.467,0,0,1-1.688-.68,2.759,2.759,0,0,1-1.7-2.468,2.4,2.4,0,0,1,.455-1.439,2.965,2.965,0,0,1,1.306-.988,4.914,4.914,0,0,1,1.911-.355,4.473,4.473,0,0,1,1.9.386,3.026,3.026,0,0,1,1.3,1.09,2.853,2.853,0,0,1,.461,1.6H-33.03a1.342,1.342,0,0,0-.431-1.063,1.77,1.77,0,0,0-1.21-.379,1.891,1.891,0,0,0-1.169.318,1,1,0,0,0-.417.837.96.96,0,0,0,.489.813,5.522,5.522,0,0,0,1.439.615,6.217,6.217,0,0,1,2.55,1.306,2.6,2.6,0,0,1,.8,1.941A2.4,2.4,0,0,1-31.957-.6a4.279,4.279,0,0,1-2.632.735,5.082,5.082,0,0,1-2.092-.42A3.31,3.31,0,0,1-38.12-1.436a2.95,2.95,0,0,1-.5-1.7h2.058q0,1.647,1.969,1.647a1.915,1.915,0,0,0,1.142-.3A.967.967,0,0,0-33.037-2.611Zm6.394,1.155a1.3,1.3,0,0,0,.889-.3,1.054,1.054,0,0,0,.355-.8h1.853a2.534,2.534,0,0,1-.41,1.377,2.706,2.706,0,0,1-1.1.971,3.455,3.455,0,0,1-1.548.345,3.211,3.211,0,0,1-2.5-1.008,3.99,3.99,0,0,1-.916-2.786v-.13a3.944,3.944,0,0,1,.909-2.728,3.174,3.174,0,0,1,2.5-1.019,3.111,3.111,0,0,1,2.225.79,2.8,2.8,0,0,1,.851,2.1H-25.4a1.358,1.358,0,0,0-.355-.938,1.185,1.185,0,0,0-.9-.361,1.19,1.19,0,0,0-1.042.5A2.916,2.916,0,0,0-28.052-3.8V-3.6A2.953,2.953,0,0,0-27.7-1.956,1.2,1.2,0,0,0-26.643-1.456Zm8.383-4.088a5.367,5.367,0,0,0-.711-.055,1.447,1.447,0,0,0-1.47.759V0h-1.976V-7.4h1.866l.055.882a1.831,1.831,0,0,1,1.647-1.019,2.07,2.07,0,0,1,.615.089Zm.4,1.777a4.387,4.387,0,0,1,.424-1.962,3.1,3.1,0,0,1,1.22-1.333,3.56,3.56,0,0,1,1.849-.472,3.368,3.368,0,0,1,2.444.916,3.676,3.676,0,0,1,1.056,2.488l.014.506a3.866,3.866,0,0,1-.95,2.731A3.3,3.3,0,0,1-14.355.137,3.319,3.319,0,0,1-16.908-.889a3.934,3.934,0,0,1-.954-2.789Zm1.976.14a2.765,2.765,0,0,0,.4,1.612,1.308,1.308,0,0,0,1.135.558,1.311,1.311,0,0,0,1.121-.551,3.025,3.025,0,0,0,.4-1.763,2.737,2.737,0,0,0-.4-1.6,1.311,1.311,0,0,0-1.135-.568,1.29,1.29,0,0,0-1.121.565A3.076,3.076,0,0,0-15.886-3.626ZM-7.551,0H-9.533V-10.5h1.982Zm3.714,0H-5.819V-10.5h1.982ZM3.646-9.215V-7.4H4.91v1.449H3.646v3.691a.881.881,0,0,0,.157.588.79.79,0,0,0,.6.178,3.151,3.151,0,0,0,.581-.048v1.5a4.067,4.067,0,0,1-1.2.178,1.886,1.886,0,0,1-2.119-2.1V-5.947H.59V-7.4H1.67V-9.215ZM5.5-3.767a4.387,4.387,0,0,1,.424-1.962,3.1,3.1,0,0,1,1.22-1.333,3.56,3.56,0,0,1,1.849-.472,3.368,3.368,0,0,1,2.444.916,3.676,3.676,0,0,1,1.056,2.488l.014.506a3.866,3.866,0,0,1-.95,2.731A3.3,3.3,0,0,1,9.007.137,3.319,3.319,0,0,1,6.454-.889,3.934,3.934,0,0,1,5.5-3.678Zm1.976.14a2.765,2.765,0,0,0,.4,1.612,1.308,1.308,0,0,0,1.135.558,1.311,1.311,0,0,0,1.121-.551,3.025,3.025,0,0,0,.4-1.763,2.737,2.737,0,0,0-.4-1.6A1.311,1.311,0,0,0,8.993-5.94a1.29,1.29,0,0,0-1.121.565A3.076,3.076,0,0,0,7.476-3.626Zm16.95-4.666H21.378V0H19.327V-8.292H16.319V-9.953h8.107Zm-.688,4.525a4.387,4.387,0,0,1,.424-1.962,3.1,3.1,0,0,1,1.22-1.333,3.56,3.56,0,0,1,1.849-.472,3.368,3.368,0,0,1,2.444.916,3.676,3.676,0,0,1,1.056,2.488l.014.506a3.866,3.866,0,0,1-.95,2.731A3.3,3.3,0,0,1,27.245.137,3.319,3.319,0,0,1,24.692-.889a3.934,3.934,0,0,1-.954-2.789Zm1.976.14a2.765,2.765,0,0,0,.4,1.612,1.308,1.308,0,0,0,1.135.558,1.311,1.311,0,0,0,1.121-.551,3.025,3.025,0,0,0,.4-1.763,2.737,2.737,0,0,0-.4-1.6,1.311,1.311,0,0,0-1.135-.568,1.29,1.29,0,0,0-1.121.565A3.076,3.076,0,0,0,25.714-3.626Zm12.908,0a4.436,4.436,0,0,1-.776,2.738,2.488,2.488,0,0,1-2.1,1.029,2.3,2.3,0,0,1-1.812-.779V2.844H31.964V-7.4H33.8l.068.725a2.322,2.322,0,0,1,1.873-.861,2.5,2.5,0,0,1,2.126,1.012,4.556,4.556,0,0,1,.759,2.789Zm-1.976-.144a2.911,2.911,0,0,0-.366-1.593,1.191,1.191,0,0,0-1.063-.561,1.294,1.294,0,0,0-1.278.711v3.028a1.316,1.316,0,0,0,1.292.731Q36.646-1.456,36.646-3.773Z" transform="translate(46.615 45)" fill="#283593"/></svg>