<svg xmlns="http://www.w3.org/2000/svg" xmlns:xlink="http://www.w3.org/1999/xlink" width="50" height="50" viewBox="0 0 50 50"><defs><clipPath id="a"><rect width="30" height="30" transform="translate(10 10)" fill="none"/></clipPath></defs><g transform="translate(-507 -387)"><path d="M25,0A25,25,0,1,1,0,25,25,25,0,0,1,25,0" transform="translate(507 387)" fill="#d5d5d5"/><g transform="translate(507 387)"><g clip-path="url(#a)"><path d="M25,21.25a5,5,0,1,1,5-5,5.006,5.006,0,0,1-5,5m0-7.5a2.5,2.5,0,1,0,2.5,2.5,2.5,2.5,0,0,0-2.5-2.5" fill="#fff"/><path d="M16.25,31.25a5,5,0,1,1,5-5,5.006,5.006,0,0,1-5,5m0-7.5a2.5,2.5,0,1,0,2.5,2.5,2.5,2.5,0,0,0-2.5-2.5" fill="#fff"/><path d="M33.75,31.25a5,5,0,1,1,5-5,5.006,5.006,0,0,1-5,5m0-7.5a2.5,2.5,0,1,0,2.5,2.5,2.5,2.5,0,0,0-2.5-2.5" fill="#fff"/><path d="M30,27.5a1.25,1.25,0,0,1-1.25-1.25c0-3.131-1.4-5-3.75-5s-3.75,1.869-3.75,5a1.25,1.25,0,0,1-2.5,0,8.254,8.254,0,0,1,1.769-5.5,6.016,6.016,0,0,1,8.962,0,8.254,8.254,0,0,1,1.769,5.5A1.25,1.25,0,0,1,30,27.5" fill="#fff"/><path d="M21.25,38.75A1.25,1.25,0,0,1,20,37.5V36.25c0-3.131-1.4-5-3.75-5s-3.75,1.869-3.75,5V37.5a1.25,1.25,0,0,1-2.5,0V36.25a8.254,8.254,0,0,1,1.769-5.5,5.825,5.825,0,0,1,4.481-2,5.827,5.827,0,0,1,4.481,2,8.254,8.254,0,0,1,1.769,5.5V37.5a1.25,1.25,0,0,1-1.25,1.25" fill="#fff"/><path d="M38.75,38.75A1.25,1.25,0,0,1,37.5,37.5V36.25c0-3.131-1.4-5-3.75-5S30,33.119,30,36.25V37.5a1.25,1.25,0,0,1-2.5,0V36.25a8.254,8.254,0,0,1,1.769-5.5,6.016,6.016,0,0,1,8.962,0A8.254,8.254,0,0,1,40,36.25V37.5a1.25,1.25,0,0,1-1.25,1.25" fill="#fff"/></g></g></g></svg>