<svg xmlns="http://www.w3.org/2000/svg" xmlns:xlink="http://www.w3.org/1999/xlink" width="728" height="225.588" viewBox="0 0 728 225.588"><defs><clipPath id="a"><path d="M0,0H728V168H0Z" transform="translate(20 1712)" fill="#fff"/></clipPath></defs><g transform="translate(-2151 -1640)"><g transform="translate(364 167)"><g transform="translate(1637 -658)"><path d="M-81.352-33.5v.049a73.61,73.61,0,0,1-.928,7.483,37.825,37.825,0,0,1-4.382,12.39A27,27,0,0,1-97.7-3.052q-7.581,4.2-20.056,5.518L-119.706-4a46.983,46.983,0,0,0,17.139-4.675q6.885-3.625,9.766-8.984t3.662-13.928L-120-31.641v-6.3l36.206.049A6.212,6.212,0,0,0-81.352-33.5ZM-71.2-38.574a4.934,4.934,0,0,1-1.562,3.748,5.5,5.5,0,0,1-3.931,1.477,5.5,5.5,0,0,1-3.931-1.477,4.934,4.934,0,0,1-1.562-3.748,4.934,4.934,0,0,1,1.563-3.748A5.5,5.5,0,0,1-76.688-43.8a5.5,5.5,0,0,1,3.931,1.477A4.934,4.934,0,0,1-71.2-38.574Zm-2.393,0a3.012,3.012,0,0,0-.891-2.2,2.98,2.98,0,0,0-2.209-.9,2.98,2.98,0,0,0-2.209.9,3.012,3.012,0,0,0-.891,2.2,3.012,3.012,0,0,0,.891,2.2,2.979,2.979,0,0,0,2.209.9,2.98,2.98,0,0,0,2.209-.9A3.012,3.012,0,0,0-73.588-38.574Zm47.293,17.383q-5.151,8.2-15.125,14.612a68.583,68.583,0,0,1-21.79,9.143L-67.042-.342v-38.6h7.52v33.2a60.811,60.811,0,0,0,14.648-7.141A47.574,47.574,0,0,0-32.057-25.1Zm48.8-9.595a52.2,52.2,0,0,1-15.356,18.8l-5-4.614a43.3,43.3,0,0,0,9.961-10.5L-6.007-24.487v14.7A5.116,5.116,0,0,0-4.872-6.152q1.135,1.2,4.529,1.2H21.093V1.66H-1.393q-6.348,0-9.155-2.8t-2.808-8.508V-23.437l-8.887,1.294-.952-6.445L-13.16-29.98V-41.187h7.349v10.205l24.8-3.418Zm2.1-5.859-3.516,1.294q-1.709-4.272-3.345-7.5l3.345-1.245Q23.095-40.259,24.608-36.646Zm-7.3.9L13.744-34.4q-1.953-4.858-3.345-7.5l3.442-1.343A80.674,80.674,0,0,1,17.309-35.742Zm37.354,6.836-4.468,6.055q-3.613-2.319-6.409-3.906T31.151-33.3l3.857-5.591A159.2,159.2,0,0,1,54.662-28.906Zm19.8,5.957A44.523,44.523,0,0,1,58.275-5.493Q48.29.513,33.007,2l-1.66-6.836A65.985,65.985,0,0,0,45.263-7.373a36.76,36.76,0,0,0,9.753-4.675,49.216,49.216,0,0,0,7.129-5.884A47.576,47.576,0,0,0,68.6-26.855Zm44.048,7.007L113.9-10.156A91.016,91.016,0,0,0,92.338-21.045v23.8h-7.69V-41.284h7.764v13.037A124.791,124.791,0,0,1,118.51-15.942Z" transform="translate(731 2274)" fill="#cb4153"/><path d="M-114.912.094l1.063-3.641a10.066,10.066,0,0,0,4.3,1.063,5.537,5.537,0,0,0,3.594-1.078,3.7,3.7,0,0,0,1.328-3.047,3.874,3.874,0,0,0-1.891-3.5,9.847,9.847,0,0,0-5.25-1.187,25.012,25.012,0,0,0-4.422.422v8.609A3.329,3.329,0,0,1-117.7.625a6.461,6.461,0,0,1-3.773,1.047,7.906,7.906,0,0,1-5.234-1.8,5.762,5.762,0,0,1-2.156-4.641,7.162,7.162,0,0,1,2.18-5.07,15.248,15.248,0,0,1,5.945-3.633v-3.937H-128.1v-3.672h7.359v-4.969h4.547v4.969h7.609v3.672h-7.609v2.781a27.647,27.647,0,0,1,4.359-.344,15.37,15.37,0,0,1,8.523,2.133,6.844,6.844,0,0,1,3.273,6.086A7.757,7.757,0,0,1-102.5-.7a9.42,9.42,0,0,1-6.57,2.227A11.794,11.794,0,0,1-114.912.094Zm-5.828-9.578q-4.031,1.938-4.031,4.594a2.315,2.315,0,0,0,.93,1.875,3.367,3.367,0,0,0,2.18.75.8.8,0,0,0,.922-.891ZM-98.787-17.8l-3.359,2.625a47.292,47.292,0,0,0-4.039-4.164,44,44,0,0,0-4.414-3.8l2.734-2.75a30.16,30.16,0,0,1,4.68,3.57A41.841,41.841,0,0,1-98.787-17.8Zm31.046-1.531H-95.428v-6.516h27.688Zm-3.781-2.2v-1.984h-4.219v1.984Zm-12.094-1.984v1.984h4.281v-1.984Zm-3.609,1.984v-1.984h-4.453v1.984Zm3.094,20.156A21.608,21.608,0,0,1-89.264.594a47.989,47.989,0,0,1-6.477,1.3l-1.25-3.328A39.836,39.836,0,0,0-88.6-3.422h-5.219V-17.953h24.125V-3.422h-5.484a50.083,50.083,0,0,0,8.719,1.766l-1.859,3.516Q-76.537.453-79.334-1.281l1.547-2.141h-8.344Zm9.922-12.437v-1.641H-89.381v1.641ZM-89.381-9.875h15.172v-1.672H-89.381Zm15.172,2.2H-89.381v1.656h15.172Zm26.952-1.281A41.95,41.95,0,0,1-49.3-4.1,18.645,18.645,0,0,1-51.71-.148a3.487,3.487,0,0,1-2.734,1.273q-3.375,0-5.8-4.164a18.685,18.685,0,0,1-2.422-9.57q0-1.766.344-5.234.328-3.484.328-5.219h4.781q-.047,1.578-.469,5.172a45.7,45.7,0,0,0-.406,5.188,15.388,15.388,0,0,0,1.211,6.313q1.211,2.719,2.055,2.719,1.219,0,3.844-7.141Zm12.891,5.781-4.7.3a29.923,29.923,0,0,0-1.687-9.75,26.47,26.47,0,0,0-4.594-8.422l3.781-1.891Q-34.366-14.922-34.366-3.172Zm15.109-7.25a19.73,19.73,0,0,1-2.891,1.25V1.766h-3.906V-7.859q-3.328,1.031-4.984,1.406l-.8-3.844a55.367,55.367,0,0,0,5.781-1.344v-5.953h-1.469A18.3,18.3,0,0,1-28.9-12.922l-3.172-1.094a28.8,28.8,0,0,0,1.141-4.969,40.779,40.779,0,0,0,.5-6.359l3.609.141q-.016,2.234-.219,4.219h.984v-5.531h3.906v5.531h1.828v2.594a37.819,37.819,0,0,0,2.344-8.484l4.094.422a18.057,18.057,0,0,1-.609,2.719h12q0,8.422-.2,13.758a60.343,60.343,0,0,1-.594,7.453A5.282,5.282,0,0,1-4.734.539a4.115,4.115,0,0,1-2.852.945h-3.844L-11.9-2.3h2.875A1.725,1.725,0,0,0-7.8-2.742,3.007,3.007,0,0,0-7.07-4.281a26.549,26.549,0,0,0,.422-3.664q.172-2.57.188-6.32v-6.266h-.328A38.022,38.022,0,0,1-9.672-7.75a25.954,25.954,0,0,1-6.008,9.422L-18.242-.734A26.027,26.027,0,0,0-12.953-9.5a36.341,36.341,0,0,0,2.445-11.031h-.8a37.129,37.129,0,0,1-2.781,9.961A29.063,29.063,0,0,1-19.257-2.3l-2.594-2.234a24.814,24.814,0,0,0,4.391-7.227,36.206,36.206,0,0,0,2.422-8.773h-.5l-1.047,2.719a23.413,23.413,0,0,1-.977,2.148q-.523,1.008-1.055,1.82l-3.047-1.766a18.491,18.491,0,0,0,1-1.984h-1.484v4.8a19.2,19.2,0,0,0,2.344-.922ZM18.617,1.7h-4.7V-16.828H2.054v-3.906H13.914v-5.156h4.7v5.156h11.75v3.906H18.617ZM32.2-2.2,28.383.266a27.065,27.065,0,0,1-4.82-7.148,30.115,30.115,0,0,1-2.633-7.648l4.453-.641a27.984,27.984,0,0,0,2.328,6.023A38.181,38.181,0,0,0,32.2-2.2ZM12.039-14.562Q9.976-5.281,4.133.125L.508-2.328A25.061,25.061,0,0,0,5.429-9.5,27.44,27.44,0,0,0,7.289-15ZM30.586-24.75a3.158,3.158,0,0,1-1,2.4,3.517,3.517,0,0,1-2.516.945,3.517,3.517,0,0,1-2.516-.945,3.158,3.158,0,0,1-1-2.4,3.158,3.158,0,0,1,1-2.4,3.517,3.517,0,0,1,2.516-.945,3.517,3.517,0,0,1,2.516.945A3.158,3.158,0,0,1,30.586-24.75Zm-1.531,0a1.928,1.928,0,0,0-.57-1.406,1.907,1.907,0,0,0-1.414-.578,1.907,1.907,0,0,0-1.414.578,1.928,1.928,0,0,0-.57,1.406,1.928,1.928,0,0,0,.57,1.406,1.907,1.907,0,0,0,1.414.578,1.907,1.907,0,0,0,1.414-.578A1.928,1.928,0,0,0,29.054-24.75ZM53.21,1.5h-4.8V-12.672a58.218,58.218,0,0,1-12.984,4.7l-1.437-4.094a47.5,47.5,0,0,0,14.344-5.8,28.689,28.689,0,0,0,9.234-8.8l4.547,1.734a34.765,34.765,0,0,1-4.469,5.609,35.681,35.681,0,0,1-4.437,3.656Zm30.734-20-2.859,3.875q-2.312-1.484-4.1-2.5T68.9-21.312l2.469-3.578A101.887,101.887,0,0,1,83.944-18.5Zm12.672,3.813A28.5,28.5,0,0,1,86.256-3.516Q79.866.328,70.084,1.281L69.022-3.094a42.23,42.23,0,0,0,8.906-1.625A23.526,23.526,0,0,0,84.17-7.711a31.5,31.5,0,0,0,4.563-3.766,30.449,30.449,0,0,0,4.133-5.711ZM128.646-10.2l-2.953,3.7a58.25,58.25,0,0,0-13.8-6.969V1.766h-4.922V-26.422h4.969v8.344A79.866,79.866,0,0,1,128.646-10.2Z" transform="translate(475 2268)" fill="#333"/></g><g transform="translate(1851.593 -298.979)"><path d="M-82.859,0H-93.836V-41.367a37.841,37.841,0,0,1-14.18,8.32v-9.961A31.744,31.744,0,0,0-98.68-48.34a20.261,20.261,0,0,0,6.914-9.16h8.906ZM-51.1-57.5q8.32,0,13.008,5.938,5.586,7.031,5.586,23.32,0,16.25-5.625,23.359Q-42.778.977-51.1.977A16.388,16.388,0,0,1-64.575-5.449q-5.117-6.426-5.117-22.91,0-16.172,5.625-23.281Q-59.419-57.5-51.1-57.5Zm0,9.1a5.483,5.483,0,0,0-3.555,1.27,8.523,8.523,0,0,0-2.422,4.551q-1.133,4.258-1.133,14.336t1.016,13.848q1.016,3.77,2.559,5.02A5.459,5.459,0,0,0-51.1-8.125a5.483,5.483,0,0,0,3.555-1.27,8.523,8.523,0,0,0,2.422-4.551q1.133-4.219,1.133-14.3T-45-42.09q-1.016-3.77-2.559-5.039A5.407,5.407,0,0,0-51.1-48.4Zm24.808,37.422h10.977v7.852a27.369,27.369,0,0,1-.82,7.52A11.233,11.233,0,0,1-19.24,9.336a16.005,16.005,0,0,1-5.8,3.438l-2.148-4.531a9.245,9.245,0,0,0,4.727-3.008A9.046,9.046,0,0,0-20.978,0h-5.312ZM9.22-57.5q8.32,0,13.008,5.938,5.586,7.031,5.586,23.32,0,16.25-5.625,23.359Q17.541.977,9.22.977A16.388,16.388,0,0,1-4.256-5.449q-5.117-6.426-5.117-22.91,0-16.172,5.625-23.281Q.9-57.5,9.22-57.5Zm0,9.1a5.483,5.483,0,0,0-3.555,1.27,8.523,8.523,0,0,0-2.422,4.551Q2.111-38.32,2.111-28.242T3.127-14.395q1.016,3.77,2.559,5.02A5.459,5.459,0,0,0,9.22-8.125a5.483,5.483,0,0,0,3.555-1.27A8.523,8.523,0,0,0,15.2-13.945q1.133-4.219,1.133-14.3T15.314-42.09q-1.016-3.77-2.559-5.039A5.407,5.407,0,0,0,9.22-48.4Zm41.292-9.1q8.32,0,13.008,5.938,5.586,7.031,5.586,23.32,0,16.25-5.625,23.359Q58.833.977,50.512.977A16.388,16.388,0,0,1,37.036-5.449q-5.117-6.426-5.117-22.91,0-16.172,5.625-23.281Q42.192-57.5,50.512-57.5Zm0,9.1a5.483,5.483,0,0,0-3.555,1.27,8.523,8.523,0,0,0-2.422,4.551Q43.4-38.32,43.4-28.242t1.016,13.848q1.016,3.77,2.559,5.02a5.459,5.459,0,0,0,3.535,1.25,5.483,5.483,0,0,0,3.555-1.27,8.523,8.523,0,0,0,2.422-4.551q1.133-4.219,1.133-14.3T56.606-42.09q-1.016-3.77-2.559-5.039A5.407,5.407,0,0,0,50.512-48.4ZM91.8-57.5q8.32,0,13.008,5.938,5.586,7.031,5.586,23.32,0,16.25-5.625,23.359Q100.125.977,91.8.977A16.388,16.388,0,0,1,78.328-5.449q-5.117-6.426-5.117-22.91,0-16.172,5.625-23.281Q83.484-57.5,91.8-57.5Zm0,9.1a5.483,5.483,0,0,0-3.555,1.27,8.523,8.523,0,0,0-2.422,4.551Q84.7-38.32,84.7-28.242t1.016,13.848q1.016,3.77,2.559,5.02A5.459,5.459,0,0,0,91.8-8.125a5.483,5.483,0,0,0,3.555-1.27,8.523,8.523,0,0,0,2.422-4.551q1.133-4.219,1.133-14.3T97.9-42.09q-1.016-3.77-2.559-5.039A5.407,5.407,0,0,0,91.8-48.4Z" transform="translate(226.422 1856.028)" fill="#cb4153" style="mix-blend-mode:darken;isolation:isolate"/><path d="M-28.239-12.116H-49.021V2.171h-5.474V-29.595H-22.84V-2.152A3.365,3.365,0,0,1-24.306.677a5.669,5.669,0,0,1-3.47,1.085h-5.9l-.594-4.88h4.824q1.206,0,1.206-1.021Zm-7.941-4.323h7.941v-8.776h-7.941Zm-12.84,0h7.44v-8.776h-7.44Zm47.87.8q-.5,7.088-4.3,11.4a21.329,21.329,0,0,1-9.973,6.225l-2.319-4.1Q-7.051-5.882-6.587-15.642h-5.084v-1.633a44.063,44.063,0,0,1-3.989,3.117l-3.154-3.4A34.421,34.421,0,0,0-11.3-24.771,28.432,28.432,0,0,0-6.847-32.1L-1.6-30.856a38.255,38.255,0,0,1-7.255,10.91H8.09A34.031,34.031,0,0,1,1.373-30.894l4.861-1.466A34.155,34.155,0,0,0,11.476-24.1a42.382,42.382,0,0,0,7.3,6.364l-3.989,4.026L12.8-15.419a86.962,86.962,0,0,1-.473,9.862Q11.856-1.5,10.094.065A6.584,6.584,0,0,1,5.548,1.633h-6.68l-.761-4.75H3.989A2.743,2.743,0,0,0,6.633-4.75q.807-1.633.807-9.3v-1.6ZM37.739,1.707,36.366-2.932q7.366-.816,11.077-3.4a8.76,8.76,0,0,0,3.711-7.7A9.133,9.133,0,0,0,48.483-20.9a11.874,11.874,0,0,0-7.4-3.034Q40.69-13.545,37.192-7.1t-8.8,6.448A6.438,6.438,0,0,1,22.8-3.906a13.286,13.286,0,0,1-2.134-7.45v-.464a15.314,15.314,0,0,1,5.167-11.365A19.5,19.5,0,0,1,38.871-28.5h.761q7.515,0,12.348,3.813a12.5,12.5,0,0,1,4.833,10.363q0,7.181-4.871,11.244T37.739,1.707ZM35.865-23.4a13.166,13.166,0,0,0-7.1,4.379,11.231,11.231,0,0,0-2.922,7.5,10.257,10.257,0,0,0,.724,3.9q.724,1.781,2.022,1.781,2.616,0,4.75-5.084A37.424,37.424,0,0,0,35.865-23.4Z" transform="translate(401.422 1852.028)" fill="#333" style="mix-blend-mode:darken;isolation:isolate"/></g><g transform="translate(1767 -239)" clip-path="url(#a)"><path d="M97.5,0A97.5,97.5,0,1,1,0,97.5,97.5,97.5,0,0,1,97.5,0Z" transform="translate(-7 1685)" fill="#cb4153"/></g><path d="M-34.775-10.137q-.937.4-2.754.952v7.837A2.674,2.674,0,0,1-38.452.828a3.582,3.582,0,0,1-2.373.769h-3.281l-.439-3.325H-42.3q1,0,1-.879V-8.13l-3,.762-.747-3.428q1.436-.264,3.75-.791v-5.171h-3.149V-19.79h3.149v-4.951h3.779v4.951h2.344v3.032h-2.344v4.248q1.67-.439,2.432-.718ZM-21.5.249h-9.038v1.04H-34.35v-20.42h6.357v-5.581h4v5.581h6.416V1.289H-21.5ZM-27.993-16.04h-2.549v4.819h2.549Zm6.489,4.819V-16.04h-2.49v4.819Zm-2.49,8.335L-21.5-2.9V-8.276h-2.49Zm-6.548.015,2.549-.015V-8.276h-2.549Zm24.067-15.85-3.691,1.626q-.41-.879-1.692-2.988t-2-3.105l3.354-1.494A53.182,53.182,0,0,1-6.475-18.721ZM2.593-5.186A14.013,14.013,0,0,1-.864-3.428,22.6,22.6,0,0,1-4.8-2.271l-1-2.549a23.409,23.409,0,0,0,4.79-1.714H-6.357V-9.17h4.131v-1.479h-3.56v-2.49h3.56v-1.143q-.7-.029-1.685-.088A2.085,2.085,0,0,1-5.4-14.985a2.3,2.3,0,0,1-.505-1.6v-4.2H-.571v-1.553H-5.977v-2.256H2.285v5.669H-2.974v1.6a.471.471,0,0,0,.271.483,5.537,5.537,0,0,0,1.531.117q.22,0,.9-.037t.791-.359a4.815,4.815,0,0,0,.11-1.289l2.432.205v1.685a1.907,1.907,0,0,1-1.685,2.08v1.3H5.464v-1.318a1.953,1.953,0,0,1-1.479-2.124v-4.2h5.64v-1.553h-5.7v-2.256h8.613v5.669H6.929v1.6a.471.471,0,0,0,.271.483,5.451,5.451,0,0,0,1.516.117q.894,0,1.392-.037t.608-.359a4.815,4.815,0,0,0,.11-1.289l2.432.205v1.685a2.11,2.11,0,0,1-.527,1.545,2.612,2.612,0,0,1-1.743.608l-1.992.1v1.128h3.691v2.49H8.994V-9.17h4.38v2.637h-5.3a25.517,25.517,0,0,0,5.215,1.89L11.719-1.875A19.649,19.649,0,0,1,8.049-3.186,19.364,19.364,0,0,1,4.658-5.1L5.991-6.533H1.377ZM1.377-10.649V-9.17H5.464v-1.479Zm13.11,8.73-.659,3.062q-.234,0-9.712.073a47.014,47.014,0,0,1-9.3-.645,6.518,6.518,0,0,1-3.4-2.3,19.664,19.664,0,0,1-4.7,3.384L-14.634-1.86a12.216,12.216,0,0,0,3.589-2.095v-7.676h-2.871v-3.12h6.65v9.9a2.209,2.209,0,0,0,.542,1.5,3.7,3.7,0,0,0,1.487.989,10.866,10.866,0,0,0,3.054.483q2.109.117,6.5.117Q12.744-1.758,14.487-1.919Zm26.088-.63-.205,3.955q-1.6.044-2.124.044A19.086,19.086,0,0,1,29.824-.066,10.236,10.236,0,0,1,25.5-3.728a9.221,9.221,0,0,1-1.3-4.885q0-5.361,5.288-9.873l-13.022.132V-22.1H42.582v3.779H35.859a14.379,14.379,0,0,0-5.229,4.116,8.667,8.667,0,0,0-2.051,5.42q0,6.328,9.624,6.328Q39.316-2.461,40.576-2.549ZM43.447-13.11l-2.109.776q-1.025-2.549-2.007-4.5l2.007-.747Q42.538-15.278,43.447-13.11Zm-4.175.85-2.168.806q-.6-1.523-1.978-4.5l2.08-.82A47.243,47.243,0,0,1,39.272-12.261ZM-53.95,20.327V15.994H-38v3.387a25.1,25.1,0,0,0-4.018,5.578,32.526,32.526,0,0,0-3.113,7.728A28.658,28.658,0,0,0-46.181,40h-4.5A31.271,31.271,0,0,1-48.6,29.707a34.3,34.3,0,0,1,5.254-9.38Zm41.363,19.98H-24.218V41.45h-4.175V33.862q-2.593,1.333-5.1,2.388l-1.86-3.018A55.987,55.987,0,0,0-25.229,28q-1.333-.967-4.189-2.988a46.624,46.624,0,0,1-3.955,2.5l-2.285-2.725a38.381,38.381,0,0,0,7.4-5.464,27.8,27.8,0,0,0,4.124-4.819l4.131.864a18.693,18.693,0,0,1-1.289,2.007h8.555l1.714,1.45a33.032,33.032,0,0,1-8.965,9.888h11.6V41.45h-4.2ZM-26.43,22.729q2.563,1.611,4.38,2.9a31.159,31.159,0,0,0,5.083-5.156h-6.987Q-25.068,21.587-26.43,22.729Zm2.212,14.341h11.631V31.9H-24.218ZM-.767,32a26.434,26.434,0,0,1-2.153,3.75l-2.139-2.2a27.437,27.437,0,0,0,2.607-4.885A24.289,24.289,0,0,0-.811,23.594h-2.93V20.62H-.767V14.951H2.9V20.62h1.89v2.974H2.9v1.846a18.516,18.516,0,0,0,2.461,2.446V26.26h6.87V25.1H5.986V22.363h6.24V21.1H5.444v-3H8.637l-1.1-2.241,3.516-1L12.592,18.1h3.413l1.582-3.208,3.721,1L19.917,18.1h3.164v3h-6.9v1.26h6.182V25.1H16.181V26.26h7.354v3H16.181v.5a11.738,11.738,0,0,0,1.553,2.563,24.273,24.273,0,0,0,3.647-3l2.7,2.109a40.715,40.715,0,0,1-4.131,3.179,29.27,29.27,0,0,0,4.585,3.413l-2.563,3a21.736,21.736,0,0,1-5.786-5.61v3.428a2.311,2.311,0,0,1-.937,1.9,3.643,3.643,0,0,1-2.329.74H9.458l-.439-3.516h2.461q.747,0,.747-.718V29.263H8.989a36.277,36.277,0,0,1,2.358,3.486L8.169,34.243Q7.1,32.485,5.5,30.112l1.758-.85h-1.9v-.352l-.967,1.978A11.011,11.011,0,0,1,2.9,29.409V41.685H-.767Zm12.935,4.263a68.317,68.317,0,0,1-7.017,3.442l-1.362-3.12a61.611,61.611,0,0,0,7.5-3.179Zm21.84-19.541a43.854,43.854,0,0,0-1.86,11.323,45.572,45.572,0,0,0,1.641,12.231l-4.043.923a47.621,47.621,0,0,1-1.582-11.968,53.64,53.64,0,0,1,1.729-13.081Zm18.6,5.039-1.23-.015q-1.919-.029-6.372.073t-8.628.4V18.643q9.9-.483,13.711-.483,1.523,0,2.52.088Zm.322,18.354q-3.589.337-6.138.337-6.431,0-8.774-1.487a4.739,4.739,0,0,1-2.344-4.241q0-3.179,3-6.27l3.237,1.729a6.186,6.186,0,0,0-2.358,4.409,1.842,1.842,0,0,0,1.23,1.648,13.633,13.633,0,0,0,5.1.608q1.963,0,6.9-.425Z" transform="translate(1867 1546)" fill="#fff"/></g><path d="M7.008-.945A.9.9,0,0,1,7.281-1.6a.9.9,0,0,1,.656-.273.9.9,0,0,1,.656.273.9.9,0,0,1,.273.656.9.9,0,0,1-.273.656.9.9,0,0,1-.656.273.9.9,0,0,1-.656-.273A.9.9,0,0,1,7.008-.945ZM11.953-5.7a.9.9,0,0,1,.273-.656.9.9,0,0,1,.656-.273.882.882,0,0,1,.652.273.9.9,0,0,1,.27.656.9.9,0,0,1-.27.656.882.882,0,0,1-.652.273.9.9,0,0,1-.656-.273A.9.9,0,0,1,11.953-5.7Zm-9.906,0a.9.9,0,0,1,.273-.656.9.9,0,0,1,.656-.273.9.9,0,0,1,.656.273.9.9,0,0,1,.273.656.9.9,0,0,1-.273.656.9.9,0,0,1-.656.273.9.9,0,0,1-.656-.273A.9.9,0,0,1,2.047-5.7Zm4.961-4.8a.9.9,0,0,1,.273-.656.9.9,0,0,1,.656-.273.9.9,0,0,1,.656.273.9.9,0,0,1,.273.656.882.882,0,0,1-.273.652.9.9,0,0,1-.656.27.9.9,0,0,1-.656-.27A.882.882,0,0,1,7.008-10.492Zm6.9,10.281L13.359.3,8-5.086,2.641.32,2.094-.2,7.438-5.664,2.047-11.117l.547-.516L8-6.156,13.359-11.7l.547.508L8.516-5.664Zm10.8.9H23.328v-9.6H16.883v-1.117h6.445v-2.625H24.7v2.625h6.289v1.117H24.7Zm7.156-1.9L30.8-.367a12.891,12.891,0,0,1-2.359-3.148,17.674,17.674,0,0,1-1.555-3.523l1.273-.273A16.012,16.012,0,0,0,31.859-1.211ZM21.188-6.992A13.655,13.655,0,0,1,17.055-.383l-.945-.75a12.737,12.737,0,0,0,2.465-3.16A12.373,12.373,0,0,0,19.8-7.234Zm6.461-5.25v-.023a1.537,1.537,0,0,1,.52-1.18,1.731,1.731,0,0,1,1.207-.477,1.683,1.683,0,0,1,1.254.5,1.593,1.593,0,0,1,.488,1.152,1.572,1.572,0,0,1-.523,1.223,1.724,1.724,0,0,1-1.187.473,1.7,1.7,0,0,1-1.262-.5A1.606,1.606,0,0,1,27.648-12.242Zm2.867,0v-.031a1.035,1.035,0,0,0-.344-.773,1.119,1.119,0,0,0-.8-.328,1.082,1.082,0,0,0-.777.332,1.061,1.061,0,0,0-.34.785,1.08,1.08,0,0,0,.336.789,1.071,1.071,0,0,0,.781.336,1.122,1.122,0,0,0,.8-.324A1.045,1.045,0,0,0,30.516-12.242ZM41.984.75H40.594V-7.031A30.136,30.136,0,0,1,33.281-4.3l-.414-1.07a26.13,26.13,0,0,0,8-3.273,16.505,16.505,0,0,0,4.4-4.07l1.281.5a16.942,16.942,0,0,1-4.562,4.281Zm14.352-9.8-.883,1.023a41.82,41.82,0,0,0-5.562-2.9l.672-.977A33.158,33.158,0,0,1,56.336-9.055ZM63.148-7.07a13.792,13.792,0,0,1-3.406,3.957A15.368,15.368,0,0,1,55.387-.629,22.958,22.958,0,0,1,50.063.516l-.273-1.2a21.035,21.035,0,0,0,4.563-.934A13.866,13.866,0,0,0,57.77-3.254a17.361,17.361,0,0,0,2.363-1.9,12.872,12.872,0,0,0,1.945-2.59ZM79.188-4.859l-.82,1.086a28.891,28.891,0,0,0-3.883-2.133,30.964,30.964,0,0,0-4.023-1.578V.8H69.07v-13.68h1.406v4.188A38.458,38.458,0,0,1,79.188-4.859ZM95.633-1.422l-.7.961a22.714,22.714,0,0,0-2.7-1.937v.477a2.081,2.081,0,0,1-.785,1.777,4.563,4.563,0,0,1-2.668.59A3.8,3.8,0,0,1,86.59-.172a1.909,1.909,0,0,1-.91-1.656,2.066,2.066,0,0,1,.867-1.723,3.356,3.356,0,0,1,2.094-.66,9.5,9.5,0,0,1,2.344.289V-8.539H85.492V-9.594h5.492v-2.867h1.227v2.867h2.914v1.055H92.211v5.047A12.812,12.812,0,0,1,95.633-1.422Zm-4.578-.5v-.945a6.156,6.156,0,0,0-2.391-.4,2.313,2.313,0,0,0-1.332.371,1.159,1.159,0,0,0-.52,1,1.1,1.1,0,0,0,.6.988,2.76,2.76,0,0,0,1.43.355Q91.055-.547,91.055-1.922ZM83.664.156,82.5.414a18.752,18.752,0,0,1-.8-5.578,26.18,26.18,0,0,1,1.07-7.078l1.2.211A23.217,23.217,0,0,0,82.9-5.3,19.376,19.376,0,0,0,83.664.156Zm25.992-1.3H106.3l-.242-1.023a3.9,3.9,0,0,1-2.484,1.086A2.581,2.581,0,0,1,101.422-2.1a4.5,4.5,0,0,1-.8-2.828,4.2,4.2,0,0,1,.957-2.863,3.029,3.029,0,0,1,2.379-1.1,4.528,4.528,0,0,1,2.109.586V-8.75h1.148v6.813h2.008a6.407,6.407,0,0,0,.711-3.2,6.064,6.064,0,0,0-1.5-4.336,5.412,5.412,0,0,0-4.137-1.586,5.657,5.657,0,0,0-4.227,1.723A5.9,5.9,0,0,0,98.4-5.039,5.973,5.973,0,0,0,100.016-.68a5.673,5.673,0,0,0,4.25,1.656,10.593,10.593,0,0,0,2.781-.344v1a12.6,12.6,0,0,1-2.789.281A6.655,6.655,0,0,1,99.309-.027a6.848,6.848,0,0,1-1.918-5.027,6.761,6.761,0,0,1,1.988-4.957,6.653,6.653,0,0,1,4.918-2,6.389,6.389,0,0,1,4.836,1.855,6.89,6.89,0,0,1,1.781,4.98A6.9,6.9,0,0,1,109.656-1.141Zm-3.6-1.93V-7.359a4.5,4.5,0,0,0-1.867-.469,2.083,2.083,0,0,0-1.707.75,3.274,3.274,0,0,0-.613,2.125q0,2.758,2.023,2.758A3.666,3.666,0,0,0,106.055-3.07Zm14,2.531A6.712,6.712,0,0,1,117.289.2a4.147,4.147,0,0,1-3.168-1.2A4.771,4.771,0,0,1,112.992-4.4,4.784,4.784,0,0,1,114.156-7.8,4.1,4.1,0,0,1,117.3-9.047a6.181,6.181,0,0,1,2.758.727v1.531h-.062a4.711,4.711,0,0,0-2.727-1.07,2.587,2.587,0,0,0-2.1.9,3.9,3.9,0,0,0-.75,2.563,3.812,3.812,0,0,0,.746,2.539,2.616,2.616,0,0,0,2.105.875,4.627,4.627,0,0,0,2.727-1.055h.063Zm5.117.781A3.757,3.757,0,0,1,122.2-1a4.979,4.979,0,0,1-1.094-3.4,5,5,0,0,1,1.1-3.414,3.746,3.746,0,0,1,2.969-1.258,3.757,3.757,0,0,1,2.969,1.25,5,5,0,0,1,1.1,3.422,4.961,4.961,0,0,1-1.1,3.41A3.771,3.771,0,0,1,125.172.242Zm0-8.148a2.323,2.323,0,0,0-1.961.9,4.219,4.219,0,0,0-.687,2.6,4.175,4.175,0,0,0,.688,2.578,2.323,2.323,0,0,0,1.961.9,2.323,2.323,0,0,0,1.961-.9,4.175,4.175,0,0,0,.688-2.578Q127.82-7.906,125.172-7.906Zm8.57,8.117a6.858,6.858,0,0,1-3.109-.727V-2.109h.055A5.251,5.251,0,0,0,133.82-.937q2.18,0,2.18-1.375a1.148,1.148,0,0,0-.289-.836,2.576,2.576,0,0,0-1.2-.508q-.766-.148-1.758-.383a2.942,2.942,0,0,1-1.535-.824,2.145,2.145,0,0,1-.543-1.512,2.329,2.329,0,0,1,.953-1.918,4.02,4.02,0,0,1,2.547-.746,6.2,6.2,0,0,1,2.883.641v1.516H137a4.8,4.8,0,0,0-2.9-1.008,2.763,2.763,0,0,0-1.492.348,1.086,1.086,0,0,0-.547.965,1.123,1.123,0,0,0,.293.836,2.667,2.667,0,0,0,1.168.508l1.727.375a2.976,2.976,0,0,1,1.609.824,2.176,2.176,0,0,1,.539,1.527,2.355,2.355,0,0,1-.992,1.965A4.3,4.3,0,0,1,133.742.211ZM150.6,0V-4.945a5.9,5.9,0,0,0-.2-1.91,1.359,1.359,0,0,0-.609-.7,2.153,2.153,0,0,0-1.035-.223,4.3,4.3,0,0,0-2.523,1.18,9.381,9.381,0,0,1,.047,1.039V0h-1.375V-4.945a5.921,5.921,0,0,0-.2-1.934,1.354,1.354,0,0,0-.6-.684,2.119,2.119,0,0,0-1.02-.219,4.092,4.092,0,0,0-2.492,1.141V0h-1.375V-8.828h1.375v1.063a4.75,4.75,0,0,1,2.969-1.312A2.407,2.407,0,0,1,146-7.633a5.126,5.126,0,0,1,3.234-1.445q2.742,0,2.742,3.328V0Zm4.727-5.328h5.18q-.063-2.633-2.414-2.633a2.663,2.663,0,0,0-1.922.7A2.925,2.925,0,0,0,155.328-5.328ZM158.555.2a4.675,4.675,0,0,1-3.418-1.191,4.508,4.508,0,0,1-1.215-3.371A4.914,4.914,0,0,1,155.086-7.8a3.974,3.974,0,0,1,3.086-1.277,3.508,3.508,0,0,1,2.715,1.047,4.246,4.246,0,0,1,.965,2.984v.758h-6.523a3.3,3.3,0,0,0,.863,2.449,3.243,3.243,0,0,0,2.387.855,5.281,5.281,0,0,0,3.031-1.055h.063V-.547A8.834,8.834,0,0,1,158.555.2Zm14.414.008A10.117,10.117,0,0,1,168.8-.773V-2.547h.1a6.116,6.116,0,0,0,4.078,1.531,3.728,3.728,0,0,0,2.207-.574,1.79,1.79,0,0,0,.8-1.527,1.777,1.777,0,0,0-.34-1.152,2.274,2.274,0,0,0-1.184-.652l-2.625-.531a4.1,4.1,0,0,1-2.215-1.105,2.914,2.914,0,0,1-.754-2.082,2.952,2.952,0,0,1,1.172-2.4,4.715,4.715,0,0,1,3.055-.945,9.7,9.7,0,0,1,3.938.867v1.711h-.109a5.8,5.8,0,0,0-3.828-1.352,3.281,3.281,0,0,0-1.965.539,1.667,1.667,0,0,0-.746,1.414q0,1.461,1.7,1.883.984.18,2.191.449a6.818,6.818,0,0,1,1.727.563,3.137,3.137,0,0,1,.844.668,2.513,2.513,0,0,1,.484.852,3.3,3.3,0,0,1,.16,1.055A3.136,3.136,0,0,1,176.258-.8,5.061,5.061,0,0,1,172.969.211ZM188.516,0h-1.453V-5.82h-6.094V0h-1.453V-11.773h1.453v4.7h6.094v-4.7h1.453Zm7.539.242a4.978,4.978,0,0,1-3.937-1.621,6.579,6.579,0,0,1-1.43-4.5,6.585,6.585,0,0,1,1.434-4.5,4.969,4.969,0,0,1,3.934-1.629A4.978,4.978,0,0,1,200-10.387a6.585,6.585,0,0,1,1.434,4.5A6.573,6.573,0,0,1,200-1.387,4.978,4.978,0,0,1,196.055.242Zm.008-11.016a3.423,3.423,0,0,0-2.844,1.281A5.681,5.681,0,0,0,192.2-5.883a5.664,5.664,0,0,0,1.016,3.605A3.427,3.427,0,0,0,196.063-1,3.419,3.419,0,0,0,198.9-2.277a5.664,5.664,0,0,0,1.016-3.605A5.675,5.675,0,0,0,198.9-9.5,3.423,3.423,0,0,0,196.063-10.773Zm8.992,6.328V0H203.6V-11.773h3.25a5,5,0,0,1,3.363.957,3.253,3.253,0,0,1,1.09,2.574A3.494,3.494,0,0,1,210.113-5.5a4.846,4.846,0,0,1-3.332,1.059Zm0-6.094v4.867h1.453a3.7,3.7,0,0,0,2.535-.691,2.389,2.389,0,0,0,.746-1.84,2.119,2.119,0,0,0-.727-1.742,3.657,3.657,0,0,0-2.32-.594Zm9.531,6.094V0h-1.453V-11.773h3.25a5,5,0,0,1,3.363.957,3.253,3.253,0,0,1,1.09,2.574A3.494,3.494,0,0,1,219.645-5.5a4.846,4.846,0,0,1-3.332,1.059Zm0-6.094v4.867h1.453a3.7,3.7,0,0,0,2.535-.691,2.389,2.389,0,0,0,.746-1.84,2.119,2.119,0,0,0-.727-1.742,3.657,3.657,0,0,0-2.32-.594ZM226.711,0h-4.539V-1.086h1.547v-9.6h-1.547v-1.086h4.539v1.086h-1.539v9.6h1.539Zm11.375,0H236.4l-5.93-10.219V0h-1.352V-11.773h2.016l5.6,9.656v-9.656h1.352Zm12.242-.875a10.991,10.991,0,0,1-4.141,1.1,5.834,5.834,0,0,1-4.371-1.594A6.212,6.212,0,0,1,240.258-5.9a6.108,6.108,0,0,1,1.586-4.469,5.805,5.805,0,0,1,4.344-1.617,9.029,9.029,0,0,1,4.133,1.07V-9.2h-.109a6.61,6.61,0,0,0-4.273-1.555,3.809,3.809,0,0,0-3.051,1.3,5.217,5.217,0,0,0-1.113,3.516,5.282,5.282,0,0,0,1.16,3.629,4.036,4.036,0,0,0,3.184,1.309,6.858,6.858,0,0,0,2.773-.562V-4.6h-3.055V-5.867h4.492ZM263.3-12.3,257.648,2.375h-1.258L262.023-12.3ZM282.9-1.141h-3.359L279.3-2.164a3.9,3.9,0,0,1-2.484,1.086A2.581,2.581,0,0,1,274.664-2.1a4.5,4.5,0,0,1-.8-2.828,4.2,4.2,0,0,1,.957-2.863,3.029,3.029,0,0,1,2.379-1.1,4.528,4.528,0,0,1,2.109.586V-8.75h1.148v6.813h2.008a6.407,6.407,0,0,0,.711-3.2,6.064,6.064,0,0,0-1.5-4.336,5.412,5.412,0,0,0-4.137-1.586,5.657,5.657,0,0,0-4.227,1.723,5.9,5.9,0,0,0-1.68,4.293A5.973,5.973,0,0,0,273.258-.68a5.673,5.673,0,0,0,4.25,1.656,10.593,10.593,0,0,0,2.781-.344v1a12.6,12.6,0,0,1-2.789.281,6.655,6.655,0,0,1-4.949-1.941,6.847,6.847,0,0,1-1.918-5.027,6.761,6.761,0,0,1,1.988-4.957,6.653,6.653,0,0,1,4.918-2,6.389,6.389,0,0,1,4.836,1.855,6.89,6.89,0,0,1,1.781,4.98A6.9,6.9,0,0,1,282.9-1.141Zm-3.6-1.93V-7.359a4.5,4.5,0,0,0-1.867-.469,2.083,2.083,0,0,0-1.707.75,3.274,3.274,0,0,0-.613,2.125q0,2.758,2.023,2.758A3.666,3.666,0,0,0,279.3-3.07Zm14,2.531A6.712,6.712,0,0,1,290.531.2a4.147,4.147,0,0,1-3.168-1.2A4.771,4.771,0,0,1,286.234-4.4,4.784,4.784,0,0,1,287.4-7.8a4.1,4.1,0,0,1,3.141-1.242,6.181,6.181,0,0,1,2.758.727v1.531h-.062a4.711,4.711,0,0,0-2.727-1.07,2.587,2.587,0,0,0-2.1.9,3.9,3.9,0,0,0-.75,2.563,3.812,3.812,0,0,0,.746,2.539,2.616,2.616,0,0,0,2.105.875,4.627,4.627,0,0,0,2.727-1.055h.063Zm5.117.781A3.757,3.757,0,0,1,295.438-1a4.979,4.979,0,0,1-1.094-3.4,5,5,0,0,1,1.1-3.414,3.746,3.746,0,0,1,2.969-1.258,3.757,3.757,0,0,1,2.969,1.25,5,5,0,0,1,1.1,3.422,4.961,4.961,0,0,1-1.1,3.41A3.771,3.771,0,0,1,298.414.242Zm0-8.148a2.323,2.323,0,0,0-1.961.9,4.219,4.219,0,0,0-.687,2.6,4.175,4.175,0,0,0,.688,2.578,2.323,2.323,0,0,0,1.961.9,2.323,2.323,0,0,0,1.961-.9,4.175,4.175,0,0,0,.688-2.578Q301.063-7.906,298.414-7.906Zm8.57,8.117a6.858,6.858,0,0,1-3.109-.727V-2.109h.055a5.251,5.251,0,0,0,3.133,1.172q2.18,0,2.18-1.375a1.148,1.148,0,0,0-.289-.836,2.576,2.576,0,0,0-1.2-.508q-.766-.148-1.758-.383a2.942,2.942,0,0,1-1.535-.824,2.145,2.145,0,0,1-.543-1.512,2.329,2.329,0,0,1,.953-1.918,4.02,4.02,0,0,1,2.547-.746A6.2,6.2,0,0,1,310.3-8.4v1.516h-.055a4.8,4.8,0,0,0-2.9-1.008,2.763,2.763,0,0,0-1.492.348,1.086,1.086,0,0,0-.547.965,1.123,1.123,0,0,0,.293.836,2.667,2.667,0,0,0,1.168.508l1.727.375a2.976,2.976,0,0,1,1.609.824,2.176,2.176,0,0,1,.539,1.527,2.355,2.355,0,0,1-.992,1.965A4.3,4.3,0,0,1,306.984.211ZM323.844,0V-4.945a5.9,5.9,0,0,0-.2-1.91,1.359,1.359,0,0,0-.609-.7A2.153,2.153,0,0,0,322-7.781a4.3,4.3,0,0,0-2.523,1.18,9.381,9.381,0,0,1,.047,1.039V0h-1.375V-4.945a5.921,5.921,0,0,0-.2-1.934,1.354,1.354,0,0,0-.6-.684,2.119,2.119,0,0,0-1.02-.219,4.092,4.092,0,0,0-2.492,1.141V0h-1.375V-8.828h1.375v1.063A4.75,4.75,0,0,1,316.8-9.078a2.407,2.407,0,0,1,2.438,1.445,5.126,5.126,0,0,1,3.234-1.445q2.742,0,2.742,3.328V0Zm4.727-5.328h5.18q-.062-2.633-2.414-2.633a2.663,2.663,0,0,0-1.922.7A2.925,2.925,0,0,0,328.57-5.328ZM331.8.2a4.675,4.675,0,0,1-3.418-1.191,4.508,4.508,0,0,1-1.215-3.371A4.914,4.914,0,0,1,328.328-7.8a3.974,3.974,0,0,1,3.086-1.277,3.508,3.508,0,0,1,2.715,1.047,4.246,4.246,0,0,1,.965,2.984v.758H328.57a3.3,3.3,0,0,0,.863,2.449,3.243,3.243,0,0,0,2.387.855,5.281,5.281,0,0,0,3.031-1.055h.063V-.547A8.834,8.834,0,0,1,331.8.2Zm14.414.008a10.117,10.117,0,0,1-4.164-.984V-2.547h.1a6.116,6.116,0,0,0,4.078,1.531,3.728,3.728,0,0,0,2.207-.574,1.79,1.79,0,0,0,.8-1.527,1.777,1.777,0,0,0-.34-1.152,2.274,2.274,0,0,0-1.184-.652l-2.625-.531a4.1,4.1,0,0,1-2.215-1.105,2.914,2.914,0,0,1-.754-2.082,2.952,2.952,0,0,1,1.172-2.4,4.715,4.715,0,0,1,3.055-.945,9.7,9.7,0,0,1,3.938.867v1.711h-.109a5.8,5.8,0,0,0-3.828-1.352,3.281,3.281,0,0,0-1.965.539,1.667,1.667,0,0,0-.746,1.414q0,1.461,1.7,1.883.984.18,2.191.449a6.818,6.818,0,0,1,1.727.563,3.137,3.137,0,0,1,.844.668,2.513,2.513,0,0,1,.484.852,3.3,3.3,0,0,1,.16,1.055A3.136,3.136,0,0,1,349.5-.8,5.061,5.061,0,0,1,346.211.211ZM355.672,0V-10.508h-4.18v-1.266H361.3v1.266h-4.18V0ZM367.2.242a4.978,4.978,0,0,1-3.937-1.621,6.579,6.579,0,0,1-1.43-4.5,6.585,6.585,0,0,1,1.434-4.5,4.969,4.969,0,0,1,3.934-1.629,4.978,4.978,0,0,1,3.941,1.629,6.585,6.585,0,0,1,1.434,4.5,6.573,6.573,0,0,1-1.434,4.5A4.978,4.978,0,0,1,367.2.242Zm.008-11.016a3.423,3.423,0,0,0-2.844,1.281,5.681,5.681,0,0,0-1.016,3.609,5.664,5.664,0,0,0,1.016,3.605A3.427,3.427,0,0,0,367.2-1a3.419,3.419,0,0,0,2.836-1.277,5.664,5.664,0,0,0,1.016-3.605A5.675,5.675,0,0,0,370.039-9.5,3.423,3.423,0,0,0,367.2-10.773ZM384.367,0h-1.9l-3.875-4.734h-2.4V0h-1.453V-11.773h3.336a5.1,5.1,0,0,1,3.363.883,2.931,2.931,0,0,1,1.012,2.32,3.477,3.477,0,0,1-2.383,3.422ZM376.2-10.539V-5.93h1.711a3.348,3.348,0,0,0,2.32-.656,2.492,2.492,0,0,0,.7-1.914q0-2.039-2.758-2.039ZM393.328,0h-7.664V-11.773h7.664v1.266h-6.211v3.43h6.055v1.266h-6.055v4.547h6.211Zm12.9-12.3L400.57,2.375h-1.258L404.945-12.3ZM425.82-1.141h-3.359l-.242-1.023a3.9,3.9,0,0,1-2.484,1.086A2.581,2.581,0,0,1,417.586-2.1a4.5,4.5,0,0,1-.8-2.828,4.2,4.2,0,0,1,.957-2.863,3.029,3.029,0,0,1,2.379-1.1,4.528,4.528,0,0,1,2.109.586V-8.75h1.148v6.813h2.008a6.407,6.407,0,0,0,.711-3.2,6.064,6.064,0,0,0-1.5-4.336,5.412,5.412,0,0,0-4.137-1.586,5.657,5.657,0,0,0-4.227,1.723,5.9,5.9,0,0,0-1.68,4.293A5.973,5.973,0,0,0,416.18-.68,5.673,5.673,0,0,0,420.43.977a10.593,10.593,0,0,0,2.781-.344v1a12.6,12.6,0,0,1-2.789.281,6.655,6.655,0,0,1-4.949-1.941,6.847,6.847,0,0,1-1.918-5.027,6.761,6.761,0,0,1,1.988-4.957,6.653,6.653,0,0,1,4.918-2A6.389,6.389,0,0,1,425.3-10.16a6.89,6.89,0,0,1,1.781,4.98A6.9,6.9,0,0,1,425.82-1.141Zm-3.6-1.93V-7.359a4.5,4.5,0,0,0-1.867-.469,2.083,2.083,0,0,0-1.707.75,3.274,3.274,0,0,0-.613,2.125q0,2.758,2.023,2.758A3.666,3.666,0,0,0,422.219-3.07Zm14,2.531A6.712,6.712,0,0,1,433.453.2a4.147,4.147,0,0,1-3.168-1.2A4.771,4.771,0,0,1,429.156-4.4,4.784,4.784,0,0,1,430.32-7.8a4.1,4.1,0,0,1,3.141-1.242,6.181,6.181,0,0,1,2.758.727v1.531h-.062a4.711,4.711,0,0,0-2.727-1.07,2.587,2.587,0,0,0-2.1.9,3.9,3.9,0,0,0-.75,2.563,3.812,3.812,0,0,0,.746,2.539,2.616,2.616,0,0,0,2.105.875,4.627,4.627,0,0,0,2.727-1.055h.063Zm5.117.781A3.757,3.757,0,0,1,438.359-1a4.979,4.979,0,0,1-1.094-3.4,5,5,0,0,1,1.1-3.414,3.746,3.746,0,0,1,2.969-1.258,3.757,3.757,0,0,1,2.969,1.25,5,5,0,0,1,1.1,3.422,4.961,4.961,0,0,1-1.1,3.41A3.771,3.771,0,0,1,441.336.242Zm0-8.148a2.323,2.323,0,0,0-1.961.9,4.219,4.219,0,0,0-.687,2.6,4.175,4.175,0,0,0,.688,2.578,2.323,2.323,0,0,0,1.961.9,2.323,2.323,0,0,0,1.961-.9,4.175,4.175,0,0,0,.688-2.578Q443.984-7.906,441.336-7.906Zm8.57,8.117A6.858,6.858,0,0,1,446.8-.516V-2.109h.055a5.251,5.251,0,0,0,3.133,1.172q2.18,0,2.18-1.375a1.148,1.148,0,0,0-.289-.836,2.576,2.576,0,0,0-1.2-.508q-.766-.148-1.758-.383a2.942,2.942,0,0,1-1.535-.824,2.145,2.145,0,0,1-.543-1.512,2.329,2.329,0,0,1,.953-1.918,4.02,4.02,0,0,1,2.547-.746,6.2,6.2,0,0,1,2.883.641v1.516h-.055a4.8,4.8,0,0,0-2.9-1.008,2.763,2.763,0,0,0-1.492.348,1.086,1.086,0,0,0-.547.965,1.123,1.123,0,0,0,.293.836,2.667,2.667,0,0,0,1.168.508l1.727.375a2.976,2.976,0,0,1,1.609.824,2.176,2.176,0,0,1,.539,1.527,2.355,2.355,0,0,1-.992,1.965A4.3,4.3,0,0,1,449.906.211ZM466.766,0V-4.945a5.9,5.9,0,0,0-.2-1.91,1.359,1.359,0,0,0-.609-.7,2.153,2.153,0,0,0-1.035-.223A4.3,4.3,0,0,0,462.4-6.6a9.381,9.381,0,0,1,.047,1.039V0H461.07V-4.945a5.921,5.921,0,0,0-.2-1.934,1.354,1.354,0,0,0-.6-.684,2.119,2.119,0,0,0-1.02-.219,4.092,4.092,0,0,0-2.492,1.141V0h-1.375V-8.828h1.375v1.063a4.75,4.75,0,0,1,2.969-1.312,2.407,2.407,0,0,1,2.438,1.445A5.126,5.126,0,0,1,465.4-9.078q2.742,0,2.742,3.328V0Zm4.727-5.328h5.18q-.062-2.633-2.414-2.633a2.663,2.663,0,0,0-1.922.7A2.925,2.925,0,0,0,471.492-5.328ZM474.719.2A4.675,4.675,0,0,1,471.3-.988a4.508,4.508,0,0,1-1.215-3.371A4.914,4.914,0,0,1,471.25-7.8a3.974,3.974,0,0,1,3.086-1.277,3.508,3.508,0,0,1,2.715,1.047,4.246,4.246,0,0,1,.965,2.984v.758h-6.523a3.3,3.3,0,0,0,.863,2.449,3.243,3.243,0,0,0,2.387.855,5.281,5.281,0,0,0,3.031-1.055h.063V-.547A8.834,8.834,0,0,1,474.719.2ZM488.438,0V-10.508h-4.18v-1.266h9.813v1.266h-4.18V0Zm11.523.242a4.978,4.978,0,0,1-3.937-1.621,6.579,6.579,0,0,1-1.43-4.5,6.585,6.585,0,0,1,1.434-4.5,4.969,4.969,0,0,1,3.934-1.629,4.978,4.978,0,0,1,3.941,1.629,6.585,6.585,0,0,1,1.434,4.5,6.573,6.573,0,0,1-1.434,4.5A4.978,4.978,0,0,1,499.961.242Zm.008-11.016a3.423,3.423,0,0,0-2.844,1.281,5.681,5.681,0,0,0-1.016,3.609,5.664,5.664,0,0,0,1.016,3.605A3.427,3.427,0,0,0,499.969-1,3.419,3.419,0,0,0,502.8-2.277a5.664,5.664,0,0,0,1.016-3.605A5.675,5.675,0,0,0,502.8-9.5,3.423,3.423,0,0,0,499.969-10.773ZM516.586,0h-1.914l-4.625-5.273-1.086,1.117V0h-1.453V-11.773h1.453v6.1l5.6-6.1h1.781l-5.2,5.555ZM526.7-11.773l-4.281,6.9V0h-1.453V-4.719l-4.3-7.055h1.617L521.7-6.117l3.445-5.656ZM532.68.242a4.978,4.978,0,0,1-3.937-1.621,6.579,6.579,0,0,1-1.43-4.5,6.585,6.585,0,0,1,1.434-4.5,4.969,4.969,0,0,1,3.934-1.629,4.978,4.978,0,0,1,3.941,1.629,6.585,6.585,0,0,1,1.434,4.5,6.573,6.573,0,0,1-1.434,4.5A4.978,4.978,0,0,1,532.68.242Zm.008-11.016a3.423,3.423,0,0,0-2.844,1.281,5.681,5.681,0,0,0-1.016,3.609,5.664,5.664,0,0,0,1.016,3.605A3.427,3.427,0,0,0,532.688-1a3.419,3.419,0,0,0,2.836-1.277,5.664,5.664,0,0,0,1.016-3.605A5.675,5.675,0,0,0,535.523-9.5,3.423,3.423,0,0,0,532.688-10.773ZM550.906-12.3,545.25,2.375h-1.258L549.625-12.3ZM570.5-1.141h-3.359L566.9-2.164a3.9,3.9,0,0,1-2.484,1.086A2.581,2.581,0,0,1,562.266-2.1a4.5,4.5,0,0,1-.8-2.828,4.2,4.2,0,0,1,.957-2.863,3.029,3.029,0,0,1,2.379-1.1,4.528,4.528,0,0,1,2.109.586V-8.75h1.148v6.813h2.008a6.407,6.407,0,0,0,.711-3.2,6.064,6.064,0,0,0-1.5-4.336,5.412,5.412,0,0,0-4.137-1.586,5.657,5.657,0,0,0-4.227,1.723,5.9,5.9,0,0,0-1.68,4.293A5.973,5.973,0,0,0,560.859-.68a5.673,5.673,0,0,0,4.25,1.656,10.593,10.593,0,0,0,2.781-.344v1a12.6,12.6,0,0,1-2.789.281,6.655,6.655,0,0,1-4.949-1.941,6.848,6.848,0,0,1-1.918-5.027,6.761,6.761,0,0,1,1.988-4.957,6.653,6.653,0,0,1,4.918-2,6.389,6.389,0,0,1,4.836,1.855,6.89,6.89,0,0,1,1.781,4.98A6.9,6.9,0,0,1,570.5-1.141Zm-3.6-1.93V-7.359a4.5,4.5,0,0,0-1.867-.469,2.083,2.083,0,0,0-1.707.75,3.274,3.274,0,0,0-.613,2.125q0,2.758,2.023,2.758A3.666,3.666,0,0,0,566.9-3.07Zm14,2.531A6.712,6.712,0,0,1,578.133.2a4.147,4.147,0,0,1-3.168-1.2A4.771,4.771,0,0,1,573.836-4.4,4.783,4.783,0,0,1,575-7.8a4.1,4.1,0,0,1,3.141-1.242,6.181,6.181,0,0,1,2.758.727v1.531h-.062a4.711,4.711,0,0,0-2.727-1.07,2.587,2.587,0,0,0-2.1.9,3.9,3.9,0,0,0-.75,2.563A3.812,3.812,0,0,0,576-1.859a2.616,2.616,0,0,0,2.105.875,4.627,4.627,0,0,0,2.727-1.055h.063Zm5.117.781A3.757,3.757,0,0,1,583.039-1a4.979,4.979,0,0,1-1.094-3.4,5,5,0,0,1,1.1-3.414,3.746,3.746,0,0,1,2.969-1.258,3.757,3.757,0,0,1,2.969,1.25,5,5,0,0,1,1.1,3.422,4.961,4.961,0,0,1-1.1,3.41A3.771,3.771,0,0,1,586.016.242Zm0-8.148a2.323,2.323,0,0,0-1.961.9,4.22,4.22,0,0,0-.687,2.6,4.175,4.175,0,0,0,.688,2.578,2.323,2.323,0,0,0,1.961.9,2.323,2.323,0,0,0,1.961-.9,4.175,4.175,0,0,0,.688-2.578Q588.664-7.906,586.016-7.906Zm8.57,8.117a6.858,6.858,0,0,1-3.109-.727V-2.109h.055a5.251,5.251,0,0,0,3.133,1.172q2.18,0,2.18-1.375a1.148,1.148,0,0,0-.289-.836,2.576,2.576,0,0,0-1.2-.508q-.766-.148-1.758-.383a2.942,2.942,0,0,1-1.535-.824,2.145,2.145,0,0,1-.543-1.512,2.329,2.329,0,0,1,.953-1.918,4.02,4.02,0,0,1,2.547-.746A6.2,6.2,0,0,1,597.9-8.4v1.516h-.055a4.8,4.8,0,0,0-2.9-1.008,2.763,2.763,0,0,0-1.492.348,1.086,1.086,0,0,0-.547.965,1.123,1.123,0,0,0,.293.836,2.667,2.667,0,0,0,1.168.508l1.727.375a2.976,2.976,0,0,1,1.609.824,2.176,2.176,0,0,1,.539,1.527,2.355,2.355,0,0,1-.992,1.965A4.3,4.3,0,0,1,594.586.211ZM611.445,0V-4.945a5.9,5.9,0,0,0-.2-1.91,1.359,1.359,0,0,0-.609-.7,2.153,2.153,0,0,0-1.035-.223,4.3,4.3,0,0,0-2.523,1.18,9.381,9.381,0,0,1,.047,1.039V0H605.75V-4.945a5.921,5.921,0,0,0-.2-1.934,1.354,1.354,0,0,0-.6-.684,2.119,2.119,0,0,0-1.02-.219,4.092,4.092,0,0,0-2.492,1.141V0h-1.375V-8.828h1.375v1.063a4.75,4.75,0,0,1,2.969-1.312,2.407,2.407,0,0,1,2.438,1.445,5.126,5.126,0,0,1,3.234-1.445q2.742,0,2.742,3.328V0Zm4.727-5.328h5.18q-.063-2.633-2.414-2.633a2.663,2.663,0,0,0-1.922.7A2.925,2.925,0,0,0,616.172-5.328ZM619.4.2A4.675,4.675,0,0,1,615.98-.988a4.508,4.508,0,0,1-1.215-3.371A4.914,4.914,0,0,1,615.93-7.8a3.974,3.974,0,0,1,3.086-1.277,3.508,3.508,0,0,1,2.715,1.047,4.246,4.246,0,0,1,.965,2.984v.758h-6.523a3.3,3.3,0,0,0,.863,2.449,3.243,3.243,0,0,0,2.387.855,5.281,5.281,0,0,0,3.031-1.055h.063V-.547A8.834,8.834,0,0,1,619.4.2Zm15.453.039a4.978,4.978,0,0,1-3.937-1.621,6.579,6.579,0,0,1-1.43-4.5,6.585,6.585,0,0,1,1.434-4.5,4.969,4.969,0,0,1,3.934-1.629,4.978,4.978,0,0,1,3.941,1.629,6.585,6.585,0,0,1,1.434,4.5,6.573,6.573,0,0,1-1.434,4.5A4.978,4.978,0,0,1,634.852.242Zm.008-11.016a3.423,3.423,0,0,0-2.844,1.281A5.681,5.681,0,0,0,631-5.883a5.664,5.664,0,0,0,1.016,3.605A3.427,3.427,0,0,0,634.859-1,3.419,3.419,0,0,0,637.7-2.277a5.664,5.664,0,0,0,1.016-3.605A5.675,5.675,0,0,0,637.7-9.5,3.423,3.423,0,0,0,634.859-10.773ZM646.008.211a10.117,10.117,0,0,1-4.164-.984V-2.547h.1a6.116,6.116,0,0,0,4.078,1.531,3.728,3.728,0,0,0,2.207-.574,1.79,1.79,0,0,0,.8-1.527,1.777,1.777,0,0,0-.34-1.152,2.274,2.274,0,0,0-1.184-.652l-2.625-.531a4.1,4.1,0,0,1-2.215-1.105,2.914,2.914,0,0,1-.754-2.082,2.952,2.952,0,0,1,1.172-2.4,4.715,4.715,0,0,1,3.055-.945,9.7,9.7,0,0,1,3.938.867v1.711h-.109a5.8,5.8,0,0,0-3.828-1.352,3.281,3.281,0,0,0-1.965.539A1.667,1.667,0,0,0,643.43-8.8q0,1.461,1.7,1.883.984.18,2.191.449a6.818,6.818,0,0,1,1.727.563,3.136,3.136,0,0,1,.844.668,2.513,2.513,0,0,1,.484.852,3.3,3.3,0,0,1,.16,1.055A3.136,3.136,0,0,1,649.3-.8,5.061,5.061,0,0,1,646.008.211ZM658.672-4.57l-2.117-5.8-2.109,5.8ZM660.32,0l-1.211-3.359H654L652.789,0h-1.477l4.359-11.773h1.852L661.875,0Zm12.219,0h-1.914L666-5.273l-1.086,1.117V0h-1.453V-11.773h1.453v6.1l5.6-6.1H672.3l-5.2,5.555Zm7.547-4.57-2.117-5.8-2.109,5.8ZM681.734,0l-1.211-3.359h-5.109L674.2,0h-1.477l4.359-11.773h1.852L683.289,0ZM14.453,17.836H10.539a7.671,7.671,0,0,0-2.785,2.23A5.205,5.205,0,0,0,6.4,23.438a3.5,3.5,0,0,0,.719,2.254,4.118,4.118,0,0,0,1.922,1.32,9.955,9.955,0,0,0,3.188.418q.461,0,.945-.023l-.078,1.156h-.039q-1.445,0-2.4-.051a8.141,8.141,0,0,1-2.008-.383,5.326,5.326,0,0,1-1.859-1.012,4.314,4.314,0,0,1-1.2-1.57A4.97,4.97,0,0,1,5.2,23.531a5.855,5.855,0,0,1,.957-3.113A8.684,8.684,0,0,1,8.688,17.8H.852V16.766h13.6Zm.336,2.852-.9.367A15.967,15.967,0,0,0,12.773,18.9l.828-.406A21.226,21.226,0,0,1,14.789,20.688Zm-2.273.477-.9.406a18.906,18.906,0,0,0-1.133-2.2l.844-.383A16.968,16.968,0,0,1,12.516,21.164ZM24.344,28.32l-.3-1.055a8.809,8.809,0,0,0,4.3-1.461,4.188,4.188,0,0,0,1.785-3.687,4.149,4.149,0,0,0-1.441-3.383,6.408,6.408,0,0,0-4.02-1.266,16.219,16.219,0,0,1-1.508,7.016Q21.734,27.3,19.594,27.3a2.392,2.392,0,0,1-2.09-1.129,4.809,4.809,0,0,1-.762-2.754A6.43,6.43,0,0,1,19.055,18.6a7.8,7.8,0,0,1,5.477-2.137,7.8,7.8,0,0,1,4.906,1.488,4.857,4.857,0,0,1,1.93,4.066,5.412,5.412,0,0,1-1.945,4.492A9.138,9.138,0,0,1,24.344,28.32Zm-.906-10.75a6.65,6.65,0,0,0-3.9,2.051,5.437,5.437,0,0,0-1.633,3.855,3.69,3.69,0,0,0,.477,1.934,1.479,1.479,0,0,0,1.328.793q1.461,0,2.547-2.73A17.224,17.224,0,0,0,23.438,17.57ZM39.906,28.094l.289-.961a5.58,5.58,0,0,0,2,.359,3.54,3.54,0,0,0,2.3-.68,2.6,2.6,0,0,0-.289-4.047,5.8,5.8,0,0,0-3.133-.719,11.288,11.288,0,0,0-2.6.3v4.7q0,1.5-2.273,1.5a3.626,3.626,0,0,1-2.293-.77,2.371,2.371,0,0,1-.988-1.949,3.319,3.319,0,0,1,1.23-2.437,8.262,8.262,0,0,1,3.074-1.75V18.945H33.328V17.922h3.859V15.391h1.281V17.8h4.078v1.023H38.469V21.3a12.246,12.246,0,0,1,2.578-.273,7.272,7.272,0,0,1,3.938,1A3.121,3.121,0,0,1,46.578,24.8a3.547,3.547,0,0,1-1.113,2.781,4.352,4.352,0,0,1-3.02,1A5.53,5.53,0,0,1,39.906,28.094ZM37.25,22.719a7.432,7.432,0,0,0-2.258,1.352,2.311,2.311,0,0,0-.914,1.688,1.412,1.412,0,0,0,.668,1.262,2.675,2.675,0,0,0,1.488.434q1.016,0,1.016-.719Zm10.242-3.391-1.008.719a18.021,18.021,0,0,0-3.828-3.484l.82-.727a18.68,18.68,0,0,1,2.152,1.645A16.442,16.442,0,0,1,47.492,19.328Zm1.734-.969V15.227h13.4v3.133Zm4.1-.8V16.008H50.422v1.555Zm1.094-1.555v1.555h3.031V16.008Zm7.016,0H58.547v1.555h2.891ZM50.32,26.391V19.359H61.57v7.031Zm1.2-5.062h8.844V20.2H51.516Zm0,2.039h8.844v-1.2H51.516Zm8.844.836H51.516v1.289h8.844Zm2.25,4.75a21.016,21.016,0,0,1-4.93-1.539l.688-.859a18.93,18.93,0,0,0,4.813,1.422Zm-13.562,0-.375-.883a21.4,21.4,0,0,0,2.547-.652,10.374,10.374,0,0,0,2.094-.848l.828.8a11.005,11.005,0,0,1-2.375.957A18.585,18.585,0,0,1,49.047,28.953Zm22.828-5.078a13.9,13.9,0,0,1-.84,1.813,10.6,10.6,0,0,1-1.172,1.785,1.658,1.658,0,0,1-1.238.715,1.3,1.3,0,0,1-.7-.187,4.242,4.242,0,0,1-.8-.727,5.374,5.374,0,0,1-.9-1.48,9.215,9.215,0,0,1-.605-1.973,10.78,10.78,0,0,1-.2-2.008,23.824,23.824,0,0,1,.18-2.477q.188-1.68.2-2.453h1.313q-.031.7-.25,2.453a21.077,21.077,0,0,0-.2,2.469,9.594,9.594,0,0,0,.285,2.441,5.846,5.846,0,0,0,.828,1.863q.543.781.793.781.406,0,1.094-1.113a17.777,17.777,0,0,0,1.234-2.4Zm7.148,2.3-1.312.039V26.07a13.781,13.781,0,0,0-.75-4.5,12.7,12.7,0,0,0-2.141-3.906l.961-.609A13.576,13.576,0,0,1,79.023,26.172Zm6.867.547-.734-.586a14.415,14.415,0,0,0,2.352-3.641,18.014,18.014,0,0,0,1.477-4.484H87.859A14.568,14.568,0,0,1,86.344,20.6l-.867-.523a14.711,14.711,0,0,0,2.2-5.336l1.2.164a12.147,12.147,0,0,1-.672,2.25h6.578v5.063a29.634,29.634,0,0,1-.16,3.285,8.9,8.9,0,0,1-.383,1.988,2,2,0,0,1-.621.879,2.027,2.027,0,0,1-.77.395,11.078,11.078,0,0,1-1.816.086q-.367,0-.594-.008l-.18-1.047h1.633a1.26,1.26,0,0,0,.949-.406,3.562,3.562,0,0,0,.563-1.848,28.156,28.156,0,0,0,.176-3.363V18.008h-.82a21.118,21.118,0,0,1-1.73,6.422,13.058,13.058,0,0,1-3,4.383l-.75-.641a14.269,14.269,0,0,0,2.836-4.492,20.1,20.1,0,0,0,1.531-5.672H90.1a17.929,17.929,0,0,1-1.488,4.6A14.991,14.991,0,0,1,85.891,26.719Zm-5.156-2.2-.359-1.008q.82-.18,2.938-.9V18.953H81.922a10.584,10.584,0,0,1-.656,2.3l-.977-.3a12.259,12.259,0,0,0,.563-2.285,18.315,18.315,0,0,0,.258-2.957l1.156.016q-.047,1.2-.2,2.336h1.25V14.82H84.5v3.234h1.258v.9H84.5V22.2q.984-.352,1.586-.6l.242.867a13.385,13.385,0,0,1-1.828.8v5.781H83.313V23.688Q81.742,24.227,80.734,24.516Zm19.141,3.641-1.117.258a18.583,18.583,0,0,1-.8-5.578,26.18,26.18,0,0,1,1.07-7.078l1.2.211a23.814,23.814,0,0,0-1.078,6.93A18.641,18.641,0,0,0,99.875,28.156Zm10.578-10.32q-1.242-.023-2.344-.023-1.617,0-5.852.219,0-.352-.047-1.055,4.023-.234,6.539-.234,1.25,0,1.664.023v.07Q110.414,17.2,110.453,17.836Zm.094,9.938a30.518,30.518,0,0,1-3.2.172,15.268,15.268,0,0,1-3.246-.254,3.2,3.2,0,0,1-1.629-.84,2.1,2.1,0,0,1-.555-1.508,4.676,4.676,0,0,1,1.172-2.836l.906.484a3.331,3.331,0,0,0-.961,2.281,1.16,1.16,0,0,0,.52.984,3.075,3.075,0,0,0,1.391.5,19.161,19.161,0,0,0,2.473.121,25.191,25.191,0,0,0,3.125-.187Zm16.063-9.937H122.7a7.64,7.64,0,0,0-2.781,2.23,5.213,5.213,0,0,0-1.352,3.371,3.5,3.5,0,0,0,.719,2.254,4.119,4.119,0,0,0,1.918,1.32,9.948,9.948,0,0,0,3.191.418q.453,0,.938-.023l-.078,1.156h-.039q-1.445,0-2.395-.051a8.186,8.186,0,0,1-2.008-.383,5.32,5.32,0,0,1-1.863-1.012,4.314,4.314,0,0,1-1.2-1.57,4.97,4.97,0,0,1-.391-2.016,5.838,5.838,0,0,1,.961-3.113,8.764,8.764,0,0,1,2.523-2.613h-7.836V16.766h13.6Zm9.3,10.258.289-.961a5.58,5.58,0,0,0,2,.359,3.54,3.54,0,0,0,2.3-.68,2.6,2.6,0,0,0-.289-4.047,5.8,5.8,0,0,0-3.133-.719,11.288,11.288,0,0,0-2.6.3v4.7q0,1.5-2.273,1.5a3.626,3.626,0,0,1-2.293-.77,2.371,2.371,0,0,1-.988-1.949,3.319,3.319,0,0,1,1.23-2.437,8.262,8.262,0,0,1,3.074-1.75V18.945h-3.891V17.922h3.859V15.391h1.281V17.8h4.078v1.023h-4.078V21.3a12.246,12.246,0,0,1,2.578-.273,7.272,7.272,0,0,1,3.938,1,3.121,3.121,0,0,1,1.594,2.781,3.547,3.547,0,0,1-1.113,2.781,4.352,4.352,0,0,1-3.02,1A5.53,5.53,0,0,1,135.906,28.094Zm-2.656-5.375a7.432,7.432,0,0,0-2.258,1.352,2.311,2.311,0,0,0-.914,1.688,1.412,1.412,0,0,0,.668,1.262,2.675,2.675,0,0,0,1.488.434q1.016,0,1.016-.719Zm10.242-3.391-1.008.719a18.02,18.02,0,0,0-3.828-3.484l.82-.727a18.68,18.68,0,0,1,2.152,1.645A16.442,16.442,0,0,1,143.492,19.328Zm15.766,9.609a18.235,18.235,0,0,1-6.234-2.172,7.292,7.292,0,0,1-4.18,2.227l-.328-.867a6.664,6.664,0,0,0,3.523-1.977,16.088,16.088,0,0,1-2.172-1.742l.773-.641a11.343,11.343,0,0,0,2.008,1.6,4.854,4.854,0,0,0,.641-2.023H149.4V18.672h3.961v-1.5h-4.367v-.93h4.367V14.68h1.227v1.563h4.734v.93h-4.734v1.5h4.031v4.672h-4.1a5.843,5.843,0,0,1-.844,2.578l-.016.031a18.742,18.742,0,0,0,6.117,1.992Zm-1.828-9.414h-2.844V21.7q0,.547-.008.766h2.852Zm-4.07,0h-2.773v2.938h2.766q.008-.219.008-.9ZM146.5,29.008V20.75a17.27,17.27,0,0,1-1.68,2.547l-.719-.656a21.657,21.657,0,0,0,2.129-3.793,22.353,22.353,0,0,0,1.441-4.09l1.242.2a24.62,24.62,0,0,1-1.6,4.3h.375v9.758Zm21.375-5.133a13.9,13.9,0,0,1-.84,1.813,10.6,10.6,0,0,1-1.172,1.785,1.658,1.658,0,0,1-1.238.715,1.3,1.3,0,0,1-.7-.187,4.242,4.242,0,0,1-.8-.727,5.374,5.374,0,0,1-.9-1.48,9.215,9.215,0,0,1-.605-1.973,10.781,10.781,0,0,1-.2-2.008,23.821,23.821,0,0,1,.18-2.477q.188-1.68.2-2.453h1.313q-.031.7-.25,2.453a21.079,21.079,0,0,0-.2,2.469,9.594,9.594,0,0,0,.285,2.441,5.846,5.846,0,0,0,.828,1.863q.543.781.793.781.406,0,1.094-1.113a17.777,17.777,0,0,0,1.234-2.4Zm7.148,2.3-1.312.039V26.07a13.781,13.781,0,0,0-.75-4.5,12.7,12.7,0,0,0-2.141-3.906l.961-.609A13.576,13.576,0,0,1,175.023,26.172Zm8.852-2.3a13.9,13.9,0,0,1-.84,1.813,10.6,10.6,0,0,1-1.172,1.785,1.658,1.658,0,0,1-1.238.715,1.3,1.3,0,0,1-.7-.187,4.242,4.242,0,0,1-.8-.727,5.374,5.374,0,0,1-.9-1.48,9.215,9.215,0,0,1-.605-1.973,10.781,10.781,0,0,1-.2-2.008,23.821,23.821,0,0,1,.18-2.477q.188-1.68.2-2.453h1.313q-.031.7-.25,2.453a21.079,21.079,0,0,0-.2,2.469,9.594,9.594,0,0,0,.285,2.441,5.846,5.846,0,0,0,.828,1.863q.543.781.793.781.406,0,1.094-1.113a17.777,17.777,0,0,0,1.234-2.4Zm7.148,2.3-1.312.039V26.07a13.781,13.781,0,0,0-.75-4.5,12.7,12.7,0,0,0-2.141-3.906l.961-.609A13.576,13.576,0,0,1,191.023,26.172Zm6.563-10.922q0,.875-.078,2.094h5.68v1.039h-5.766a24.427,24.427,0,0,1-1.328,5.945,14.715,14.715,0,0,1-2.125,4.25l-.93-.609a16.768,16.768,0,0,0,2.035-4.316,22.5,22.5,0,0,0,1.113-5.27h-2.844V17.344h2.914q.047-1.008.047-2.094Zm8.914,4.625-.016,1.023q-.383-.016-.7-.016-2.8,0-6.148.32l-.078-1.031a57.88,57.88,0,0,1,6.039-.32Q206.117,19.852,206.5,19.875ZM206.961,28a21.034,21.034,0,0,1-3.359.211,20.585,20.585,0,0,1-2.809-.148,2.965,2.965,0,0,1-1.605-.68,1.685,1.685,0,0,1-.586-1.3,3.109,3.109,0,0,1,.891-2.1l.875.492a2.494,2.494,0,0,0-.57,1.477.981.981,0,0,0,.527.836,7.256,7.256,0,0,0,3,.352,29.121,29.121,0,0,0,3.578-.211Zm6.625-12.75q0,.875-.078,2.094h5.617v1.039h-5.7a24.427,24.427,0,0,1-1.328,5.945,14.715,14.715,0,0,1-2.125,4.25l-.93-.609a16.768,16.768,0,0,0,2.035-4.316,22.5,22.5,0,0,0,1.113-5.27h-2.844V17.344h2.914q.047-1.008.047-2.094Zm8.914,4.625-.016,1.023q-.383-.016-.7-.016-2.8,0-6.148.32l-.078-1.031a57.88,57.88,0,0,1,6.039-.32Q222.117,19.852,222.5,19.875ZM222.961,28a21.034,21.034,0,0,1-3.359.211,20.585,20.585,0,0,1-2.809-.148,2.965,2.965,0,0,1-1.605-.68,1.685,1.685,0,0,1-.586-1.3,3.109,3.109,0,0,1,.891-2.1l.875.492a2.494,2.494,0,0,0-.57,1.477.981.981,0,0,0,.527.836,7.256,7.256,0,0,0,3,.352,29.121,29.121,0,0,0,3.578-.211Zm-.078-11.492-.9.367a14.855,14.855,0,0,0-1.117-2.156l.828-.4A20.475,20.475,0,0,1,222.883,16.508Zm-2.273.484-.9.4a17.411,17.411,0,0,0-1.133-2.2l.852-.383A17.3,17.3,0,0,1,220.609,16.992Zm11.773,11.7-.492-.914a4.979,4.979,0,0,0,2.508-1.867,5.864,5.864,0,0,0,.8-3.25V19.8h-5.211V18.75H235.2V15.6h1.227V18.75h3.133V19.8h-3.133v2.977Q236.422,27.352,232.383,28.688Zm-2.586-4.7a16.061,16.061,0,0,0-2.18,4.141l-.961-.062a16.384,16.384,0,0,1-.945-5.594,28.424,28.424,0,0,1,.9-6.531l1.234.219a26.538,26.538,0,0,0-.953,6.258,18.48,18.48,0,0,0,.375,3.8q.969-1.633,1.68-2.711Zm24.672,2.828-.672,1.039a18.666,18.666,0,0,0-4.7-2.445v1.156q0,2.016-3.719,2.016a4.891,4.891,0,0,1-2.547-.637,1.951,1.951,0,0,1-1.07-1.746,2.09,2.09,0,0,1,1.016-1.824,4.313,4.313,0,0,1,2.445-.676,10.616,10.616,0,0,1,2.625.289v-2.3h-5.922V20.656h5.922V18.273h-6.336V17.25h6.336V15.57h1.211v1.68h5.8v1.023h-5.8v2.383h5.125V21.68h-5.125v2.578A28.956,28.956,0,0,1,254.469,26.813Zm-6.594-.656v-1.1a7.856,7.856,0,0,0-2.648-.367,3.3,3.3,0,0,0-1.586.391,1.164,1.164,0,0,0-.727,1.031,1.119,1.119,0,0,0,.73,1.035,4.177,4.177,0,0,0,1.832.355A4.873,4.873,0,0,0,247,27.328a1.631,1.631,0,0,0,.672-.4A1.174,1.174,0,0,0,247.875,26.156Zm17.234-4.844a1.877,1.877,0,0,0-1.859-.883,1.686,1.686,0,0,0-1.227.57,1.853,1.853,0,0,0-.109,2.477,1.48,1.48,0,0,0,1.148.461,1.9,1.9,0,0,0,1.473-.6,2.333,2.333,0,0,0,.574-1.578Zm6.172-3.172h-4.93v3.008a5.041,5.041,0,0,1,.516,2.484A4.552,4.552,0,0,1,265.34,27.1a5.9,5.9,0,0,1-3.754,1.543l-.32-.977a5.086,5.086,0,0,0,3.152-1.289,3.712,3.712,0,0,0,1.277-2.867,3.983,3.983,0,0,0-.031-.523,2.289,2.289,0,0,1-.914,1.426,2.868,2.868,0,0,1-1.727.52,2.753,2.753,0,0,1-1.93-.723,2.359,2.359,0,0,1-.789-1.816,2.77,2.77,0,0,1,.887-2.1,3.045,3.045,0,0,1,2.176-.84,2.8,2.8,0,0,1,1.727.57V18.141h-7.828V17.117h7.828V15.25h1.258v1.867h4.93Zm2.063,8.469a1.955,1.955,0,0,1,.617-1.453,2.151,2.151,0,0,1,2.984,0,2.019,2.019,0,0,1,0,2.906,2.151,2.151,0,0,1-2.984,0A1.955,1.955,0,0,1,273.344,26.609Zm.914,0a1.2,1.2,0,1,0,.352-.844A1.151,1.151,0,0,0,274.258,26.609Z" transform="translate(2171 1836.549)" fill="#333"/></g></svg>