<svg xmlns="http://www.w3.org/2000/svg" xmlns:xlink="http://www.w3.org/1999/xlink" width="732.184" height="460.889" viewBox="0 0 732.184 460.889"><defs><clipPath id="a"><path d="M0,0H732.184V232.088H0Z" transform="translate(0 0)" fill="#fff"/></clipPath></defs><g transform="translate(-236 -6197.923)"><g transform="translate(236 6197.923)"><g transform="translate(272.423 40.753)"><path d="M-18.224-4.394H-46.933V15.343h-7.562V-28.54h43.73V9.371A4.648,4.648,0,0,1-12.79,13.28a7.831,7.831,0,0,1-4.793,1.5h-8.151l-.82-6.741h6.665q1.666,0,1.666-1.41Zm-10.971-5.972h10.971V-22.491H-29.195Zm-17.738,0h10.279V-22.491H-46.933ZM19.2-9.264Q18.507.528,13.265,6.487a29.465,29.465,0,0,1-13.778,8.6l-3.2-5.665q14.765-5.2,15.405-18.686H4.665V-11.52A60.872,60.872,0,0,1-.846-7.213L-5.2-11.9A47.552,47.552,0,0,0,5.178-21.876Q9.869-27.9,11.33-32l7.254,1.717A52.849,52.849,0,0,1,8.562-15.211h23.4a47.013,47.013,0,0,1-9.279-15.123L29.4-32.359a47.185,47.185,0,0,0,7.241,11.407,58.55,58.55,0,0,0,10.087,8.792L41.218-6.6,38.475-8.957a120.136,120.136,0,0,1-.654,13.624q-.654,5.6-3.089,7.767a9.1,9.1,0,0,1-6.28,2.166H19.225L18.174,8.038H26.3a3.789,3.789,0,0,0,3.653-2.256Q31.067,3.527,31.067-7.06v-2.2ZM72.925,14.7l-1.9-6.408Q81.2,7.167,86.331,3.6T91.457-7.034a12.617,12.617,0,0,0-3.691-9.5q-3.691-3.576-10.228-4.191Q77-6.368,72.169,2.54T60.006,11.447q-4.768,0-7.715-4.5A18.354,18.354,0,0,1,49.342-3.343v-.641q0-8.869,7.139-15.7t18.007-7.344h1.051q10.381,0,17.059,5.268T99.275-7.444q0,9.92-6.729,15.534T72.925,14.7ZM70.336-19.979a18.189,18.189,0,0,0-9.8,6.049A15.515,15.515,0,0,0,56.494-3.574a14.17,14.17,0,0,0,1,5.383q1,2.461,2.794,2.461,3.614,0,6.562-7.023A51.7,51.7,0,0,0,70.336-19.979Z" transform="translate(330.082 61.565)" fill="#333" style="mix-blend-mode:darken;isolation:isolate"/><path d="M-105.682,0h-15.093V-56.88a52.031,52.031,0,0,1-19.5,11.44v-13.7a43.648,43.648,0,0,0,12.837-7.332,27.859,27.859,0,0,0,9.507-12.6h12.246ZM-65.31-79.062q11.44,0,17.886,8.164,7.681,9.668,7.681,32.065,0,22.344-7.734,32.119Q-53.87,1.343-65.31,1.343a22.534,22.534,0,0,1-18.53-8.835q-7.036-8.835-7.036-31.5,0-22.236,7.734-32.012Q-76.751-79.062-65.31-79.062Zm0,12.515A7.54,7.54,0,0,0-70.2-64.8q-2.148,1.746-3.33,6.257-1.558,5.854-1.558,19.712t1.4,19.041q1.4,5.183,3.518,6.9a7.506,7.506,0,0,0,4.861,1.719,7.54,7.54,0,0,0,4.888-1.746q2.148-1.746,3.33-6.257,1.558-5.8,1.558-19.658t-1.4-19.041q-1.4-5.183-3.518-6.929A7.435,7.435,0,0,0-65.31-66.548ZM-34.5-15.093h15.093V-4.3A37.632,37.632,0,0,1-20.535,6.042a15.445,15.445,0,0,1-4.27,6.794,22.007,22.007,0,0,1-7.976,4.727l-2.954-6.23q4.565-1.5,6.5-4.136A12.438,12.438,0,0,0-27.195,0h-7.3Zm45.528-63.97q11.44,0,17.886,8.164,7.681,9.668,7.681,32.065,0,22.344-7.734,32.119Q22.468,1.343,11.028,1.343A22.534,22.534,0,0,1-7.5-7.493q-7.036-8.835-7.036-31.5,0-22.236,7.734-32.012Q-.413-79.062,11.028-79.062Zm0,12.515A7.54,7.54,0,0,0,6.14-64.8q-2.148,1.746-3.33,6.257Q1.253-52.69,1.253-38.833t1.4,19.041q1.4,5.183,3.518,6.9a7.506,7.506,0,0,0,4.861,1.719,7.54,7.54,0,0,0,4.888-1.746q2.148-1.746,3.33-6.257,1.558-5.8,1.558-19.658t-1.4-19.041q-1.4-5.183-3.518-6.929A7.435,7.435,0,0,0,11.028-66.548ZM64.5-79.062q11.44,0,17.886,8.164,7.681,9.668,7.681,32.065,0,22.344-7.734,32.119Q75.945,1.343,64.5,1.343a22.534,22.534,0,0,1-18.53-8.835q-7.036-8.835-7.036-31.5,0-22.236,7.734-32.012Q53.064-79.062,64.5-79.062Zm0,12.515A7.54,7.54,0,0,0,59.617-64.8q-2.148,1.746-3.33,6.257-1.558,5.854-1.558,19.712t1.4,19.041q1.4,5.183,3.518,6.9A7.506,7.506,0,0,0,64.5-11.172a7.54,7.54,0,0,0,4.888-1.746q2.148-1.746,3.33-6.257,1.558-5.8,1.558-19.658t-1.4-19.041q-1.4-5.183-3.518-6.929A7.434,7.434,0,0,0,64.5-66.548Zm53.477-12.515q11.44,0,17.886,8.164,7.681,9.668,7.681,32.065,0,22.344-7.734,32.119-6.392,8.057-17.832,8.057a22.534,22.534,0,0,1-18.53-8.835q-7.036-8.835-7.036-31.5,0-22.236,7.734-32.012Q106.541-79.062,117.981-79.062Zm0,12.515a7.54,7.54,0,0,0-4.888,1.746q-2.148,1.746-3.33,6.257-1.558,5.854-1.558,19.712t1.4,19.041q1.4,5.183,3.518,6.9a7.506,7.506,0,0,0,4.861,1.719,7.54,7.54,0,0,0,4.888-1.746q2.148-1.746,3.33-6.257,1.558-5.8,1.558-19.658t-1.4-19.041q-1.4-5.183-3.518-6.929A7.434,7.434,0,0,0,117.981-66.548Z" transform="translate(125.849 80.283)" fill="#cb4153" style="mix-blend-mode:darken;isolation:isolate"/></g><g transform="translate(0 0)" clip-path="url(#a)"><path d="M134.694,0A134.694,134.694,0,1,1,0,134.694,134.694,134.694,0,0,1,134.694,0Z" transform="translate(-37.3 -37.3)" fill="#cb4153"/></g><path d="M-27.46-4.565q-1.3.546-3.8,1.315V7.576a3.694,3.694,0,0,1-1.275,3.005,4.949,4.949,0,0,1-3.278,1.062H-40.35l-.607-4.594h3.1q1.376,0,1.376-1.214V-1.793L-40.634-.741l-1.032-4.735q1.983-.364,5.181-1.093v-7.143h-4.351V-17.9h4.351v-6.84h5.221v6.84h3.238v4.189h-3.238v5.869q2.307-.607,3.359-.992ZM-9.126,9.782H-21.611v1.437h-5.261v-28.21h8.783V-24.7h5.525v7.71H-3.7v28.21H-9.126Zm-8.965-22.5h-3.521v6.658h3.521Zm8.965,6.658v-6.658h-3.44v6.658Zm-3.44,11.515,3.44-.02V-2h-3.44Zm-9.046.02,3.521-.02V-2h-3.521Zm33.248-21.9-5.1,2.246Q5.97-15.392,4.2-18.306T1.437-22.6L6.071-24.66A73.469,73.469,0,0,1,11.636-16.424Zm12.526,18.7A19.359,19.359,0,0,1,19.387,4.7a31.224,31.224,0,0,1-5.444,1.6L12.567,2.78A32.339,32.339,0,0,0,19.185.413H11.8V-3.23H17.5V-5.274H12.587v-3.44H17.5v-1.578q-.971-.04-2.327-.121a2.88,2.88,0,0,1-2.054-.85,3.171,3.171,0,0,1-.7-2.206v-5.808h7.366v-2.145H12.324v-3.116H23.738v7.832H16.473V-14.5a.651.651,0,0,0,.374.668,7.649,7.649,0,0,0,2.115.162q.3,0,1.245-.051t1.093-.5A6.652,6.652,0,0,0,21.451-16l3.359.283v2.327a2.634,2.634,0,0,1-2.327,2.874v1.8h5.646v-1.821a2.7,2.7,0,0,1-2.044-2.934v-5.808h7.791v-2.145H26v-3.116H37.9v7.832H30.153V-14.5a.651.651,0,0,0,.374.668,7.53,7.53,0,0,0,2.094.162q1.234,0,1.922-.051t.84-.5A6.652,6.652,0,0,0,35.536-16l3.359.283v2.327a2.915,2.915,0,0,1-.729,2.135,3.608,3.608,0,0,1-2.408.84l-2.752.142v1.558h5.1v3.44h-5.1V-3.23h6.051V.413H31.731a35.251,35.251,0,0,0,7.2,2.611L36.77,6.848A27.144,27.144,0,0,1,31.7,5.037,26.75,26.75,0,0,1,27.016,2.4L28.858.413H22.483Zm-1.68-7.548V-3.23h5.646V-5.274ZM40.595,6.787l-.911,4.229q-.324,0-13.417.1a64.948,64.948,0,0,1-12.85-.89A9,9,0,0,1,8.722,7.05a27.165,27.165,0,0,1-6.5,4.675L.365,6.868A16.876,16.876,0,0,0,5.323,3.974V-6.63H1.356v-4.31h9.187V2.74a3.051,3.051,0,0,0,.749,2.074A5.106,5.106,0,0,0,13.346,6.18a15.012,15.012,0,0,0,4.219.668q2.914.162,8.985.162Q38.187,7.01,40.595,6.787Zm36.04-.87-.283,5.464q-2.206.061-2.934.061-7.467,0-11.636-2.094a14.14,14.14,0,0,1-5.97-5.059,12.738,12.738,0,0,1-1.8-6.749q0-7.407,7.305-13.639l-17.99.182V-21.1H79.408v5.221H70.119a19.865,19.865,0,0,0-7.224,5.686A11.973,11.973,0,0,0,60.061-2.7q0,8.742,13.3,8.742Q74.895,6.039,76.635,5.917ZM80.6-8.673,77.687-7.6q-1.417-3.521-2.772-6.213l2.772-1.032Q79.347-11.668,80.6-8.673ZM74.834-7.5,71.839-6.387q-.83-2.1-2.732-6.213l2.874-1.133A65.264,65.264,0,0,1,74.834-7.5ZM-53.95,37.52V31.534h22.04v4.679a34.679,34.679,0,0,0-5.55,7.706,44.933,44.933,0,0,0-4.3,10.676,39.591,39.591,0,0,0-1.456,10.1h-6.215a43.2,43.2,0,0,1,2.878-14.22A47.385,47.385,0,0,1-39.295,37.52Zm57.142,27.6H-12.876V66.7h-5.767V56.218q-3.582,1.842-7.042,3.3l-2.57-4.169a77.345,77.345,0,0,0,13.983-7.224Q-16.114,46.788-20.06,44a64.409,64.409,0,0,1-5.464,3.46l-3.157-3.764a53.023,53.023,0,0,0,10.23-7.548,38.4,38.4,0,0,0,5.7-6.658l5.707,1.194a25.824,25.824,0,0,1-1.781,2.772H2.989l2.368,2Q1.39,42.619-7.028,49.115H9V66.7H3.191ZM-15.932,40.839q3.541,2.226,6.051,4.007a43.046,43.046,0,0,0,7.022-7.123h-9.653Q-14.05,39.26-15.932,40.839Zm3.056,19.812H3.191V53.507H-12.876Zm32.4-7a36.517,36.517,0,0,1-2.975,5.181l-2.955-3.035a37.9,37.9,0,0,0,3.6-6.749,33.555,33.555,0,0,0,2.266-7.012H15.413V37.925h4.108V30.093h5.059v7.832h2.611v4.108H24.581v2.55a25.58,25.58,0,0,0,3.4,3.379V45.716h9.491v-1.6H28.85V40.333h8.621v-1.74H28.1V34.444h4.412L31,31.348l4.857-1.376,2.125,4.472h4.715l2.186-4.432,5.14,1.376L48.1,34.444h4.371v4.148H42.935v1.74h8.54v3.784h-8.54v1.6H53.094v4.148H42.935v.688a16.215,16.215,0,0,0,2.145,3.541,33.533,33.533,0,0,0,5.039-4.148l3.724,2.914a56.248,56.248,0,0,1-5.707,4.391,40.436,40.436,0,0,0,6.334,4.715l-3.541,4.148a30.028,30.028,0,0,1-7.993-7.751V63.1a3.193,3.193,0,0,1-1.3,2.621,5.033,5.033,0,0,1-3.218,1.022H33.646l-.607-4.857h3.4q1.032,0,1.032-.992V49.864H33a50.116,50.116,0,0,1,3.258,4.816l-4.391,2.064q-1.477-2.428-3.683-5.707l2.428-1.174H27.98v-.486L26.645,52.11a15.211,15.211,0,0,1-2.064-2.044V67.025H19.521ZM37.39,59.537A94.379,94.379,0,0,1,27.7,64.293l-1.882-4.31a85.114,85.114,0,0,0,10.361-4.391Zm30.172-27a60.584,60.584,0,0,0-2.57,15.643,62.956,62.956,0,0,0,2.266,16.9l-5.585,1.275a65.788,65.788,0,0,1-2.186-16.533,74.1,74.1,0,0,1,2.388-18.071Zm25.7,6.961-1.7-.02q-2.651-.04-8.8.1T70.84,40.13V35.193q13.68-.668,18.941-.668,2.1,0,3.481.121Zm.445,25.356q-4.958.465-8.479.465-8.884,0-12.122-2.054a6.547,6.547,0,0,1-3.238-5.858q0-4.391,4.148-8.661l4.472,2.388q-3.258,3.035-3.258,6.091a2.545,2.545,0,0,0,1.7,2.277q1.7.84,7.042.84,2.712,0,9.531-.587Z" transform="translate(89.937 91.41)" fill="#fff"/><path d="M14.6,3.326a1.91,1.91,0,0,1,.583-1.4,1.972,1.972,0,0,1,2.8,0,1.91,1.91,0,0,1,.583,1.4,1.91,1.91,0,0,1-.583,1.4,1.972,1.972,0,0,1-2.8,0A1.91,1.91,0,0,1,14.6,3.326ZM25.154-6.81a1.91,1.91,0,0,1,.583-1.4,1.91,1.91,0,0,1,1.4-.583,1.882,1.882,0,0,1,1.392.583,1.924,1.924,0,0,1,.575,1.4,1.924,1.924,0,0,1-.575,1.4,1.882,1.882,0,0,1-1.392.583,1.91,1.91,0,0,1-1.4-.583A1.91,1.91,0,0,1,25.154-6.81Zm-21.138,0A1.91,1.91,0,0,1,4.6-8.21,1.91,1.91,0,0,1,6-8.793a1.91,1.91,0,0,1,1.4.583,1.91,1.91,0,0,1,.583,1.4,1.91,1.91,0,0,1-.583,1.4A1.91,1.91,0,0,1,6-4.826a1.91,1.91,0,0,1-1.4-.583A1.91,1.91,0,0,1,4.017-6.81ZM14.6-17.045a1.91,1.91,0,0,1,.583-1.4,1.91,1.91,0,0,1,1.4-.583,1.91,1.91,0,0,1,1.4.583,1.91,1.91,0,0,1,.583,1.4,1.882,1.882,0,0,1-.583,1.392,1.924,1.924,0,0,1-1.4.575,1.924,1.924,0,0,1-1.4-.575A1.882,1.882,0,0,1,14.6-17.045ZM29.322,4.893l-1.167,1.1L16.719-5.509,5.284,6.026l-1.167-1.1,11.4-11.669L4.017-18.379l1.167-1.1L16.719-7.793,28.155-19.612l1.167,1.084L17.82-6.743ZM52.36,6.81H49.426V-13.678H35.673v-2.384H49.426v-5.6H52.36v5.6H65.779v2.384H52.36ZM67.63,2.759l-2.267,1.8a27.506,27.506,0,0,1-5.034-6.718,37.713,37.713,0,0,1-3.317-7.518l2.717-.583A34.166,34.166,0,0,0,67.63,2.759ZM44.858-9.577a29.136,29.136,0,0,1-8.818,14.1l-2.017-1.6a27.177,27.177,0,0,0,5.259-6.743,26.4,26.4,0,0,0,2.626-6.276Zm13.786-11.2v-.05a3.279,3.279,0,0,1,1.109-2.517,3.693,3.693,0,0,1,2.576-1.017A3.592,3.592,0,0,1,65-23.3a3.4,3.4,0,0,1,1.042,2.459,3.353,3.353,0,0,1-1.117,2.609A3.678,3.678,0,0,1,62.4-17.229,3.617,3.617,0,0,1,59.7-18.3,3.428,3.428,0,0,1,58.644-20.779Zm6.118,0v-.067a2.209,2.209,0,0,0-.733-1.65,2.388,2.388,0,0,0-1.7-.7,2.308,2.308,0,0,0-1.659.708,2.265,2.265,0,0,0-.725,1.675,2.3,2.3,0,0,0,.717,1.684,2.286,2.286,0,0,0,1.667.717,2.394,2.394,0,0,0,1.709-.692A2.23,2.23,0,0,0,64.762-20.779ZM89.234,6.943H86.267V-9.66a64.3,64.3,0,0,1-15.6,5.818L69.78-6.126Q80.6-8.91,86.85-13.111A35.219,35.219,0,0,0,96.235-21.8l2.734,1.067q-3.034,4.534-9.735,9.135Zm30.623-20.921-1.884,2.184A89.236,89.236,0,0,0,106.1-17.979l1.434-2.084A70.75,70.75,0,0,1,119.857-13.978Zm14.536,4.234A29.428,29.428,0,0,1,127.125-1.3,32.791,32.791,0,0,1,117.831,4a48.987,48.987,0,0,1-11.361,2.442l-.583-2.567a44.883,44.883,0,0,0,9.735-1.992A29.589,29.589,0,0,0,122.916-1.6a37.044,37.044,0,0,0,5.043-4.051,27.466,27.466,0,0,0,4.151-5.526Zm34.224,4.718-1.75,2.317a61.648,61.648,0,0,0-8.285-4.551A66.07,66.07,0,0,0,150-10.627V7.06h-2.967V-22.129h3v8.935A82.059,82.059,0,0,1,168.617-5.026Zm35.09,7.335-1.5,2.05A48.464,48.464,0,0,0,196.439.225V1.242a4.44,4.44,0,0,1-1.675,3.792q-1.675,1.259-5.693,1.259a8.1,8.1,0,0,1-4.659-1.317,4.073,4.073,0,0,1-1.942-3.534,4.408,4.408,0,0,1,1.85-3.676,7.16,7.16,0,0,1,4.468-1.409,20.278,20.278,0,0,1,5,.617v-9.852H182.069v-2.25h11.719v-6.118h2.617v6.118h6.218v2.25h-6.218V-2.109A27.338,27.338,0,0,1,203.707,2.309Zm-9.769-1.067V-.775a13.136,13.136,0,0,0-5.1-.85A4.936,4.936,0,0,0,186-.834a2.472,2.472,0,0,0-1.109,2.142,2.344,2.344,0,0,0,1.284,2.109,5.889,5.889,0,0,0,3.051.758Q193.938,4.176,193.938,1.242Zm-15.77,4.434-2.484.55a40.012,40.012,0,0,1-1.7-11.9,55.861,55.861,0,0,1,2.284-15.1l2.551.45a49.539,49.539,0,0,0-2.284,14.37A41.343,41.343,0,0,0,178.169,5.676ZM28.788,59H21.62L21.1,56.813a8.329,8.329,0,0,1-5.3,2.317,5.507,5.507,0,0,1-4.584-2.184,9.6,9.6,0,0,1-1.7-6.035A8.961,8.961,0,0,1,11.56,44.8a6.464,6.464,0,0,1,5.076-2.342,9.662,9.662,0,0,1,4.5,1.25v-.95h2.45V57.3h4.284a13.671,13.671,0,0,0,1.517-6.818q0-5.868-3.192-9.252t-8.827-3.384a12.07,12.07,0,0,0-9.018,3.676,12.6,12.6,0,0,0-3.584,9.16,12.745,12.745,0,0,0,3.451,9.3,12.1,12.1,0,0,0,9.068,3.534,22.6,22.6,0,0,0,5.935-.733v2.134a26.884,26.884,0,0,1-5.951.6,14.2,14.2,0,0,1-10.56-4.143A14.611,14.611,0,0,1,2.616,50.645,14.425,14.425,0,0,1,6.859,40.068a14.2,14.2,0,0,1,10.494-4.276q6.518,0,10.319,3.959t3.8,10.627A14.724,14.724,0,0,1,28.788,59ZM21.1,54.879V45.727a9.6,9.6,0,0,0-3.984-1,4.445,4.445,0,0,0-3.642,1.6,6.986,6.986,0,0,0-1.309,4.534q0,5.885,4.318,5.885A7.823,7.823,0,0,0,21.1,54.879Zm29.873,5.4a14.322,14.322,0,0,1-5.9,1.584,8.849,8.849,0,0,1-6.76-2.551q-2.409-2.55-2.409-7.268a10.207,10.207,0,0,1,2.484-7.268,8.743,8.743,0,0,1,6.7-2.651,13.188,13.188,0,0,1,5.885,1.55v3.267h-.133a10.053,10.053,0,0,0-5.818-2.284,5.519,5.519,0,0,0-4.484,1.917,8.311,8.311,0,0,0-1.6,5.468,8.134,8.134,0,0,0,1.592,5.418,5.582,5.582,0,0,0,4.493,1.867,9.872,9.872,0,0,0,5.818-2.25h.133ZM61.9,61.947a8.017,8.017,0,0,1-6.351-2.659,10.623,10.623,0,0,1-2.334-7.26,10.671,10.671,0,0,1,2.35-7.285A7.994,7.994,0,0,1,61.9,42.06a8.017,8.017,0,0,1,6.335,2.667,10.658,10.658,0,0,1,2.35,7.3A10.586,10.586,0,0,1,68.238,59.3,8.047,8.047,0,0,1,61.9,61.947Zm0-17.387a4.956,4.956,0,0,0-4.184,1.917,9,9,0,0,0-1.467,5.551,8.908,8.908,0,0,0,1.467,5.5,5.525,5.525,0,0,0,8.368,0,8.908,8.908,0,0,0,1.467-5.5Q67.546,44.56,61.9,44.56ZM80.182,61.88a14.633,14.633,0,0,1-6.635-1.55v-3.4h.117a11.2,11.2,0,0,0,6.685,2.5Q85,59.43,85,56.5a2.45,2.45,0,0,0-.617-1.784,5.5,5.5,0,0,0-2.567-1.084q-1.634-.317-3.751-.817a6.277,6.277,0,0,1-3.276-1.759,4.576,4.576,0,0,1-1.159-3.226,4.97,4.97,0,0,1,2.034-4.092A8.578,8.578,0,0,1,81.1,42.143,13.239,13.239,0,0,1,87.25,43.51v3.234h-.117a10.249,10.249,0,0,0-6.185-2.15,5.9,5.9,0,0,0-3.184.742A2.318,2.318,0,0,0,76.6,47.394a2.4,2.4,0,0,0,.625,1.784,5.691,5.691,0,0,0,2.492,1.084l3.684.8a6.35,6.35,0,0,1,3.434,1.759,4.643,4.643,0,0,1,1.15,3.259,5.026,5.026,0,0,1-2.117,4.193A9.169,9.169,0,0,1,80.182,61.88Zm35.974-.45V50.878a12.588,12.588,0,0,0-.425-4.076,2.9,2.9,0,0,0-1.3-1.5,4.594,4.594,0,0,0-2.209-.475q-2.284,0-5.384,2.517a20.02,20.02,0,0,1,.1,2.217V61.43H104V50.878a12.633,12.633,0,0,0-.425-4.126,2.89,2.89,0,0,0-1.284-1.459,4.522,4.522,0,0,0-2.175-.467q-2.384,0-5.318,2.434V61.43H91.868V42.593H94.8V44.86q3.351-2.8,6.335-2.8,3.851,0,5.2,3.084,3.634-3.084,6.9-3.084,5.851,0,5.851,7.1V61.43Zm10.085-11.369h11.052q-.133-5.618-5.151-5.618a5.683,5.683,0,0,0-4.1,1.5A6.241,6.241,0,0,0,126.241,50.061Zm6.885,11.8q-4.7,0-7.293-2.542t-2.592-7.193a10.484,10.484,0,0,1,2.484-7.343,8.48,8.48,0,0,1,6.585-2.726,7.484,7.484,0,0,1,5.793,2.234,9.06,9.06,0,0,1,2.059,6.368v1.617H126.241a7.034,7.034,0,0,0,1.842,5.226,6.919,6.919,0,0,0,5.093,1.825,11.268,11.268,0,0,0,6.468-2.25h.133v3.184A18.849,18.849,0,0,1,133.126,61.864Zm30.756.017A21.587,21.587,0,0,1,155,59.78V56h.217a13.05,13.05,0,0,0,8.7,3.267,7.954,7.954,0,0,0,4.709-1.225,4.169,4.169,0,0,0,.984-5.718,4.852,4.852,0,0,0-2.526-1.392l-5.6-1.134a8.752,8.752,0,0,1-4.726-2.359,6.218,6.218,0,0,1-1.609-4.443,6.3,6.3,0,0,1,2.5-5.118,10.06,10.06,0,0,1,6.518-2.017,20.694,20.694,0,0,1,8.4,1.85V41.36h-.233a12.376,12.376,0,0,0-8.168-2.884,7,7,0,0,0-4.193,1.15,3.557,3.557,0,0,0-1.592,3.017q0,3.117,3.634,4.017,2.1.383,4.676.959a14.548,14.548,0,0,1,3.684,1.2,6.7,6.7,0,0,1,1.8,1.425,5.363,5.363,0,0,1,1.034,1.817,7.032,7.032,0,0,1,.342,2.25A6.692,6.692,0,0,1,170.9,59.73,10.8,10.8,0,0,1,163.882,61.88Zm33.173-.45h-3.1V49.011h-13V61.43h-3.1V36.308h3.1V46.327h13V36.308h3.1Zm16.087.517a10.622,10.622,0,0,1-8.4-3.459q-3.051-3.459-3.051-9.61,0-6.135,3.059-9.61a11.892,11.892,0,0,1,16.8,0q3.059,3.476,3.059,9.61,0,6.118-3.059,9.594A10.623,10.623,0,0,1,213.142,61.947Zm.017-23.5a7.3,7.3,0,0,0-6.068,2.734q-2.167,2.734-2.167,7.7t2.167,7.693a8.1,8.1,0,0,0,12.119,0q2.167-2.726,2.167-7.693,0-5-2.167-7.718A7.3,7.3,0,0,0,213.159,38.442Zm19.187,13.5V61.43h-3.1V36.308h6.935q4.851,0,7.176,2.042a6.942,6.942,0,0,1,2.326,5.493,7.454,7.454,0,0,1-2.542,5.843,10.34,10.34,0,0,1-7.11,2.259Zm0-13V49.328h3.1q3.817,0,5.409-1.475a5.1,5.1,0,0,0,1.592-3.926,4.521,4.521,0,0,0-1.55-3.717q-1.55-1.267-4.951-1.267Zm20.337,13V61.43h-3.1V36.308h6.935q4.851,0,7.176,2.042a6.941,6.941,0,0,1,2.325,5.493,7.455,7.455,0,0,1-2.542,5.843,10.34,10.34,0,0,1-7.11,2.259Zm0-13V49.328h3.1q3.817,0,5.409-1.475a5.1,5.1,0,0,0,1.592-3.926,4.521,4.521,0,0,0-1.55-3.717q-1.55-1.267-4.951-1.267ZM278.556,61.43H268.87V59.113h3.3V38.626h-3.3V36.308h9.685v2.317h-3.284V59.113h3.284Zm24.272,0h-3.6l-12.653-21.8v21.8H283.69V36.308h4.3l11.952,20.6v-20.6h2.884Zm26.122-1.867a23.453,23.453,0,0,1-8.835,2.35q-6,0-9.327-3.4t-3.326-9.669q0-6.085,3.384-9.535t9.269-3.451a19.265,19.265,0,0,1,8.818,2.284v3.651H328.7a14.1,14.1,0,0,0-9.119-3.317,8.128,8.128,0,0,0-6.51,2.767,11.133,11.133,0,0,0-2.375,7.5q0,4.951,2.475,7.743a8.612,8.612,0,0,0,6.793,2.792,14.634,14.634,0,0,0,5.918-1.2V51.612h-6.518v-2.7h9.585Zm27.689-24.372L344.569,66.5h-2.684L353.9,35.192ZM398.446,59h-7.168l-.517-2.184a8.329,8.329,0,0,1-5.3,2.317,5.507,5.507,0,0,1-4.584-2.184,9.6,9.6,0,0,1-1.7-6.035,8.961,8.961,0,0,1,2.042-6.11,6.464,6.464,0,0,1,5.076-2.342,9.662,9.662,0,0,1,4.5,1.25v-.95h2.451V57.3h4.284a13.672,13.672,0,0,0,1.517-6.818q0-5.868-3.192-9.252t-8.827-3.384a12.07,12.07,0,0,0-9.019,3.676,12.6,12.6,0,0,0-3.584,9.16,12.745,12.745,0,0,0,3.451,9.3,12.1,12.1,0,0,0,9.068,3.534,22.6,22.6,0,0,0,5.935-.733v2.134a26.885,26.885,0,0,1-5.951.6,14.2,14.2,0,0,1-10.56-4.143,14.611,14.611,0,0,1-4.093-10.727,14.425,14.425,0,0,1,4.243-10.577,14.2,14.2,0,0,1,10.494-4.276q6.518,0,10.319,3.959t3.8,10.627A14.724,14.724,0,0,1,398.446,59Zm-7.685-4.118V45.727a9.6,9.6,0,0,0-3.984-1,4.445,4.445,0,0,0-3.642,1.6,6.986,6.986,0,0,0-1.309,4.534q0,5.885,4.317,5.885A7.823,7.823,0,0,0,390.762,54.879Zm29.873,5.4a14.322,14.322,0,0,1-5.9,1.584,8.849,8.849,0,0,1-6.76-2.551q-2.409-2.55-2.409-7.268a10.207,10.207,0,0,1,2.484-7.268,8.743,8.743,0,0,1,6.7-2.651,13.188,13.188,0,0,1,5.884,1.55v3.267H420.5a10.053,10.053,0,0,0-5.818-2.284,5.519,5.519,0,0,0-4.484,1.917,8.311,8.311,0,0,0-1.6,5.468,8.134,8.134,0,0,0,1.592,5.418,5.582,5.582,0,0,0,4.493,1.867,9.872,9.872,0,0,0,5.818-2.25h.133Zm10.919,1.667a8.017,8.017,0,0,1-6.351-2.659,10.623,10.623,0,0,1-2.334-7.26,10.671,10.671,0,0,1,2.351-7.285,8.837,8.837,0,0,1,12.669-.017,10.659,10.659,0,0,1,2.35,7.3A10.585,10.585,0,0,1,437.9,59.3,8.047,8.047,0,0,1,431.553,61.947Zm0-17.387a4.956,4.956,0,0,0-4.184,1.917,9,9,0,0,0-1.467,5.551,8.908,8.908,0,0,0,1.467,5.5,5.525,5.525,0,0,0,8.368,0,8.908,8.908,0,0,0,1.467-5.5Q437.2,44.56,431.553,44.56ZM449.84,61.88a14.633,14.633,0,0,1-6.635-1.55v-3.4h.117a11.2,11.2,0,0,0,6.685,2.5q4.651,0,4.651-2.934a2.45,2.45,0,0,0-.617-1.784,5.5,5.5,0,0,0-2.567-1.084q-1.634-.317-3.751-.817a6.276,6.276,0,0,1-3.276-1.759,4.576,4.576,0,0,1-1.159-3.226,4.97,4.97,0,0,1,2.034-4.092,8.579,8.579,0,0,1,5.435-1.592,13.24,13.24,0,0,1,6.151,1.367v3.234h-.117a10.249,10.249,0,0,0-6.185-2.15,5.9,5.9,0,0,0-3.184.742,2.318,2.318,0,0,0-1.167,2.059,2.4,2.4,0,0,0,.625,1.784,5.691,5.691,0,0,0,2.492,1.084l3.684.8a6.35,6.35,0,0,1,3.434,1.759,4.643,4.643,0,0,1,1.15,3.259,5.026,5.026,0,0,1-2.117,4.193A9.169,9.169,0,0,1,449.84,61.88Zm35.974-.45V50.878a12.586,12.586,0,0,0-.425-4.076,2.9,2.9,0,0,0-1.3-1.5,4.594,4.594,0,0,0-2.209-.475q-2.284,0-5.384,2.517a20,20,0,0,1,.1,2.217V61.43h-2.934V50.878a12.633,12.633,0,0,0-.425-4.126,2.889,2.889,0,0,0-1.284-1.459,4.522,4.522,0,0,0-2.175-.467q-2.384,0-5.318,2.434V61.43h-2.934V42.593h2.934V44.86q3.351-2.8,6.335-2.8,3.851,0,5.2,3.084,3.634-3.084,6.9-3.084,5.851,0,5.851,7.1V61.43ZM495.9,50.061h11.052q-.133-5.618-5.151-5.618a5.682,5.682,0,0,0-4.1,1.5A6.239,6.239,0,0,0,495.9,50.061Zm6.885,11.8q-4.7,0-7.293-2.542T492.9,52.128a10.485,10.485,0,0,1,2.484-7.343,8.48,8.48,0,0,1,6.585-2.726,7.484,7.484,0,0,1,5.793,2.234,9.059,9.059,0,0,1,2.059,6.368v1.617H495.9a7.034,7.034,0,0,0,1.842,5.226,6.919,6.919,0,0,0,5.093,1.825,11.268,11.268,0,0,0,6.468-2.25h.133v3.184A18.85,18.85,0,0,1,502.784,61.864Zm30.756.017a21.587,21.587,0,0,1-8.885-2.1V56h.217a13.05,13.05,0,0,0,8.7,3.267,7.954,7.954,0,0,0,4.709-1.225,4.168,4.168,0,0,0,.984-5.718,4.853,4.853,0,0,0-2.525-1.392l-5.6-1.134a8.752,8.752,0,0,1-4.726-2.359,6.218,6.218,0,0,1-1.609-4.443,6.3,6.3,0,0,1,2.5-5.118,10.06,10.06,0,0,1,6.518-2.017,20.694,20.694,0,0,1,8.4,1.85V41.36h-.233a12.377,12.377,0,0,0-8.168-2.884,7,7,0,0,0-4.193,1.15,3.557,3.557,0,0,0-1.592,3.017q0,3.117,3.634,4.017,2.1.383,4.676.959a14.548,14.548,0,0,1,3.684,1.2,6.7,6.7,0,0,1,1.8,1.425,5.362,5.362,0,0,1,1.034,1.817,7.03,7.03,0,0,1,.342,2.25,6.692,6.692,0,0,1-2.651,5.418A10.8,10.8,0,0,1,533.54,61.88Zm20.187-.45V39.009h-8.918v-2.7h20.938v2.7h-8.918V61.43Zm24.588.517a10.622,10.622,0,0,1-8.4-3.459q-3.051-3.459-3.051-9.61,0-6.135,3.059-9.61a11.893,11.893,0,0,1,16.8,0q3.059,3.476,3.059,9.61,0,6.118-3.059,9.594A10.623,10.623,0,0,1,578.316,61.947Zm.017-23.5a7.3,7.3,0,0,0-6.068,2.734q-2.167,2.734-2.167,7.7t2.167,7.693a8.1,8.1,0,0,0,12.119,0q2.167-2.726,2.167-7.693,0-5-2.167-7.718A7.3,7.3,0,0,0,578.333,38.442ZM614.957,61.43h-4.051l-8.268-10.1H597.52v10.1h-3.1V36.308h7.118q5.018,0,7.176,1.884a6.253,6.253,0,0,1,2.159,4.951q0,5.184-5.084,7.3ZM597.52,38.942v9.835h3.651q3.451,0,4.951-1.4a5.316,5.316,0,0,0,1.5-4.084q0-4.351-5.884-4.351ZM634.077,61.43H617.724V36.308h16.353v2.7H620.825v7.318h12.919v2.7H620.825v9.7h13.253ZM661.6,35.192,649.53,66.5h-2.684l12.019-31.306ZM28.788,115.084H21.62L21.1,112.9a8.329,8.329,0,0,1-5.3,2.317,5.507,5.507,0,0,1-4.584-2.184A9.6,9.6,0,0,1,9.518,107a8.961,8.961,0,0,1,2.042-6.11,6.464,6.464,0,0,1,5.076-2.342,9.662,9.662,0,0,1,4.5,1.25v-.95h2.45v14.536h4.284a13.671,13.671,0,0,0,1.517-6.818q0-5.868-3.192-9.252T17.369,93.93a12.07,12.07,0,0,0-9.018,3.676,12.6,12.6,0,0,0-3.584,9.16,12.745,12.745,0,0,0,3.451,9.3,12.1,12.1,0,0,0,9.068,3.534,22.6,22.6,0,0,0,5.935-.734V121a26.887,26.887,0,0,1-5.951.6,14.2,14.2,0,0,1-10.56-4.143,14.611,14.611,0,0,1-4.092-10.727A14.425,14.425,0,0,1,6.859,96.155a14.2,14.2,0,0,1,10.494-4.276q6.518,0,10.319,3.959t3.8,10.627A14.724,14.724,0,0,1,28.788,115.084ZM21.1,110.966v-9.152a9.6,9.6,0,0,0-3.984-1,4.445,4.445,0,0,0-3.642,1.6,6.986,6.986,0,0,0-1.309,4.534q0,5.884,4.318,5.885A7.823,7.823,0,0,0,21.1,110.966Zm29.873,5.4a14.323,14.323,0,0,1-5.9,1.584,8.849,8.849,0,0,1-6.76-2.551q-2.409-2.55-2.409-7.268a10.207,10.207,0,0,1,2.484-7.268,8.743,8.743,0,0,1,6.7-2.651,13.188,13.188,0,0,1,5.885,1.55v3.267h-.133a10.053,10.053,0,0,0-5.818-2.284,5.519,5.519,0,0,0-4.484,1.917,8.311,8.311,0,0,0-1.6,5.468,8.134,8.134,0,0,0,1.592,5.418,5.582,5.582,0,0,0,4.493,1.867,9.872,9.872,0,0,0,5.818-2.25h.133ZM61.9,118.035a8.017,8.017,0,0,1-6.351-2.659,10.623,10.623,0,0,1-2.334-7.26,10.671,10.671,0,0,1,2.35-7.285A7.994,7.994,0,0,1,61.9,98.147a8.017,8.017,0,0,1,6.335,2.667,10.658,10.658,0,0,1,2.35,7.3,10.586,10.586,0,0,1-2.342,7.276A8.047,8.047,0,0,1,61.9,118.035Zm0-17.387a4.956,4.956,0,0,0-4.184,1.917,9,9,0,0,0-1.467,5.551,8.908,8.908,0,0,0,1.467,5.5,5.525,5.525,0,0,0,8.368,0,8.908,8.908,0,0,0,1.467-5.5Q67.546,100.648,61.9,100.648Zm18.287,17.32a14.633,14.633,0,0,1-6.635-1.55v-3.4h.117a11.2,11.2,0,0,0,6.685,2.5q4.651,0,4.651-2.934a2.45,2.45,0,0,0-.617-1.784,5.5,5.5,0,0,0-2.567-1.084q-1.634-.317-3.751-.817a6.277,6.277,0,0,1-3.276-1.759,4.576,4.576,0,0,1-1.159-3.226,4.97,4.97,0,0,1,2.034-4.092A8.578,8.578,0,0,1,81.1,98.231,13.239,13.239,0,0,1,87.25,99.6v3.234h-.117a10.249,10.249,0,0,0-6.185-2.15,5.9,5.9,0,0,0-3.184.742,2.318,2.318,0,0,0-1.167,2.059,2.4,2.4,0,0,0,.625,1.784,5.691,5.691,0,0,0,2.492,1.084l3.684.8a6.35,6.35,0,0,1,3.434,1.759,4.643,4.643,0,0,1,1.15,3.259,5.026,5.026,0,0,1-2.117,4.193A9.169,9.169,0,0,1,80.182,117.968Zm35.974-.45V106.966a12.588,12.588,0,0,0-.425-4.076,2.9,2.9,0,0,0-1.3-1.5,4.594,4.594,0,0,0-2.209-.475q-2.284,0-5.384,2.517a20.02,20.02,0,0,1,.1,2.217v11.869H104V106.966a12.633,12.633,0,0,0-.425-4.126,2.89,2.89,0,0,0-1.284-1.459,4.522,4.522,0,0,0-2.175-.467q-2.384,0-5.318,2.434v14.17H91.868V98.681H94.8v2.267q3.351-2.8,6.335-2.8,3.851,0,5.2,3.084,3.634-3.084,6.9-3.084,5.851,0,5.851,7.1v12.269Zm10.085-11.369h11.052q-.133-5.618-5.151-5.618a5.683,5.683,0,0,0-4.1,1.5A6.24,6.24,0,0,0,126.241,106.149Zm6.885,11.8q-4.7,0-7.293-2.542t-2.592-7.193a10.484,10.484,0,0,1,2.484-7.343,8.48,8.48,0,0,1,6.585-2.726,7.484,7.484,0,0,1,5.793,2.234,9.06,9.06,0,0,1,2.059,6.368v1.617H126.241a7.034,7.034,0,0,0,1.842,5.226,6.919,6.919,0,0,0,5.093,1.825,11.268,11.268,0,0,0,6.468-2.25h.133v3.184A18.849,18.849,0,0,1,133.126,117.951Zm29.273-.433V95.1H153.48V92.4h20.938v2.7H165.5v22.421Zm24.588.517a10.622,10.622,0,0,1-8.4-3.459q-3.051-3.459-3.051-9.61,0-6.135,3.059-9.61a11.892,11.892,0,0,1,16.8,0q3.059,3.476,3.059,9.61,0,6.118-3.059,9.594A10.623,10.623,0,0,1,186.987,118.035ZM187,94.53a7.3,7.3,0,0,0-6.068,2.734q-2.167,2.734-2.167,7.7t2.167,7.693a8.1,8.1,0,0,0,12.119,0q2.167-2.726,2.167-7.693,0-5-2.167-7.718A7.3,7.3,0,0,0,187,94.53Zm35.457,22.988h-4.084l-9.869-11.252-2.317,2.384v8.868h-3.1V92.4h3.1v13.019L218.143,92.4h3.8l-11.1,11.852ZM244.032,92.4l-9.135,14.72v10.4h-3.1V107.449L222.611,92.4h3.451l7.3,12.069L240.715,92.4ZM256.8,118.035a10.622,10.622,0,0,1-8.4-3.459q-3.051-3.459-3.051-9.61,0-6.135,3.059-9.61a11.893,11.893,0,0,1,16.8,0q3.059,3.476,3.059,9.61,0,6.118-3.059,9.594A10.623,10.623,0,0,1,256.8,118.035Zm.017-23.5a7.3,7.3,0,0,0-6.068,2.734q-2.167,2.734-2.167,7.7t2.167,7.693a8.1,8.1,0,0,0,12.119,0q2.167-2.726,2.167-7.693,0-5-2.167-7.718A7.3,7.3,0,0,0,256.818,94.53Zm38.874-3.251-12.069,31.306h-2.684l12.019-31.306Zm41.808,23.8h-7.168l-.517-2.184a8.328,8.328,0,0,1-5.3,2.317,5.507,5.507,0,0,1-4.584-2.184,9.6,9.6,0,0,1-1.7-6.035,8.961,8.961,0,0,1,2.042-6.11,6.464,6.464,0,0,1,5.076-2.342,9.662,9.662,0,0,1,4.5,1.25v-.95h2.45v14.536h4.284a13.67,13.67,0,0,0,1.517-6.818q0-5.868-3.192-9.252t-8.827-3.384a12.07,12.07,0,0,0-9.018,3.676,12.6,12.6,0,0,0-3.584,9.16,12.745,12.745,0,0,0,3.451,9.3A12.1,12.1,0,0,0,326,119.6a22.6,22.6,0,0,0,5.934-.734V121a26.886,26.886,0,0,1-5.951.6,14.2,14.2,0,0,1-10.56-4.143,14.611,14.611,0,0,1-4.092-10.727,14.425,14.425,0,0,1,4.243-10.577,14.2,14.2,0,0,1,10.494-4.276q6.518,0,10.319,3.959t3.8,10.627A14.724,14.724,0,0,1,337.5,115.084Zm-7.685-4.117v-9.152a9.6,9.6,0,0,0-3.984-1,4.445,4.445,0,0,0-3.642,1.6,6.986,6.986,0,0,0-1.309,4.534q0,5.884,4.317,5.885A7.823,7.823,0,0,0,329.816,110.966Zm29.873,5.4a14.323,14.323,0,0,1-5.9,1.584,8.849,8.849,0,0,1-6.76-2.551q-2.409-2.55-2.409-7.268a10.207,10.207,0,0,1,2.484-7.268,8.743,8.743,0,0,1,6.7-2.651,13.188,13.188,0,0,1,5.884,1.55v3.267h-.133a10.053,10.053,0,0,0-5.818-2.284,5.519,5.519,0,0,0-4.484,1.917,8.312,8.312,0,0,0-1.6,5.468,8.134,8.134,0,0,0,1.592,5.418,5.582,5.582,0,0,0,4.493,1.867,9.872,9.872,0,0,0,5.818-2.25h.133Zm10.919,1.667a8.018,8.018,0,0,1-6.351-2.659,10.624,10.624,0,0,1-2.334-7.26,10.671,10.671,0,0,1,2.35-7.285,8.837,8.837,0,0,1,12.669-.017,10.659,10.659,0,0,1,2.35,7.3,10.586,10.586,0,0,1-2.342,7.276A8.048,8.048,0,0,1,370.607,118.035Zm0-17.387a4.956,4.956,0,0,0-4.184,1.917,9,9,0,0,0-1.467,5.551,8.908,8.908,0,0,0,1.467,5.5,5.525,5.525,0,0,0,8.368,0,8.909,8.909,0,0,0,1.467-5.5Q376.259,100.648,370.607,100.648Zm18.287,17.32a14.633,14.633,0,0,1-6.635-1.55v-3.4h.117a11.2,11.2,0,0,0,6.685,2.5q4.651,0,4.651-2.934a2.45,2.45,0,0,0-.617-1.784,5.5,5.5,0,0,0-2.567-1.084q-1.634-.317-3.751-.817a6.277,6.277,0,0,1-3.276-1.759,4.577,4.577,0,0,1-1.159-3.226,4.97,4.97,0,0,1,2.034-4.092,8.579,8.579,0,0,1,5.434-1.592,13.239,13.239,0,0,1,6.151,1.367v3.234h-.117a10.249,10.249,0,0,0-6.185-2.15,5.9,5.9,0,0,0-3.184.742,2.318,2.318,0,0,0-1.167,2.059,2.4,2.4,0,0,0,.625,1.784,5.691,5.691,0,0,0,2.492,1.084l3.684.8a6.35,6.35,0,0,1,3.434,1.759,4.642,4.642,0,0,1,1.15,3.259,5.026,5.026,0,0,1-2.117,4.193A9.17,9.17,0,0,1,388.894,117.968Zm35.974-.45V106.966a12.587,12.587,0,0,0-.425-4.076,2.9,2.9,0,0,0-1.3-1.5,4.6,4.6,0,0,0-2.209-.475q-2.284,0-5.384,2.517a20.025,20.025,0,0,1,.1,2.217v11.869h-2.934V106.966a12.634,12.634,0,0,0-.425-4.126,2.89,2.89,0,0,0-1.284-1.459,4.521,4.521,0,0,0-2.175-.467q-2.384,0-5.318,2.434v14.17H400.58V98.681h2.934v2.267q3.351-2.8,6.335-2.8,3.851,0,5.2,3.084,3.634-3.084,6.9-3.084,5.851,0,5.851,7.1v12.269Zm10.085-11.369h11.052q-.133-5.618-5.151-5.618a5.683,5.683,0,0,0-4.1,1.5A6.241,6.241,0,0,0,434.954,106.149Zm6.885,11.8q-4.7,0-7.293-2.542t-2.592-7.193a10.485,10.485,0,0,1,2.484-7.343,8.48,8.48,0,0,1,6.585-2.726,7.484,7.484,0,0,1,5.793,2.234,9.059,9.059,0,0,1,2.059,6.368v1.617H434.954a7.034,7.034,0,0,0,1.842,5.226,6.919,6.919,0,0,0,5.093,1.825,11.268,11.268,0,0,0,6.468-2.25h.133v3.184A18.85,18.85,0,0,1,441.839,117.951Zm32.973.083a10.622,10.622,0,0,1-8.4-3.459q-3.051-3.459-3.051-9.61,0-6.135,3.059-9.61a11.893,11.893,0,0,1,16.8,0q3.059,3.476,3.059,9.61,0,6.118-3.059,9.594A10.623,10.623,0,0,1,474.812,118.035Zm.017-23.5a7.3,7.3,0,0,0-6.068,2.734q-2.167,2.734-2.167,7.7t2.167,7.693a8.1,8.1,0,0,0,12.119,0q2.167-2.726,2.167-7.693,0-5-2.167-7.718A7.3,7.3,0,0,0,474.828,94.53Zm23.788,23.438a21.587,21.587,0,0,1-8.885-2.1v-3.784h.217a13.05,13.05,0,0,0,8.7,3.267,7.954,7.954,0,0,0,4.709-1.225,4.169,4.169,0,0,0,.984-5.718,4.852,4.852,0,0,0-2.526-1.392l-5.6-1.134a8.752,8.752,0,0,1-4.726-2.359,6.218,6.218,0,0,1-1.609-4.443,6.3,6.3,0,0,1,2.5-5.118,10.06,10.06,0,0,1,6.518-2.017,20.693,20.693,0,0,1,8.4,1.85v3.651h-.233a12.376,12.376,0,0,0-8.168-2.884,7,7,0,0,0-4.193,1.15,3.557,3.557,0,0,0-1.592,3.017q0,3.117,3.634,4.017,2.1.383,4.676.959a14.543,14.543,0,0,1,3.684,1.2,6.688,6.688,0,0,1,1.8,1.425,5.363,5.363,0,0,1,1.034,1.817,7.035,7.035,0,0,1,.342,2.25,6.692,6.692,0,0,1-2.65,5.418A10.8,10.8,0,0,1,498.617,117.968Zm27.022-10.2L521.121,95.38l-4.5,12.386Zm3.517,9.752-2.584-7.168h-10.9l-2.584,7.168h-3.151l9.3-25.122h3.951l9.285,25.122Zm26.072,0h-4.084l-9.869-11.252-2.317,2.384v8.868h-3.1V92.4h3.1v13.019L550.911,92.4h3.8l-11.1,11.852Zm16.1-9.752L566.814,95.38l-4.5,12.386Zm3.517,9.752-2.584-7.168h-10.9l-2.584,7.168h-3.151l9.3-25.122h3.951l9.285,25.122ZM609.306,95.83h-8.352a16.367,16.367,0,0,0-5.943,4.759,11.107,11.107,0,0,0-2.892,7.193,7.476,7.476,0,0,0,1.534,4.809,8.786,8.786,0,0,0,4.1,2.817,21.243,21.243,0,0,0,6.8.892q.983,0,2.017-.05l-.167,2.467h-.084q-3.084,0-5.118-.108a17.372,17.372,0,0,1-4.284-.817,11.366,11.366,0,0,1-3.967-2.159,9.2,9.2,0,0,1-2.551-3.351,10.607,10.607,0,0,1-.833-4.3,12.492,12.492,0,0,1,2.042-6.643A18.528,18.528,0,0,1,597,95.763h-16.72V93.546h29.023Zm.717,6.085-1.917.783a34.06,34.06,0,0,0-2.384-4.6l1.767-.867A45.291,45.291,0,0,1,610.022,101.915Zm-4.851,1.017-1.917.867a40.39,40.39,0,0,0-2.417-4.684l1.8-.817A36.212,36.212,0,0,1,605.172,102.932ZM630.41,118.2l-.65-2.25a18.8,18.8,0,0,0,9.177-3.117,10.02,10.02,0,0,0,.733-15.086q-3.076-2.551-8.577-2.7-.184,8.968-3.217,14.97t-7.6,6a5.1,5.1,0,0,1-4.459-2.409,10.262,10.262,0,0,1-1.625-5.876q0-5.718,4.934-10.277a17.952,17.952,0,0,1,22.154-1.384,10.364,10.364,0,0,1,4.118,8.677q0,6.268-4.151,9.585A19.5,19.5,0,0,1,630.41,118.2Zm-1.934-22.938a14.19,14.19,0,0,0-8.318,4.376,11.6,11.6,0,0,0-3.484,8.227,7.872,7.872,0,0,0,1.017,4.126,3.155,3.155,0,0,0,2.834,1.692q3.118,0,5.434-5.826A36.748,36.748,0,0,0,628.476,95.263ZM16.519,173.805l.617-2.05a11.908,11.908,0,0,0,4.268.767,7.554,7.554,0,0,0,4.9-1.45,5.537,5.537,0,0,0-.617-8.635A12.374,12.374,0,0,0,19,160.9a24.086,24.086,0,0,0-5.551.633v10.019q0,3.2-4.851,3.2a7.738,7.738,0,0,1-4.893-1.642A5.059,5.059,0,0,1,1.6,168.954a7.081,7.081,0,0,1,2.626-5.2,17.629,17.629,0,0,1,6.56-3.734v-5.734h-8.3V152.1h8.235v-5.4h2.734v5.151h8.7v2.184h-8.7V159.3a26.132,26.132,0,0,1,5.5-.583,15.517,15.517,0,0,1,8.4,2.134,6.66,6.66,0,0,1,3.4,5.935,7.568,7.568,0,0,1-2.375,5.935,9.286,9.286,0,0,1-6.443,2.134A11.8,11.8,0,0,1,16.519,173.805Zm-5.668-11.469a15.859,15.859,0,0,0-4.818,2.884,4.932,4.932,0,0,0-1.95,3.6,3.012,3.012,0,0,0,1.425,2.692,5.709,5.709,0,0,0,3.176.925q2.167,0,2.167-1.534ZM32.706,155.1l-2.15,1.534a38.452,38.452,0,0,0-8.168-7.435l1.75-1.55a39.853,39.853,0,0,1,4.593,3.509A35.08,35.08,0,0,1,32.706,155.1Zm3.7-2.067V146.35H65v6.685Zm8.752-1.7v-3.317h-6.2v3.317Zm2.334-3.317v3.317H53.96v-3.317Zm14.97,0H56.294v3.317h6.168ZM38.74,170.171v-15h24v15Zm2.551-10.8h18.87v-2.4H41.291Zm0,4.351h18.87v-2.567H41.291Zm18.87,1.784H41.291v2.751h18.87Zm4.8,10.135a44.845,44.845,0,0,1-10.519-3.284l1.467-1.834a40.39,40.39,0,0,0,10.269,3.034Zm-28.939,0-.8-1.884a45.662,45.662,0,0,0,5.434-1.392,22.135,22.135,0,0,0,4.468-1.809l1.767,1.7a23.478,23.478,0,0,1-5.068,2.042A39.655,39.655,0,0,1,36.023,175.639ZM84.733,164.8a29.668,29.668,0,0,1-1.792,3.867,22.624,22.624,0,0,1-2.5,3.809,3.537,3.537,0,0,1-2.642,1.525,2.772,2.772,0,0,1-1.484-.4,9.053,9.053,0,0,1-1.7-1.55,11.466,11.466,0,0,1-1.925-3.159,19.663,19.663,0,0,1-1.292-4.209,23,23,0,0,1-.417-4.284,50.828,50.828,0,0,1,.383-5.284q.4-3.584.433-5.234h2.8q-.067,1.5-.533,5.234a44.977,44.977,0,0,0-.417,5.268,20.472,20.472,0,0,0,.608,5.209,12.473,12.473,0,0,0,1.767,3.976q1.159,1.667,1.692,1.667.867,0,2.334-2.375a37.934,37.934,0,0,0,2.634-5.126Zm15.253,4.9-2.8.083v-.3a29.406,29.406,0,0,0-1.6-9.6,27.1,27.1,0,0,0-4.568-8.335l2.05-1.3Q99.869,158.035,99.986,169.7Zm14.653,1.167-1.567-1.25a30.757,30.757,0,0,0,5.018-7.768,38.438,38.438,0,0,0,3.151-9.569h-2.4a31.083,31.083,0,0,1-3.234,5.534l-1.85-1.117a31.389,31.389,0,0,0,4.7-11.386l2.551.35a25.919,25.919,0,0,1-1.434,4.8H133.61v10.8a63.241,63.241,0,0,1-.342,7.01,18.991,18.991,0,0,1-.817,4.243,4.262,4.262,0,0,1-1.325,1.875,4.324,4.324,0,0,1-1.642.842,23.63,23.63,0,0,1-3.876.183q-.783,0-1.267-.017l-.383-2.234h3.484a2.687,2.687,0,0,0,2.025-.867q.825-.867,1.2-3.942a60.083,60.083,0,0,0,.375-7.176v-8.9h-1.75a45.062,45.062,0,0,1-3.692,13.7,27.862,27.862,0,0,1-6.41,9.352l-1.6-1.367a30.448,30.448,0,0,0,6.051-9.585,42.891,42.891,0,0,0,3.267-12.1h-3.284a38.256,38.256,0,0,1-3.176,9.819A31.986,31.986,0,0,1,114.639,170.871Zm-11-4.7-.767-2.15q1.75-.383,6.268-1.917v-7.8h-2.967a22.585,22.585,0,0,1-1.4,4.9l-2.084-.65a26.155,26.155,0,0,0,1.2-4.876,39.075,39.075,0,0,0,.55-6.31l2.467.033q-.1,2.567-.433,4.984h2.667v-6.9h2.534v6.9h2.684V154.3h-2.684v6.918q2.1-.75,3.384-1.284l.517,1.85a28.559,28.559,0,0,1-3.9,1.7v12.336h-2.534V164.4Q105.787,165.554,103.637,166.17Zm40.842,7.768-2.384.55a39.652,39.652,0,0,1-1.717-11.9,55.862,55.862,0,0,1,2.284-15.1l2.567.45a50.813,50.813,0,0,0-2.3,14.786A39.775,39.775,0,0,0,144.478,173.939Zm22.571-22.021q-2.651-.05-5-.05-3.451,0-12.486.467,0-.75-.1-2.25,8.585-.5,13.953-.5,2.667,0,3.551.05v.15Q166.966,150.551,167.05,151.918Zm.2,21.2a65.108,65.108,0,0,1-6.818.367,32.578,32.578,0,0,1-6.926-.542,6.817,6.817,0,0,1-3.476-1.792,4.49,4.49,0,0,1-1.184-3.217,9.977,9.977,0,0,1,2.5-6.051l1.934,1.034a7.107,7.107,0,0,0-2.05,4.868,2.475,2.475,0,0,0,1.109,2.1,6.561,6.561,0,0,0,2.967,1.059,40.881,40.881,0,0,0,5.276.258,53.752,53.752,0,0,0,6.668-.4Zm34.274-21.2h-8.352a16.3,16.3,0,0,0-5.935,4.759,11.124,11.124,0,0,0-2.884,7.193,7.476,7.476,0,0,0,1.534,4.809,8.788,8.788,0,0,0,4.093,2.817,21.225,21.225,0,0,0,6.81.892q.967,0,2-.05l-.167,2.467h-.083q-3.084,0-5.109-.108a17.467,17.467,0,0,1-4.284-.817,11.352,11.352,0,0,1-3.976-2.159,9.205,9.205,0,0,1-2.551-3.351,10.605,10.605,0,0,1-.833-4.3,12.456,12.456,0,0,1,2.05-6.643,18.7,18.7,0,0,1,5.384-5.576H172.5v-2.217h29.023Zm19.837,21.888.617-2.05a11.908,11.908,0,0,0,4.268.767,7.554,7.554,0,0,0,4.9-1.45,5.537,5.537,0,0,0-.617-8.635,12.374,12.374,0,0,0-6.685-1.534,24.086,24.086,0,0,0-5.551.633v10.019q0,3.2-4.851,3.2a7.738,7.738,0,0,1-4.893-1.642,5.059,5.059,0,0,1-2.109-4.159,7.081,7.081,0,0,1,2.626-5.2,17.629,17.629,0,0,1,6.56-3.734v-5.734h-8.3V152.1h8.235v-5.4h2.734v5.151H227v2.184h-8.7V159.3a26.132,26.132,0,0,1,5.5-.583,15.517,15.517,0,0,1,8.4,2.134,6.66,6.66,0,0,1,3.4,5.935,7.568,7.568,0,0,1-2.376,5.935,9.286,9.286,0,0,1-6.443,2.134A11.8,11.8,0,0,1,221.361,173.805Zm-5.668-11.469a15.859,15.859,0,0,0-4.818,2.884,4.932,4.932,0,0,0-1.95,3.6,3.012,3.012,0,0,0,1.425,2.692,5.709,5.709,0,0,0,3.176.925q2.167,0,2.167-1.534Zm21.854-7.235-2.15,1.534a38.45,38.45,0,0,0-8.168-7.435l1.75-1.55a39.849,39.849,0,0,1,4.593,3.509A35.078,35.078,0,0,1,237.547,155.1Zm33.64,20.5a38.91,38.91,0,0,1-13.3-4.634,15.56,15.56,0,0,1-8.918,4.751l-.7-1.85a14.219,14.219,0,0,0,7.518-4.218,34.325,34.325,0,0,1-4.634-3.717l1.65-1.367a24.2,24.2,0,0,0,4.284,3.417,10.36,10.36,0,0,0,1.367-4.318h-8.3V153.7H258.6v-3.2h-9.318v-1.984H258.6v-3.334h2.617v3.334h10.1V150.5h-10.1v3.2h8.6v9.969h-8.752a12.467,12.467,0,0,1-1.8,5.5l-.033.067a39.99,39.99,0,0,0,13.053,4.251Zm-3.9-20.087h-6.068v4.634q0,1.167-.017,1.634h6.085Zm-8.685,0h-5.918v6.268h5.9q.017-.467.017-1.917Zm-14.636,20.237v-17.62a36.846,36.846,0,0,1-3.584,5.434l-1.534-1.4a46.214,46.214,0,0,0,4.543-8.093,47.694,47.694,0,0,0,3.076-8.727l2.651.417a52.54,52.54,0,0,1-3.417,9.169h.8v20.821ZM289.574,164.8a29.68,29.68,0,0,1-1.792,3.867,22.622,22.622,0,0,1-2.5,3.809,3.537,3.537,0,0,1-2.642,1.525,2.773,2.773,0,0,1-1.484-.4,9.054,9.054,0,0,1-1.7-1.55,11.466,11.466,0,0,1-1.925-3.159,19.659,19.659,0,0,1-1.292-4.209,23,23,0,0,1-.417-4.284,50.8,50.8,0,0,1,.383-5.284q.4-3.584.433-5.234h2.8q-.067,1.5-.533,5.234a44.981,44.981,0,0,0-.417,5.268,20.469,20.469,0,0,0,.608,5.209,12.471,12.471,0,0,0,1.767,3.976q1.159,1.667,1.692,1.667.867,0,2.334-2.375a37.936,37.936,0,0,0,2.634-5.126Zm15.253,4.9-2.8.083v-.3a29.407,29.407,0,0,0-1.6-9.6,27.1,27.1,0,0,0-4.568-8.335l2.05-1.3Q304.711,158.035,304.828,169.7Zm18.887-4.9a29.673,29.673,0,0,1-1.792,3.867,22.624,22.624,0,0,1-2.5,3.809,3.537,3.537,0,0,1-2.642,1.525,2.773,2.773,0,0,1-1.484-.4,9.054,9.054,0,0,1-1.7-1.55,11.469,11.469,0,0,1-1.925-3.159,19.661,19.661,0,0,1-1.292-4.209,23,23,0,0,1-.417-4.284,50.818,50.818,0,0,1,.383-5.284q.4-3.584.433-5.234h2.8q-.067,1.5-.533,5.234a44.971,44.971,0,0,0-.417,5.268,20.475,20.475,0,0,0,.608,5.209A12.474,12.474,0,0,0,315,169.571q1.159,1.667,1.692,1.667.867,0,2.334-2.375a37.939,37.939,0,0,0,2.634-5.126Zm15.253,4.9-2.8.083v-.3a29.407,29.407,0,0,0-1.6-9.6A27.1,27.1,0,0,0,330,151.551l2.05-1.3Q338.851,158.035,338.968,169.7Zm14-23.3q0,1.867-.167,4.468h12.119v2.217h-12.3a52.116,52.116,0,0,1-2.834,12.686q-2.234,6.268-4.534,9.069l-1.984-1.3a35.777,35.777,0,0,0,4.342-9.21,48,48,0,0,0,2.376-11.244h-6.068v-2.217h6.218q.1-2.15.1-4.468Zm19.02,9.869-.033,2.184q-.817-.033-1.5-.033-5.968,0-13.119.683l-.167-2.2a123.509,123.509,0,0,1,12.886-.683Q371.174,156.218,371.991,156.268Zm.984,17.337a44.878,44.878,0,0,1-7.168.45,43.929,43.929,0,0,1-5.993-.317,6.325,6.325,0,0,1-3.426-1.45,3.6,3.6,0,0,1-1.25-2.767,6.634,6.634,0,0,1,1.9-4.484l1.867,1.05a5.322,5.322,0,0,0-1.217,3.151,2.094,2.094,0,0,0,1.125,1.784q1.142.75,6.393.75a62.143,62.143,0,0,0,7.635-.45ZM387.111,146.4q0,1.867-.167,4.468H398.93v2.217H386.761a52.116,52.116,0,0,1-2.834,12.686q-2.234,6.268-4.534,9.069l-1.984-1.3a35.779,35.779,0,0,0,4.343-9.21,48,48,0,0,0,2.376-11.244h-6.068v-2.217h6.218q.1-2.15.1-4.468Zm19.021,9.869-.033,2.184q-.817-.033-1.5-.033-5.968,0-13.119.683l-.167-2.2a123.51,123.51,0,0,1,12.886-.683Q405.314,156.218,406.131,156.268Zm.984,17.337a44.878,44.878,0,0,1-7.168.45,43.93,43.93,0,0,1-5.993-.317,6.326,6.326,0,0,1-3.426-1.45,3.6,3.6,0,0,1-1.25-2.767,6.635,6.635,0,0,1,1.9-4.484l1.867,1.05a5.322,5.322,0,0,0-1.217,3.151,2.094,2.094,0,0,0,1.125,1.784q1.142.75,6.393.75a62.143,62.143,0,0,0,7.635-.45Zm-.167-24.522-1.917.783a31.707,31.707,0,0,0-2.384-4.6l1.767-.85A43.682,43.682,0,0,1,406.948,149.084Zm-4.851,1.034-1.917.85a37.173,37.173,0,0,0-2.417-4.684l1.817-.817A36.929,36.929,0,0,1,402.1,150.117Zm25.122,24.955-1.05-1.95a10.623,10.623,0,0,0,5.351-3.984,12.512,12.512,0,0,0,1.7-6.935v-6.085H422.1v-2.25H433.22V147.15h2.617v6.718h6.685v2.25h-6.685v6.351Q435.837,172.222,427.219,175.072ZM421.7,165.037q-4.084,6.285-4.651,8.835l-2.05-.133a34.96,34.96,0,0,1-2.017-11.936,60.648,60.648,0,0,1,1.917-13.936l2.634.467a56.628,56.628,0,0,0-2.034,13.353,39.434,39.434,0,0,0,.8,8.1q2.067-3.484,3.584-5.784Zm52.644,6.035-1.434,2.217a39.826,39.826,0,0,0-10.035-5.218v2.467q0,4.3-7.935,4.3a10.436,10.436,0,0,1-5.434-1.359,4.164,4.164,0,0,1-2.284-3.726,4.459,4.459,0,0,1,2.167-3.892,9.2,9.2,0,0,1,5.218-1.442,22.654,22.654,0,0,1,5.6.617v-4.918H447.573v-2.184h12.636v-5.084h-13.52v-2.184h13.52v-3.584h2.584v3.584h12.369v2.184H462.793v5.084h10.936v2.184H462.793v5.5A61.788,61.788,0,0,1,474.345,171.071Zm-14.07-1.4v-2.35a16.763,16.763,0,0,0-5.651-.783,7.033,7.033,0,0,0-3.384.833,2.484,2.484,0,0,0-1.55,2.2,2.387,2.387,0,0,0,1.559,2.209,8.911,8.911,0,0,0,3.909.758,10.4,10.4,0,0,0,3.259-.367,3.481,3.481,0,0,0,1.434-.85A2.5,2.5,0,0,0,460.276,169.671Zm36.774-10.335q-.95-1.884-3.967-1.884a3.6,3.6,0,0,0-2.617,1.217,3.953,3.953,0,0,0-.233,5.284,3.157,3.157,0,0,0,2.45.984,4.053,4.053,0,0,0,3.142-1.284,4.978,4.978,0,0,0,1.225-3.367Zm13.169-6.768H499.7v6.418a10.758,10.758,0,0,1,1.1,5.3,9.713,9.713,0,0,1-3.259,7.393,12.592,12.592,0,0,1-8.01,3.292l-.684-2.084a10.852,10.852,0,0,0,6.726-2.751,7.92,7.92,0,0,0,2.726-6.118,8.495,8.495,0,0,0-.067-1.117,4.885,4.885,0,0,1-1.95,3.042,6.12,6.12,0,0,1-3.684,1.109,5.874,5.874,0,0,1-4.118-1.542,5.033,5.033,0,0,1-1.684-3.876,5.91,5.91,0,0,1,1.892-4.476,6.5,6.5,0,0,1,4.642-1.792,5.966,5.966,0,0,1,3.684,1.217v-4.017h-16.7v-2.184h16.7V146.4H499.7v3.984h10.519Zm4.4,18.07a4.172,4.172,0,0,1,1.317-3.1,4.591,4.591,0,0,1,6.368,0,4.309,4.309,0,0,1,0,6.2,4.591,4.591,0,0,1-6.368,0A4.172,4.172,0,0,1,514.62,170.638Zm1.95,0a2.561,2.561,0,1,0,.75-1.8A2.455,2.455,0,0,0,516.57,170.638Z" transform="translate(38.4 285.067)" fill="#333"/></g><g transform="translate(494 6353.356)"><path d="M-59.746-26.677v.064a96.477,96.477,0,0,1-1.216,9.807A49.575,49.575,0,0,1-66.706-.567Q-71.234,7.72-81.169,13.224t-26.286,7.232l-2.56-8.479Q-96.576,10.6-87.553,5.848t12.8-11.775q3.776-7.024,4.8-18.255l-40.445-.064V-32.5l47.453.064A8.142,8.142,0,0,0-59.746-26.677Zm13.311-6.656a6.467,6.467,0,0,1-2.048,4.912,7.2,7.2,0,0,1-5.152,1.936,7.2,7.2,0,0,1-5.152-1.936,6.467,6.467,0,0,1-2.048-4.912,6.467,6.467,0,0,1,2.048-4.912,7.2,7.2,0,0,1,5.152-1.936,7.2,7.2,0,0,1,5.152,1.936A6.467,6.467,0,0,1-46.435-33.333Zm-3.136,0a3.947,3.947,0,0,0-1.168-2.88,3.905,3.905,0,0,0-2.9-1.184,3.905,3.905,0,0,0-2.9,1.184,3.947,3.947,0,0,0-1.168,2.88,3.947,3.947,0,0,0,1.168,2.88,3.9,3.9,0,0,0,2.9,1.184,3.905,3.905,0,0,0,2.9-1.184A3.947,3.947,0,0,0-49.571-33.333ZM12.413-10.55Q5.661.2-7.41,8.6A89.888,89.888,0,0,1-35.968,20.583l-5.024-3.808V-33.813h9.855V9.7A79.7,79.7,0,0,0-11.938.345,62.352,62.352,0,0,0,4.861-15.67ZM76.376-23.126A68.418,68.418,0,0,1,56.25,1.513L49.69-4.535A56.755,56.755,0,0,0,62.745-18.294L39-14.87V4.393A6.7,6.7,0,0,0,40.491,9.16q1.488,1.568,5.936,1.568H74.52V19.4H45.05q-8.319,0-12-3.664T29.371,4.585V-13.494L17.724-11.8l-1.248-8.447L29.627-22.07V-36.757h9.631v13.375l32.51-4.48Zm2.752-7.679-4.608,1.7q-2.24-5.6-4.384-9.823l4.384-1.632Q77.144-35.541,79.128-30.805Zm-9.567,1.184-4.672,1.76q-2.56-6.368-4.384-9.823l4.512-1.76A105.732,105.732,0,0,1,69.561-29.621Zm48.957,8.959-5.856,7.935q-4.736-3.04-8.4-5.12T87.7-26.421l5.056-7.328Q102.807-29.749,118.517-20.662Zm25.95,7.807Q136.34,2.153,123.253,10.024T90.135,19.848L87.96,10.888A86.481,86.481,0,0,0,106.2,7.56a48.179,48.179,0,0,0,12.783-6.128,64.5,64.5,0,0,0,9.343-7.711,62.355,62.355,0,0,0,8.463-11.7ZM202.2-3.671l-6.048,7.583A119.288,119.288,0,0,0,167.9-10.358v31.2H157.817V-36.885h10.175V-19.8A163.554,163.554,0,0,1,202.2-3.671Z" transform="translate(241.582 40.564)" fill="#cb4153"/><path d="M-27,7.215l.946-3.242a8.963,8.963,0,0,0,3.826.946,4.93,4.93,0,0,0,3.2-.96,3.3,3.3,0,0,0,1.183-2.713,3.449,3.449,0,0,0-1.683-3.116,8.768,8.768,0,0,0-4.674-1.057,22.27,22.27,0,0,0-3.937.376V5.115a2.964,2.964,0,0,1-1.343,2.574,5.753,5.753,0,0,1-3.36.932,7.04,7.04,0,0,1-4.661-1.6,5.131,5.131,0,0,1-1.92-4.132,6.377,6.377,0,0,1,1.941-4.514A13.576,13.576,0,0,1-32.191-4.86V-8.366h-6.553v-3.269h6.553V-16.06h4.048v4.424h6.775v3.269h-6.775V-5.89A24.616,24.616,0,0,1-24.261-6.2a13.685,13.685,0,0,1,7.589,1.9,6.093,6.093,0,0,1,2.915,5.419,6.906,6.906,0,0,1-2.191,5.391A8.388,8.388,0,0,1-21.8,8.5,10.5,10.5,0,0,1-27,7.215Zm-5.189-8.528q-3.589,1.725-3.589,4.09a2.062,2.062,0,0,0,.828,1.669,3,3,0,0,0,1.941.668.713.713,0,0,0,.821-.793Zm19.547-7.4-2.991,2.337a42.108,42.108,0,0,0-3.6-3.708,39.175,39.175,0,0,0-3.93-3.388l2.435-2.449a26.854,26.854,0,0,1,4.167,3.179A37.254,37.254,0,0,1-12.645-8.714ZM15-10.077H-9.654v-5.8H15Zm-3.367-1.962v-1.767H7.875v1.767ZM.863-13.806v1.767H4.675v-1.767ZM-2.35-12.039v-1.767H-6.315v1.767ZM.4,5.908a19.239,19.239,0,0,1-4.57,1.753A42.728,42.728,0,0,1-9.932,8.815l-1.113-2.963A35.469,35.469,0,0,0-3.575,4.085H-8.221V-8.853h21.48V4.085H8.376a44.593,44.593,0,0,0,7.763,1.572l-1.656,3.13q-7.318-1.252-9.808-2.8L6.053,4.085H-1.376ZM9.239-5.166V-6.627H-4.27v1.461ZM-4.27-1.66H9.239V-3.149H-4.27ZM9.239.3H-4.27V1.776H9.239Zm24-1.141a37.352,37.352,0,0,1-1.816,4.32A16.6,16.6,0,0,1,29.271,7a3.1,3.1,0,0,1-2.435,1.134q-3.005,0-5.161-3.708A16.636,16.636,0,0,1,19.519-4.1q0-1.572.306-4.661t.292-4.647h4.257Q24.333-12,23.957-8.8A40.691,40.691,0,0,0,23.6-4.179a13.7,13.7,0,0,0,1.078,5.62Q25.752,3.863,26.5,3.863q1.085,0,3.422-6.358ZM44.714,4.308l-4.188.264a26.642,26.642,0,0,0-1.5-8.681,23.568,23.568,0,0,0-4.09-7.5L38.3-13.291A25.368,25.368,0,0,1,44.714,4.308ZM58.166-2.147a17.567,17.567,0,0,1-2.574,1.113V8.7H52.115V.134q-2.963.918-4.438,1.252l-.71-3.422a49.3,49.3,0,0,0,5.147-1.2v-5.3H50.807a16.291,16.291,0,0,1-1.224,4.16l-2.824-.974a25.641,25.641,0,0,0,1.016-4.424,36.309,36.309,0,0,0,.445-5.662l3.214.125q-.014,1.989-.195,3.756h.876v-4.925h3.478v4.925H57.22v2.309A33.674,33.674,0,0,0,59.307-16.8l3.645.376A16.078,16.078,0,0,1,62.41-14H73.094q0,7.5-.181,12.25a53.726,53.726,0,0,1-.529,6.636A4.7,4.7,0,0,1,71.1,7.612a3.664,3.664,0,0,1-2.539.842H65.136l-.417-3.367h2.56a1.536,1.536,0,0,0,1.092-.4,2.678,2.678,0,0,0,.647-1.37A23.638,23.638,0,0,0,69.393.058q.153-2.289.167-5.627v-5.579h-.292A33.854,33.854,0,0,1,66.7.232a23.109,23.109,0,0,1-5.349,8.389L59.071,6.478a23.173,23.173,0,0,0,4.709-7.8,32.357,32.357,0,0,0,2.177-9.822h-.71A33.059,33.059,0,0,1,62.771-2.28a25.877,25.877,0,0,1-4.6,7.366L55.857,3.1a22.094,22.094,0,0,0,3.909-6.434,32.237,32.237,0,0,0,2.156-7.812h-.445l-.932,2.421a20.847,20.847,0,0,1-.87,1.913q-.466.9-.939,1.621L56.024-6.766a16.465,16.465,0,0,0,.89-1.767H55.593v4.271a17.1,17.1,0,0,0,2.087-.821ZM-24.359,48.537h-4.188v-16.5H-39.106V28.559h10.559V23.968h4.188v4.591H-13.9v3.478H-24.359Zm12.09-3.478-3.395,2.2a24.1,24.1,0,0,1-4.292-6.365,26.814,26.814,0,0,1-2.344-6.81l3.965-.57a24.916,24.916,0,0,0,2.073,5.363A34,34,0,0,0-12.269,45.059Zm-17.947-11a24.5,24.5,0,0,1-7.04,13.077l-3.228-2.184A22.314,22.314,0,0,0-36.1,38.562a24.432,24.432,0,0,0,1.656-4.9ZM-13.7,24.984a2.812,2.812,0,0,1-.89,2.136,3.132,3.132,0,0,1-2.24.842,3.132,3.132,0,0,1-2.24-.842,2.812,2.812,0,0,1-.89-2.136,2.812,2.812,0,0,1,.89-2.136,3.132,3.132,0,0,1,2.24-.842,3.132,3.132,0,0,1,2.24.842A2.812,2.812,0,0,1-13.7,24.984Zm-1.363,0a1.716,1.716,0,0,0-.508-1.252,1.7,1.7,0,0,0-1.259-.515,1.7,1.7,0,0,0-1.259.515,1.716,1.716,0,0,0-.508,1.252,1.716,1.716,0,0,0,.508,1.252,1.7,1.7,0,0,0,1.259.515,1.7,1.7,0,0,0,1.259-.515A1.716,1.716,0,0,0-15.065,24.984ZM6.442,48.356H2.171V35.738A51.836,51.836,0,0,1-9.39,39.926l-1.28-3.645A42.294,42.294,0,0,0,2.1,31.119a25.544,25.544,0,0,0,8.222-7.833l4.048,1.544a30.953,30.953,0,0,1-3.979,4.994,31.769,31.769,0,0,1-3.951,3.255ZM33.807,30.549,31.261,34q-2.059-1.322-3.652-2.226t-7.2-3.728l2.2-3.186A90.718,90.718,0,0,1,33.807,30.549ZM45.09,33.943a25.371,25.371,0,0,1-9.224,9.947,34.155,34.155,0,0,1-14.4,4.271l-.946-3.9a37.6,37.6,0,0,0,7.93-1.447,20.947,20.947,0,0,0,5.558-2.664A28.045,28.045,0,0,0,38.071,36.8a27.111,27.111,0,0,0,3.68-5.085Zm28.519,3.993-2.629,3.3a51.864,51.864,0,0,0-12.284-6.2V48.593H54.313V23.5h4.424v7.429A71.11,71.11,0,0,1,73.609,37.936Z" transform="translate(40.483 17.89)" fill="#333"/></g></g></svg>