<svg xmlns="http://www.w3.org/2000/svg" width="502" height="126.636" viewBox="0 0 502 126.636"><g transform="translate(-532 -388.427)"><g transform="translate(532 388.427)"><path d="M-18.923-2.127a29.268,29.268,0,0,1-5.829-3.426,28.824,28.824,0,0,1-5.207-4.8,24.47,24.47,0,0,1-5.076,4.9A29.756,29.756,0,0,1-41.079-1.8l-.777-1.351a29.532,29.532,0,0,0,5.805-3.6,18.948,18.948,0,0,0,4.765-4.819h2.571a24.781,24.781,0,0,0,5.028,4.729,26.362,26.362,0,0,0,5.841,3.366Zm-17.134-.98V-4.555h12.483v1.447Zm6.014,13.368-.945-1.327A17.477,17.477,0,0,0-26.5,5.956a11.792,11.792,0,0,0,3.36-4.52H-39.357V-.011h18.39l.3.347a13.5,13.5,0,0,1-3.772,6.08A17.323,17.323,0,0,1-30.043,10.26ZM3.09,8.646H-14.045v1.3h-1.77v-20.3H4.919V9.854H3.09ZM-14.045,7.2H3.09V-8.907H-14.045ZM-10.4,3.708V-5.463H-.808V3.708ZM-2.65-4.064H-8.568V2.225H-2.65ZM19.638,9.16l-.466-1.614A13.482,13.482,0,0,0,25.754,5.31,6.409,6.409,0,0,0,28.486-.334,6.349,6.349,0,0,0,26.28-5.511a9.807,9.807,0,0,0-6.152-1.937A24.824,24.824,0,0,1,17.821,3.289q-2.176,4.3-5.452,4.3a3.661,3.661,0,0,1-3.2-1.728A7.361,7.361,0,0,1,8,1.651,9.841,9.841,0,0,1,11.543-5.72a11.938,11.938,0,0,1,8.382-3.27,11.937,11.937,0,0,1,7.509,2.278A7.434,7.434,0,0,1,30.387-.489,8.284,8.284,0,0,1,27.41,6.386,13.986,13.986,0,0,1,19.638,9.16ZM18.251-7.293a10.178,10.178,0,0,0-5.967,3.139,8.321,8.321,0,0,0-2.5,5.9,5.647,5.647,0,0,0,.729,2.959A2.263,2.263,0,0,0,12.548,5.92q2.236,0,3.9-4.179A26.361,26.361,0,0,0,18.251-7.293Zm35.07-.442H33.807V-9.4H53.321ZM45.393-.394a10.549,10.549,0,0,1-1,4.914,8.392,8.392,0,0,1-3.151,3.222,16.985,16.985,0,0,1-5.5,2L35.1,8.06a13.5,13.5,0,0,0,5.955-2.648,6.608,6.608,0,0,0,2.2-5.363V-1.195H32.408V-2.94H54.791v1.746h-9.4ZM77.868.754H58.092v-1.77H77.868ZM98.183,8.694,96.294,9.77A42.172,42.172,0,0,0,85.007-.537L86.334-1.8a40.361,40.361,0,0,1,5.751,4.149,33.459,33.459,0,0,0,9.207-9.494H81.8V-8.835h21.427l.909.825A34.955,34.955,0,0,1,93.424,3.564Q95.278,5.334,98.183,8.694Z" transform="translate(220.519 11.573)" fill="#333"/><path d="M139.93,1.249H0V-.5H139.93Z" transform="translate(0 9.374)" fill="#ccc"/><path d="M139.93,1.249H0V-.5H139.93Z" transform="translate(362.07 9.374)" fill="#ccc"/></g><g transform="translate(613.478 436.851)"><path d="M-50.393,8.068l-3.664,3.044-.921-1.146q-4.134,3.758-7.685,3.758a5.687,5.687,0,0,1-4.481-2.01A7.218,7.218,0,0,1-68.9,6.79,15.256,15.256,0,0,1-63.076-5.273a67.5,67.5,0,0,1-2.1-8.436l5.13-1.315a65.092,65.092,0,0,0,1.409,6.877,25.23,25.23,0,0,1,7.629-2.424q.15-2.461.15-6.558l5.58.038a62.408,62.408,0,0,1-.282,6.276,14.152,14.152,0,0,1,9.1,3.889,11.743,11.743,0,0,1,3.5,8.756,11.93,11.93,0,0,1-4.34,9.639q-4.34,3.626-13.416,4.416l-1.109-4.4q7.422-.977,10.353-3.373a7.882,7.882,0,0,0,2.931-6.435,7.7,7.7,0,0,0-2.133-5.571,8.576,8.576,0,0,0-5.59-2.527A32.631,32.631,0,0,1-51.689,6.32Q-51.013,7.26-50.393,8.068ZM-57.307-3.845A43.234,43.234,0,0,0-54.62,1.867a25.156,25.156,0,0,0,3.044-7.892A18.4,18.4,0,0,0-57.307-3.845ZM-57.7,6.17A56.685,56.685,0,0,1-61.1-.688,11.213,11.213,0,0,0-63.79,6.79a2.381,2.381,0,0,0,.47,1.447,1.417,1.417,0,0,0,1.184.639Q-60.22,8.876-57.7,6.17ZM-1.728,12.99l-4.265,3.965A110.926,110.926,0,0,0-17.568,7.617q-4.246-2.762-7.084-4.876t-2.837-4.519q0-2.443,2.912-4.509,6.069-3.983,9.31-6.417t6.924-5.665l4.434,3.495q-4.641,3.833-11.142,8.23l-5.317,3.57a9.339,9.339,0,0,0-1.409,1.033.956.956,0,0,0-.019.188.343.343,0,0,0,.038.207q.038.038,2.668,1.785,6.426,4.228,10.109,6.971T-1.728,12.99ZM4.285-7.9l-2.687,1Q.358-9.989-1-12.676L1.6-13.634Q3.026-10.872,4.285-7.9ZM-1.07-6.7-3.832-5.667q-.77-1.954-2.537-5.768l2.649-1.052A60.6,60.6,0,0,1-1.07-6.7ZM19.523,16.5l-1.033-4.66q9.338-1.09,12.674-3.833T34.5-.726q0-10.485-4.773-10.485a10.2,10.2,0,0,0-5.2,1.569,11.658,11.658,0,0,0-4.416,5.28,17.945,17.945,0,0,0-1.757,7.769,19.329,19.329,0,0,0,.169,2.5l-4.979.319a61.114,61.114,0,0,1-.864-10.6,72.211,72.211,0,0,1,1.3-13.7l5.393.47q-.564,2.95-1.541,8.869A12.909,12.909,0,0,1,22.548-13.8a12.953,12.953,0,0,1,7.328-2.255,8.523,8.523,0,0,1,7.6,3.965q2.6,3.965,2.6,10.842,0,8.812-5.158,12.89T19.523,16.5ZM64.073-6.363q-.225,2.875-.535,4.8a21.755,21.755,0,0,1-1.306,4.444,20.577,20.577,0,0,1-2.875,4.96,22.942,22.942,0,0,1-4.462,4.378A28.861,28.861,0,0,1,49,15.583l-2.593-3.965q11.518-5.092,12.4-17.982H48.759v-4.491H58.924v-6.9h5.355v6.9H79.818v.77q0,9.714-.545,15.323t-1.588,6.971a6.723,6.723,0,0,1-2.508,2.048,7.709,7.709,0,0,1-2.941.752q-1.475.066-7,.066l-.846-4.885h6.388a2.847,2.847,0,0,0,2.771-2.264q.78-2.264.968-10.55V-6.363Zm68.319,18.019a3.2,3.2,0,0,1-1.372,2.631,5.243,5.243,0,0,1-3.288,1.052h-5.111l-.62-4.6h4.04q1.146,0,1.146-1.015V-8.749h-22.81V15.659H99.059V-12.864h11.631q.977-2.8,1.616-5.336l5.543.921q-1.052,2.724-1.8,4.416h16.347ZM111.986,8.575v1.653H107.1V-5.386h17.211V8.575Zm0-4.152h7.4V-1.308h-7.4Zm59.694,10.24H136.844V9.853h13.867V-17.242h5.656v9.15h12.495v4.7H156.367V9.853H171.68Z" transform="translate(85.548 61.257)" fill="#2eb6aa"/><path d="M-72.882,11.6H-97.418V7.479H-77.74V-7.709L-97.157-7.74V-11.8h24.274Zm31.484,0H-65.934V7.479h19.678V-7.709L-65.672-7.74V-11.8H-41.4Zm32.3.277H-34V-11.568H-9.1ZM-13.88,7.941V-7.709H-29.345V7.941ZM15.3,7.633H10.917l.015-6.042Q5.444,4.282,5.444,6.618q0,2.321,5.288,2.321l1.706-.015a77.957,77.957,0,0,0,10.454-.507l.215,3.843q-4.32.415-8.471.415-7.979,0-10.7-1.361a4.443,4.443,0,0,1-2.721-4.2q0-4.673,8.932-9.178a1.433,1.433,0,0,0-1.2-.507,8.807,8.807,0,0,0-3.605,1.03,22.321,22.321,0,0,0-4.866,3.4Q-1.4,3.513-2.212,4.1l-2.675-2.89A28.438,28.438,0,0,0,3.2-7.648H-3.365v-3.643H4.8a26.278,26.278,0,0,0,.969-3.49l4.52.246q-.43,1.906-.876,3.244H19.557v3.643H7.935q-.4.8-1.476,2.46A9.409,9.409,0,0,1,9.41-5.7a5.17,5.17,0,0,1,4.52,1.937q2-.861,8.425-3.382l1.8,3.659q-3.029,1.03-9.039,3.228a18.759,18.759,0,0,1,.154,2.475ZM41.648,12.8l-.63-3.72q10.146,0,10.146-5.78,0-3.075-3.843-4.427a28.1,28.1,0,0,1-6.772,8.947Q36.267,11.6,32.178,11.6a4.917,4.917,0,0,1-3.72-1.376,5.331,5.331,0,0,1-1.322-3.851A8.742,8.742,0,0,1,29.25.777,14.933,14.933,0,0,1,34.838-3.4q-.046-1.322-.046-3.9H27.766v-3.459H34.9q.061-1.2.138-3.643H39.45q-.031,1.537-.169,3.643H53.116V-7.31H39.065q-.031,1.6-.031,2.583A19.7,19.7,0,0,1,42.816-5.1a17.264,17.264,0,0,1,9.232,2.244,7.088,7.088,0,0,1,3.62,6.365,7.7,7.7,0,0,1-3.728,6.895Q48.212,12.8,42.048,12.8ZM43.262-1.837a2.707,2.707,0,0,0-.461-.031,16.557,16.557,0,0,0-3.766.553,38.578,38.578,0,0,0,.584,4.935A20.393,20.393,0,0,0,43.262-1.837ZM35.114.485q-3.92,2.629-3.92,5.534,0,1.952,1.384,1.952a6.717,6.717,0,0,0,3.613-1.445A37.961,37.961,0,0,1,35.114.485Zm30.27,11.484-.692-3.305a61.208,61.208,0,0,0,8.394-.822,10.6,10.6,0,0,0,5-2.206,5.274,5.274,0,0,0,1.891-4.212,5.135,5.135,0,0,0-1.606-3.951A5.912,5.912,0,0,0,74.178-4.02q-3.551,0-14.543,2.075l-.6-3.459,8.24-1.214a56.025,56.025,0,0,1,6.964-.707,10.671,10.671,0,0,1,7.172,2.291A7.92,7.92,0,0,1,84.093,1.33Q84.093,11.753,65.384,11.968ZM100.866-14.72q.046.569.046,1.968,0,1.045-.061,2.045h10.162v3.69H100.435A43.59,43.59,0,0,1,97.883,3.99,33.722,33.722,0,0,1,93.194,13.2l-3.567-2.106a33.842,33.842,0,0,0,4.12-8.355,45.48,45.48,0,0,0,2.337-9.754H90.7v-3.69h5.642q.123-2.475.123-4.012ZM117.53-5.373l-.215,3.659q-.876-.046-1.829-.046-5.212,0-12.913.707L102.3-4.712A116.15,116.15,0,0,1,115.1-5.419Q116.577-5.419,117.53-5.373Zm.815,17.1a47.066,47.066,0,0,1-7.287.507,37.624,37.624,0,0,1-5.557-.361,6.743,6.743,0,0,1-3.759-1.668,4.134,4.134,0,0,1-1.368-3.09q0-2.367,2.521-4.889l3.274,1.537a5.41,5.41,0,0,0-1.522,2.982,1.014,1.014,0,0,0,.553.892,6.24,6.24,0,0,0,2.229.53,33.62,33.62,0,0,0,3.8.192,39.643,39.643,0,0,0,6.9-.6ZM136.424,6.5l-3,2.49-.753-.938q-3.382,3.075-6.288,3.075a4.653,4.653,0,0,1-3.667-1.645,5.906,5.906,0,0,1-1.437-4.028,12.482,12.482,0,0,1,4.766-9.87,55.226,55.226,0,0,1-1.722-6.9l4.2-1.076a53.258,53.258,0,0,0,1.153,5.627,20.643,20.643,0,0,1,6.242-1.983q.123-2.014.123-5.365l4.566.031a51.062,51.062,0,0,1-.231,5.135,11.579,11.579,0,0,1,7.448,3.182,9.608,9.608,0,0,1,2.867,7.164,9.761,9.761,0,0,1-3.551,7.886q-3.551,2.967-10.976,3.613l-.907-3.6q6.072-.8,8.471-2.759a6.449,6.449,0,0,0,2.4-5.265,6.3,6.3,0,0,0-1.745-4.558,7.017,7.017,0,0,0-4.574-2.068,26.7,26.7,0,0,1-4.443,10.423Q135.917,5.834,136.424,6.5Zm-5.657-9.747a35.374,35.374,0,0,0,2.2,4.673,20.583,20.583,0,0,0,2.49-6.457A15.054,15.054,0,0,0,130.766-3.251Zm-.323,8.194a46.38,46.38,0,0,1-2.783-5.611,9.174,9.174,0,0,0-2.2,6.119,1.948,1.948,0,0,0,.384,1.184,1.16,1.16,0,0,0,.969.523Q128.384,7.157,130.444,4.943Zm50.839,3.321-2.706,3.7a40.326,40.326,0,0,0-8.9-5.6q0,3.413-1.568,4.935t-5.258,1.522a12.325,12.325,0,0,1-6.572-1.484A4.815,4.815,0,0,1,153.919,7a5.081,5.081,0,0,1,2.6-4.512A11.677,11.677,0,0,1,162.866.853a19.88,19.88,0,0,1,2.367.154v-15.9h4.535v5.765h10.315v3.813H169.768V2.022A41.327,41.327,0,0,1,181.283,8.263ZM165.325,4.851a13.158,13.158,0,0,0-2.46-.246,8.583,8.583,0,0,0-3.259.576q-1.414.576-1.414,1.637A1.728,1.728,0,0,0,159.361,8.4a6.608,6.608,0,0,0,2.844.553,3.906,3.906,0,0,0,2.521-.561,2.093,2.093,0,0,0,.6-1.606Zm42.43-17.156-.969,3.9a54.979,54.979,0,0,0-7.956-1.091q-5.142-.415-8.724-.415-.907,0-1.706.031l.031-3.843q4.858,0,9.093.292T207.755-12.306ZM191.137,12.737l-.784-3.843q7.671-.338,11.737-2.552T206.157.131a3.163,3.163,0,0,0-1.291-2.706,5.669,5.669,0,0,0-3.444-.953q-1.476,0-3.205.154t-3.052.354q-1.322.2-8.471,1.491L186.325-5.5l6.411-.984q2.8-.43,4.973-.607t3.836-.177a10.741,10.741,0,0,1,6.733,1.914A6.517,6.517,0,0,1,210.753.131a10.107,10.107,0,0,1-5.142,9.07Q200.469,12.4,191.137,12.737Zm42.046-24.751L232.568,4.42h-4.32l-.63-16.434Zm-.123,23.167h-5.3v-4h5.3Z" transform="translate(97.418 14.889)" fill="#333"/><path d="M12.773-7.105,10.529-4A23.194,23.194,0,0,1,2.7-11.118,19.389,19.389,0,0,1-5.075-4.062L-7.028-6.736A15.826,15.826,0,0,0-2.762-9.865a19.017,19.017,0,0,0,3.636-5.05H4.656A18.082,18.082,0,0,0,12.773-7.105ZM-6.689-11.579h-9.531v-2.736h9.531Zm.477,4.366H-17.3v-3.075H-6.213Zm12.252.6A23.775,23.775,0,0,1,1.3-2.363a36.7,36.7,0,0,1-5.911,3.5L-6.536-1.725Q.029-4.984,2.95-8.72ZM-6.843-3.17H-16.19V-5.86h9.347ZM9.529-2.017a32.561,32.561,0,0,1-6.572,5.1,38.329,38.329,0,0,1-8,3.843L-6.49,3.81A34.518,34.518,0,0,0,.936.082a29.05,29.05,0,0,0,5.6-4.574ZM-6.843.95H-16.19V-1.756h9.347ZM12.589,2.933a30.594,30.594,0,0,1-8.2,6.042,38.1,38.1,0,0,1-9.662,3.782L-6.49,9.451A36.635,36.635,0,0,0,2.2,5.777,28.287,28.287,0,0,0,9.622.258ZM-6.6,11.558h-6.349V12.7h-3.69V2.364H-6.6Zm-3.7-2.706V5.1h-2.521V8.852ZM29.115,7.315l-.031,1.43A19.756,19.756,0,0,0,30.89,2.91a41.463,41.463,0,0,0,.515-6.464V-12.87a39.629,39.629,0,0,0,10.515-2.045l1.768,3.136a44.641,44.641,0,0,1-8.409,1.768v4.258H43.6v3.367H41.29v14.82H37.355V-2.386H35.264a34.8,34.8,0,0,1-1.145,8.263,23.326,23.326,0,0,1-3.19,6.849l-2.675-2.075H18.461v1.261h-3.49V-14.07h3.49V7.315ZM23.442.8a19.161,19.161,0,0,1-3.059,4L18.569,2.718A24.585,24.585,0,0,0,22.75-4H19.2V-6.614h4.243v-8.117h3.121v8.117h3.874V-4H27.162A27.012,27.012,0,0,0,30.529.1L28.792,2.58A19.942,19.942,0,0,1,26.563-.08V6.746H23.442ZM30.929-12.84l-1.445,5.8-2.521-.415L28.1-13.316ZM22.966-7.428l-2.706.446-.938-5.734L22-13.132Z" transform="translate(279.878 63.845)" fill="#333"/></g></g></svg>