<svg xmlns="http://www.w3.org/2000/svg" width="287" height="72.399" viewBox="0 0 287 72.399"><g transform="translate(-532 -388.427)"><path d="M-28.745-6.173a16.733,16.733,0,0,1-3.333-1.958,16.479,16.479,0,0,1-2.977-2.745,13.99,13.99,0,0,1-2.9,2.8,17.012,17.012,0,0,1-3.456,2.085l-.444-.772a16.884,16.884,0,0,0,3.319-2.058,10.833,10.833,0,0,0,2.724-2.755h1.47a14.167,14.167,0,0,0,2.875,2.7A15.071,15.071,0,0,0-28.13-6.945Zm-9.8-.561v-.827H-31.4v.827ZM-35.1.909l-.54-.759a9.992,9.992,0,0,0,2.563-1.7,6.742,6.742,0,0,0,1.921-2.584h-9.27v-.827h10.514l.171.2A7.719,7.719,0,0,1-31.9-1.289,9.9,9.9,0,0,1-35.1.909ZM-16.16-.014h-9.8V.731h-1.012V-10.876h11.854V.677H-16.16Zm-9.8-.827h9.8v-9.208h-9.8Zm2.085-2V-8.08h5.482v5.243Zm4.43-4.443h-3.384v3.6h3.384ZM-6.7.28l-.267-.923A7.708,7.708,0,0,0-3.2-1.921,3.664,3.664,0,0,0-1.641-5.147,3.63,3.63,0,0,0-2.9-8.107,5.607,5.607,0,0,0-6.419-9.215,14.192,14.192,0,0,1-7.738-3.076Q-8.982-.615-10.855-.615A2.093,2.093,0,0,1-12.684-1.6a4.208,4.208,0,0,1-.667-2.41,5.626,5.626,0,0,1,2.023-4.214A6.825,6.825,0,0,1-6.535-10.1a6.824,6.824,0,0,1,4.293,1.3A4.25,4.25,0,0,1-.554-5.236a4.736,4.736,0,0,1-1.7,3.931A8,8,0,0,1-6.7.28Zm-.793-9.406A5.819,5.819,0,0,0-10.9-7.332a4.757,4.757,0,0,0-1.429,3.374,3.228,3.228,0,0,0,.417,1.692,1.294,1.294,0,0,0,1.162.694q1.278,0,2.229-2.389A15.071,15.071,0,0,0-7.492-9.126Zm20.05-.253H1.4v-.95H12.558Zm-4.532,4.2a6.031,6.031,0,0,1-.571,2.81A4.8,4.8,0,0,1,5.653-.53,9.711,9.711,0,0,1,2.509.615L2.14-.349a7.717,7.717,0,0,0,3.4-1.514A3.778,3.778,0,0,0,6.8-4.929V-5.64H.6v-1H13.4v1H8.025Zm18.566.656H15.285V-5.537H26.592ZM38.206.014l-1.08.615a24.11,24.11,0,0,0-6.453-5.893l.759-.725A23.075,23.075,0,0,1,34.72-3.616a19.129,19.129,0,0,0,5.264-5.428H28.841v-.964h12.25l.52.472a19.984,19.984,0,0,1-6.125,6.617Q36.545-1.907,38.206.014Z" transform="translate(676 400)" fill="#333"/><path d="M80,.5H0v-1H80Z" transform="translate(532 394)" fill="#ccc"/><path d="M80,.5H0v-1H80Z" transform="translate(739 394)" fill="#ccc"/><path d="M-58.319-3.255l-2.095,1.74-.526-.655A6.826,6.826,0,0,1-65.334-.021,3.251,3.251,0,0,1-67.9-1.171a4.127,4.127,0,0,1-1-2.814,8.722,8.722,0,0,1,3.33-6.9,38.591,38.591,0,0,1-1.2-4.823l2.933-.752a37.214,37.214,0,0,0,.806,3.932,14.425,14.425,0,0,1,4.361-1.386q.086-1.407.086-3.749l3.19.021a35.68,35.68,0,0,1-.161,3.588,8.091,8.091,0,0,1,5.2,2.224,6.714,6.714,0,0,1,2,5.006,6.821,6.821,0,0,1-2.481,5.511Q-53.313.763-58.5,1.214L-59.136-1.3q4.243-.559,5.919-1.928a4.506,4.506,0,0,0,1.676-3.679,4.4,4.4,0,0,0-1.219-3.185,4.9,4.9,0,0,0-3.2-1.445,18.656,18.656,0,0,1-3.1,7.283Q-58.674-3.717-58.319-3.255Zm-3.953-6.811A24.717,24.717,0,0,0-60.736-6.8,14.382,14.382,0,0,0-59-11.312,10.519,10.519,0,0,0-62.272-10.065ZM-62.5-4.34a32.408,32.408,0,0,1-1.944-3.921,6.41,6.41,0,0,0-1.536,4.275,1.361,1.361,0,0,0,.269.827.81.81,0,0,0,.677.365A3.884,3.884,0,0,0-62.5-4.34Zm32,3.9-2.438,2.267a63.418,63.418,0,0,0-6.617-5.339Q-41.98-5.092-43.6-6.3a3.325,3.325,0,0,1-1.622-2.583,3.259,3.259,0,0,1,1.665-2.578q3.47-2.277,5.323-3.668t3.958-3.239l2.535,2q-2.653,2.191-6.37,4.705l-3.04,2.041a5.34,5.34,0,0,0-.806.591.547.547,0,0,0-.011.107.2.2,0,0,0,.021.118q.021.021,1.525,1.021,3.674,2.417,5.779,3.985T-30.5-.44Zm3.438-11.945-1.536.569q-.709-1.762-1.482-3.3l1.482-.548Q-27.779-14.083-27.06-12.386Zm-3.062.688-1.579.591q-.44-1.117-1.45-3.3l1.515-.6A34.646,34.646,0,0,1-30.121-11.7ZM-18.348,1.568-18.938-1.1q5.339-.623,7.246-2.191t1.907-5q0-5.994-2.729-5.994a5.83,5.83,0,0,0-2.97.9,6.665,6.665,0,0,0-2.524,3.019,10.259,10.259,0,0,0-1,4.442,11.051,11.051,0,0,0,.1,1.429l-2.847.183a34.94,34.94,0,0,1-.494-6.059,41.284,41.284,0,0,1,.741-7.831l3.083.269q-.322,1.687-.881,5.07a7.38,7.38,0,0,1,2.7-2.9,7.406,7.406,0,0,1,4.189-1.289,4.873,4.873,0,0,1,4.345,2.267A11.193,11.193,0,0,1-6.6-8.583q0,5.038-2.949,7.369T-18.348,1.568ZM7.122-11.5Q6.993-9.861,6.816-8.76A12.437,12.437,0,0,1,6.069-6.22,11.764,11.764,0,0,1,4.426-3.384a13.116,13.116,0,0,1-2.551,2.5A16.5,16.5,0,0,1-1.493,1.042L-2.976-1.225A11.288,11.288,0,0,0,4.114-11.5H-1.633v-2.567H4.179v-3.942H7.24v3.942h8.884v.44q0,5.554-.312,8.76T14.9-.886A3.844,3.844,0,0,1,13.471.285a4.407,4.407,0,0,1-1.681.43q-.843.038-4,.038L7.3-2.041h3.652a1.627,1.627,0,0,0,1.584-1.294,26.04,26.04,0,0,0,.553-6.032V-11.5ZM46.181-1.2A1.827,1.827,0,0,1,45.4.3a3,3,0,0,1-1.88.6H40.595L40.24-1.729h2.31q.655,0,.655-.58v-10.56H30.164V1.085h-3.04V-15.222h6.649q.559-1.6.924-3.051l3.169.526q-.6,1.558-1.031,2.524h9.346ZM34.515-2.965v.945H31.722v-8.927h9.84v7.981Zm0-2.374h4.232V-8.615H34.515ZM68.643.516H48.727v-2.75h7.928v-15.49h3.233v5.231h7.144v2.686H59.888v7.573h8.755Z" transform="translate(657 459)" fill="#2eb6aa"/><path d="M-83.391.255H-97.418V-2.1h11.25v-8.684l-11.1-.018v-2.32h13.878Zm18,0H-79.418V-2.1h11.25v-8.684l-11.1-.018v-2.32h13.878Zm18.466.158H-61.163v-13.4h14.238Zm-2.733-2.25v-8.947H-58.5v8.947Zm16.682-.176h-2.5l.009-3.454Q-38.61-3.929-38.61-2.593t3.023,1.327l.976-.009a44.569,44.569,0,0,0,5.977-.29l.123,2.2q-2.47.237-4.843.237-4.562,0-6.117-.778a2.54,2.54,0,0,1-1.556-2.4q0-2.672,5.106-5.247a.819.819,0,0,0-.686-.29,5.035,5.035,0,0,0-2.061.589,12.761,12.761,0,0,0-2.782,1.942q-1.072.949-1.538,1.283l-1.529-1.652a16.259,16.259,0,0,0,4.623-5.062h-3.753v-2.083h4.667a15.023,15.023,0,0,0,.554-2l2.584.141q-.246,1.09-.5,1.854h5.8v2.083h-6.645q-.229.457-.844,1.406a5.379,5.379,0,0,1,1.688-.29,2.956,2.956,0,0,1,2.584,1.107q1.143-.492,4.816-1.934l1.028,2.092q-1.731.589-5.168,1.846a10.725,10.725,0,0,1,.088,1.415ZM-17.912.94l-.36-2.127q5.8,0,5.8-3.3,0-1.758-2.2-2.531a16.066,16.066,0,0,1-3.872,5.115A7.344,7.344,0,0,1-23.326.255a2.811,2.811,0,0,1-2.127-.787,3.048,3.048,0,0,1-.756-2.2A5,5,0,0,1-25-5.933a8.538,8.538,0,0,1,3.195-2.391q-.026-.756-.026-2.232h-4.017v-1.978h4.078q.035-.686.079-2.083h2.522q-.018.879-.1,2.083h7.91v1.978h-8.033q-.018.914-.018,1.477a11.265,11.265,0,0,1,2.162-.211,9.87,9.87,0,0,1,5.278,1.283A4.052,4.052,0,0,1-9.9-4.368,4.4,4.4,0,0,1-12.028-.426,10.354,10.354,0,0,1-17.684.94Zm.923-8.367a1.548,1.548,0,0,0-.264-.018,9.466,9.466,0,0,0-2.153.316,22.056,22.056,0,0,0,.334,2.821A11.659,11.659,0,0,0-16.989-7.427ZM-21.647-6.1q-2.241,1.5-2.241,3.164,0,1.116.791,1.116a3.84,3.84,0,0,0,2.065-.826A21.7,21.7,0,0,1-21.647-6.1ZM-4.342.466l-.4-1.89a34.993,34.993,0,0,0,4.8-.47A6.059,6.059,0,0,0,2.918-3.155,3.015,3.015,0,0,0,4-5.563a2.936,2.936,0,0,0-.918-2.259,3.38,3.38,0,0,0-2.4-.853A57.386,57.386,0,0,0-7.629-7.488l-.343-1.978,4.711-.694a32.03,32.03,0,0,1,3.981-.4,6.1,6.1,0,0,1,4.1,1.31A4.528,4.528,0,0,1,6.354-5.616Q6.354.343-4.342.466ZM15.943-14.792q.026.325.026,1.125,0,.6-.035,1.169h5.81v2.109H15.7A24.921,24.921,0,0,1,14.238-4.1a19.279,19.279,0,0,1-2.681,5.265L9.519-.035a19.348,19.348,0,0,0,2.355-4.777,26,26,0,0,0,1.336-5.577H10.134V-12.5h3.226q.07-1.415.07-2.294Zm9.527,5.344-.123,2.092q-.5-.026-1.046-.026-2.979,0-7.383.4L16.761-9.07a66.4,66.4,0,0,1,7.321-.4Q24.926-9.475,25.471-9.448ZM25.937.325a26.908,26.908,0,0,1-4.166.29A21.51,21.51,0,0,1,18.593.409a3.855,3.855,0,0,1-2.149-.954,2.363,2.363,0,0,1-.782-1.767A4.089,4.089,0,0,1,17.1-5.106l1.872.879a3.093,3.093,0,0,0-.87,1.705.58.58,0,0,0,.316.51,3.568,3.568,0,0,0,1.274.3,19.221,19.221,0,0,0,2.171.11,22.664,22.664,0,0,0,3.946-.343ZM36.272-2.663,34.559-1.239l-.431-.536A5.585,5.585,0,0,1,30.533-.018a2.66,2.66,0,0,1-2.1-.94,3.376,3.376,0,0,1-.822-2.3A7.136,7.136,0,0,1,30.34-8.9a31.574,31.574,0,0,1-.984-3.946l2.4-.615a30.448,30.448,0,0,0,.659,3.217,11.8,11.8,0,0,1,3.568-1.134q.07-1.151.07-3.067l2.61.018a29.193,29.193,0,0,1-.132,2.936A6.62,6.62,0,0,1,42.79-9.677a5.493,5.493,0,0,1,1.639,4.1A5.581,5.581,0,0,1,42.4-1.072Q40.368.624,36.123.993L35.6-1.063a9.978,9.978,0,0,0,4.843-1.578,3.687,3.687,0,0,0,1.371-3.01,3.6,3.6,0,0,0-1-2.606,4.012,4.012,0,0,0-2.615-1.182,15.264,15.264,0,0,1-2.54,5.959Q35.982-3.041,36.272-2.663ZM33.038-8.235a20.223,20.223,0,0,0,1.257,2.672,11.767,11.767,0,0,0,1.424-3.691A8.606,8.606,0,0,0,33.038-8.235Zm-.185,4.685a26.516,26.516,0,0,1-1.591-3.208,5.245,5.245,0,0,0-1.257,3.5,1.114,1.114,0,0,0,.22.677.663.663,0,0,0,.554.3A3.178,3.178,0,0,0,32.854-3.551Zm29.065,1.9L60.372.466a23.055,23.055,0,0,0-5.089-3.2,3.8,3.8,0,0,1-.9,2.821,4.236,4.236,0,0,1-3.006.87A7.046,7.046,0,0,1,47.624.11a2.753,2.753,0,0,1-1.349-2.483,2.9,2.9,0,0,1,1.485-2.58,6.676,6.676,0,0,1,3.63-.936,11.365,11.365,0,0,1,1.354.088v-9.088h2.593v3.3h5.9v2.18h-5.9v4.192A23.627,23.627,0,0,1,61.919-1.652ZM52.8-3.6a7.523,7.523,0,0,0-1.406-.141,4.907,4.907,0,0,0-1.863.33q-.809.33-.809.936a.988.988,0,0,0,.668.905,3.778,3.778,0,0,0,1.626.316,2.233,2.233,0,0,0,1.441-.321A1.2,1.2,0,0,0,52.8-2.5Zm24.258-9.809L76.5-11.18a31.432,31.432,0,0,0-4.548-.624q-2.94-.237-4.988-.237-.519,0-.976.018l.018-2.2q2.777,0,5.2.167T77.054-13.412ZM67.553.905l-.448-2.2a15.8,15.8,0,0,0,6.71-1.459A3.9,3.9,0,0,0,76.14-6.3,1.809,1.809,0,0,0,75.4-7.849a3.241,3.241,0,0,0-1.969-.545q-.844,0-1.833.088t-1.745.2q-.756.114-4.843.853L64.8-9.519l3.665-.562q1.6-.246,2.843-.347t2.193-.1a6.141,6.141,0,0,1,3.85,1.094A3.726,3.726,0,0,1,78.768-6.3a5.778,5.778,0,0,1-2.94,5.186Q72.888.712,67.553.905Zm24.038-14.15-.352,9.4H88.77l-.36-9.4ZM91.521,0H88.488V-2.285h3.032Z" transform="translate(676 431)" fill="#333"/><path d="M-.105-10.45-1.389-8.675a13.26,13.26,0,0,1-4.474-4.069A11.085,11.085,0,0,1-10.31-8.71l-1.116-1.529a9.048,9.048,0,0,0,2.439-1.789,10.872,10.872,0,0,0,2.079-2.887h2.162A10.337,10.337,0,0,0-.105-10.45Zm-11.127-2.558h-5.449v-1.564h5.449Zm.272,2.5H-17.3V-12.27h6.337Zm7,.343a13.593,13.593,0,0,1-2.711,2.43,20.98,20.98,0,0,1-3.379,2l-1.1-1.635a15.585,15.585,0,0,0,5.423-4ZM-11.32-8.2h-5.344V-9.738h5.344Zm9.36.659A18.616,18.616,0,0,1-5.717-4.623a21.913,21.913,0,0,1-4.575,2.2l-.826-1.784A19.735,19.735,0,0,0-6.873-6.341a16.608,16.608,0,0,0,3.2-2.615Zm-9.36,1.7h-5.344V-7.392h5.344ZM-.211-4.711A17.491,17.491,0,0,1-4.9-1.257,21.782,21.782,0,0,1-10.424.905l-.694-1.89a20.945,20.945,0,0,0,4.97-2.1A16.172,16.172,0,0,0-1.907-6.24ZM-11.18.22h-3.63V.87h-2.109V-5.036h5.739ZM-13.3-1.327V-3.472h-1.441v2.145ZM9.237-2.206l-.018.817a11.3,11.3,0,0,0,1.033-3.335,23.7,23.7,0,0,0,.294-3.7v-5.326a22.657,22.657,0,0,0,6.012-1.169l1.011,1.793a25.522,25.522,0,0,1-4.808,1.011v2.435h4.755v1.925H16.2V.721h-2.25V-7.752h-1.2A19.894,19.894,0,0,1,12.1-3.028,13.336,13.336,0,0,1,10.274.888L8.745-.3h-5.6V.422h-2V-14.432h2V-2.206ZM5.994-5.933A10.955,10.955,0,0,1,4.245-3.647L3.208-4.834A14.056,14.056,0,0,0,5.6-8.675H3.568v-1.494H5.994V-14.81H7.778v4.641H9.993v1.494H8.121a15.443,15.443,0,0,0,1.925,2.347L9.053-4.913A11.4,11.4,0,0,1,7.778-6.434v3.9H5.994Zm4.28-7.8-.826,3.313-1.441-.237L8.657-14ZM5.722-10.635l-1.547.255-.536-3.278L5.168-13.9Z" transform="translate(746 459)" fill="#333"/></g></svg>